<svg xmlns="http://www.w3.org/2000/svg" width="30" height="30" viewBox="0 0 30 30">
  <g id="Group_67780" data-name="Group 67780" transform="translate(-410 -1011)">
    <rect id="Rectangle_8823" data-name="Rectangle 8823" width="30" height="30" rx="2" transform="translate(410 1011)" fill="#edf3fc"/>
    <path id="clip" d="M13.218,5.6a.568.568,0,0,0-.812,0L6.155,11.975a2.838,2.838,0,0,1-4.059,0,2.949,2.949,0,0,1,0-4.124L8.151,1.676a1.7,1.7,0,0,1,2.435,0,1.769,1.769,0,0,1,0,2.474L4.531,10.326a.58.58,0,0,1-.812,0,.59.59,0,0,1,0-.825L9.11,4a.59.59,0,0,0,0-.825.568.568,0,0,0-.812,0l-5.391,5.5a1.769,1.769,0,0,0,0,2.474,1.744,1.744,0,0,0,2.435,0L11.4,4.974a2.948,2.948,0,0,0,0-4.123,2.838,2.838,0,0,0-4.058,0L1.284,7.028a4.128,4.128,0,0,0,0,5.773,3.973,3.973,0,0,0,5.682,0l6.251-6.377a.59.59,0,0,0,0-.827Z" transform="translate(418.252 1019.003)" fill="#2a6dd9"/>
  </g>
</svg>
