<?xml version="1.0" standalone="yes"?>
<svg xmlns="http://www.w3.org/2000/svg" width="1920" height="1080">
<path style="fill:#fdfcfc; stroke:none;" d="M0 0L0 1080L1920 1080L1920 0L1621 0L1621 124L1508 124L1508 125L1621 125L1621 128L1546 128L1507 129L1507 120C1499.23 119.979 1481.24 112.31 1477 120L1481 119L1491.45 133L1513 169L1514 169C1511.57 154.375 1528.1 159 1539 159L1621 159L1621 245L1620.1 283L1600.36 318L1594.05 336.745L1564 367L1551.51 382L1551 428L1551 528L1031 528L1031 625L1024 625L1024 415L1024 358C1024 348.449 1025.56 337.702 1021 329L1020 329L1019 625L1007 625L1007 195L1007 61L1007 19L1007 0L0 0z"/>
<path style="fill:#344c23; stroke:none;" d="M1007 0L1007 10C1010.7 6.72473 1011.55 2.88025 1007 0z"/>
<path style="fill:#676272; stroke:none;" d="M1009 0L1007.14 13L1007 38L1007 137L1008 137L1008 134L1009 134L1009 173L1007 172C1007 178.257 1004.36 191.286 1010 195L1007 196L1007 210L1008 210L1008 208L1009 208L1010.01 284L1011 363L1012 625L1014 625L1014.43 334L1011.02 298L1013.96 270L1014 209L1015 209L1015 212L1016 212C1014.69 195.449 1012.77 182.668 1016 166C1012.64 166 1014 160.791 1014 158L1014 131L1014 51C1014 39.6036 1010.84 25.9037 1014 15L1016 15L1018 64L1018 151L1019 151C1019 113.342 1019.44 75.6547 1019 38C1018.91 30.34 1012.86 4.18579 1024 4L1023 14L1028 10L1029 10C1027.76 19.3635 1037.25 17 1044 17L1044 18L1040 23L1041 23L1045 19L1045 27L1055 3L1055 17L1056 17L1059 0L1022 0L1023 2C1016.68 3.00854 1017.27 7.70215 1016 13L1015 13C1015 7.09949 1014.76 2.82983 1009 0z"/>
<path style="fill:#344c23; stroke:none;" d="M1011 0L1015 13L1016 13C1017.53 7.8822 1017.13 3.70276 1023 2L1011 0z"/>
<path style="fill:#a0623a; stroke:none;" d="M1059 0L1059 12L1060 12L1061 0L1059 0z"/>
<path style="fill:#b9ab5f; stroke:none;" d="M1061 0L1061 9L1062 9L1061 0z"/>
<path style="fill:#a0623a; stroke:none;" d="M1062 0L1062 9L1063 9L1062 0z"/>
<path style="fill:#676272; stroke:none;" d="M1063 0L1063 9L1066 9L1066 0L1063 0z"/>
<path style="fill:#a0623a; stroke:none;" d="M1066 0L1066 9L1067 9L1066 0z"/>
<path style="fill:#b9ab5f; stroke:none;" d="M1067 0L1067 9L1070 9L1070 0L1067 0z"/>
<path style="fill:#a0623a; stroke:none;" d="M1070 0L1070 9L1071 9L1070 0z"/>
<path style="fill:#676272; stroke:none;" d="M1071 0L1071 9L1074 0L1071 0z"/>
<path style="fill:#a0623a; stroke:none;" d="M1074 0L1074 8L1078 8L1078 0L1074 0z"/>
<path style="fill:#676272; stroke:none;" d="M1078 0L1078 8L1079 8L1078 0z"/>
<path style="fill:#344c23; stroke:none;" d="M1079 0L1079 8L1080 8L1079 0z"/>
<path style="fill:#676272; stroke:none;" d="M1080 0L1080 8L1084 8L1084 0L1080 0z"/>
<path style="fill:#a0623a; stroke:none;" d="M1084 0L1084 8L1109 6L1109 0L1084 0z"/>
<path style="fill:#b9ab5f; stroke:none;" d="M1109 0L1109 5L1114 5L1114 0L1109 0z"/>
<path style="fill:#a0623a; stroke:none;" d="M1114 0L1114 5L1121 5L1121 0L1114 0z"/>
<path style="fill:#b9ab5f; stroke:none;" d="M1121 0L1121 5L1122 5L1123 0L1121 0z"/>
<path style="fill:#a0623a; stroke:none;" d="M1123 0L1123 4L1128 4L1128 0L1123 0z"/>
<path style="fill:#b9ab5f; stroke:none;" d="M1128 0L1128 4L1131 4L1131 0L1128 0z"/>
<path style="fill:#a0623a; stroke:none;" d="M1131 0L1131 4L1138 3L1138 0L1131 0z"/>
<path style="fill:#b9ab5f; stroke:none;" d="M1138 0L1138 3L1140 3L1140 0L1138 0z"/>
<path style="fill:#a0623a; stroke:none;" d="M1140 0L1140 3L1145 3L1145 0L1140 0z"/>
<path style="fill:#b9ab5f; stroke:none;" d="M1145 0L1145 3L1147 0L1145 0z"/>
<path style="fill:#a0623a; stroke:none;" d="M1147 0L1147 2L1153 2L1153 0L1147 0z"/>
<path style="fill:#b9ab5f; stroke:none;" d="M1153 0L1153 2L1156 2L1156 0L1153 0z"/>
<path style="fill:#a0623a; stroke:none;" d="M1156 2L1161 1L1156 2z"/>
<path style="fill:#b9ab5f; stroke:none;" d="M1161 0L1161 1L1169 1L1161 0z"/>
<path style="fill:#a0623a; stroke:none;" d="M1169 0L1170 1L1169 0z"/>
<path style="fill:#fdfcfc; stroke:none;" d="M1033 35L1100 28.0393L1187 39L1252 32.0146L1315 40.9607L1360 26.5286L1404 25C1396.42 16.7325 1377.96 3.13074 1367 0.418945C1350.3 -3.71411 1328.23 0 1311 0C1246.8 0 1182.88 -1.25366 1119 4.8302C1106.39 6.03137 1093.64 7.02441 1081 7.91052C1075.48 8.29736 1067.39 7.44141 1062.29 9.60339C1056.24 12.1656 1053.15 20.5961 1047.99 24.5811C1042.56 28.7638 1037.14 28.9341 1033 35z"/>
<path style="fill:#a0623a; stroke:none;" d="M1368 0L1368 1L1404 24L1404 25L1398 27L1390 26L1390 27C1412.45 34.6436 1433.64 54.5006 1457 58L1457 0L1439 0L1439 49L1438 49L1438 0L1432 0L1432 44L1431 44L1431 0L1418 0L1418 37L1415 36L1416 0L1412 0L1412 34L1409 33L1410 0L1368 0z"/>
<path style="fill:#676272; stroke:none;" d="M1410 0C1410 6.96912 1406.5 29.9948 1412 34L1412 0L1410 0M1416 0L1416 27L1418 37L1418 0L1416 0M1431 0L1431 44L1432 44C1432 31.5197 1435.81 11.4633 1431 0M1438 0L1438 49L1439 49C1439 35.2122 1443.31 12.6519 1438 0z"/>
<path style="fill:#b9ab5f; stroke:none;" d="M1457 0L1457 58C1430.59 51.7427 1409.43 28.5454 1382 25C1388.15 36.2112 1404.46 46.9813 1417 46L1417 47L1406 49L1406 50C1419.41 53.1781 1429.77 61.9681 1442 67.6767C1455.5 73.9785 1475.02 76.2175 1481 92L1482 92L1482 87L1487 93C1496.92 93.7827 1502.07 92.5627 1510 86L1512 90L1525.4 73.625L1526 52L1526 0L1523 0L1523 72L1495 64.0841L1480.6 60.4005L1479 44L1479 0L1477 0L1477 61L1460 59L1460 0L1457 0z"/>
<path style="fill:#a0623a; stroke:none;" d="M1460 0L1460 59L1477 61L1477 0L1476 0L1476 60L1475 60L1475 0L1471 0L1471 58L1470 58L1470 0L1468 0L1468 43C1468 47.9042 1469.56 55.041 1465 58L1465 57L1467 42L1467 0L1460 0z"/>
<path style="fill:#676272; stroke:none;" d="M1467 0L1467 40L1465 57L1465 58C1469.85 56.9601 1468 49.0885 1468 45L1468 14C1468 9.75061 1469.09 3.6333 1467 0z"/>
<path style="fill:#b9ab5f; stroke:none;" d="M1470 0L1470 58L1471 58L1471 19L1470 0z"/>
<path style="fill:#676272; stroke:none;" d="M1475 0L1475 60L1476 60L1476 19L1475 0z"/>
<path style="fill:#a0623a; stroke:none;" d="M1479 0L1479 44L1480.03 60.4005L1493 63.9197L1523 72L1523 0L1506 0L1506 65C1500.2 61.8018 1502 53.8073 1502 48L1502 0L1496 0L1496 45L1494 63C1498.6 43.6998 1495 19.8353 1495 0L1487 0L1487 61L1485 61L1485 0L1479 0z"/>
<path style="fill:#676272; stroke:none;" d="M1485 0L1485 61L1487 61L1487 0L1485 0M1495 0L1494 63C1497.53 59.9142 1496 52.4106 1496 48C1496 34.4852 1500.21 12.4073 1495 0M1502 0L1502 49C1502 54.2506 1499.98 63.0008 1506 65L1506 0L1502 0z"/>
<path style="fill:#a0623a; stroke:none;" d="M1526 0L1526 49L1525.68 71.8958L1512 90L1510 86C1501.28 91.2715 1497.15 93.4356 1487 93C1486.7 89.1713 1485.8 87.8272 1482 87L1482 92L1481 92C1478.95 84.5945 1473.67 80.7597 1467 77.2616C1458.64 72.8765 1449.31 71.0389 1441 66.6797C1429.66 60.7311 1419.01 51.9482 1406 50L1406 49L1417 47L1417 46C1398.69 46.7334 1394.36 26.4607 1377.96 25.0579C1355.03 23.0963 1337.09 39.3623 1315 40.9105C1294.07 42.3776 1276.2 34.344 1256 32.1736C1240.84 30.5452 1224.98 34.1046 1210 36L1210 38L1240.41 40.9691L1256 46L1253 44L1253 43C1270.02 48.5474 1285.12 57.66 1303 61.196C1317.29 64.0207 1331.84 60.9621 1346 63.4637C1355.17 65.0833 1369.78 68.1196 1371 79C1348.49 59.0075 1322.17 70.2111 1295 64L1297 61L1284 58L1284 59L1287 60L1287 61C1273.86 59.9613 1262.15 53.4421 1249 52.1698C1246.24 51.9026 1237.83 50.6525 1236.18 53.5988C1234.54 56.5131 1238.95 58.7523 1241 59.4707C1249.47 62.4293 1257.95 64.6738 1266 68.7562C1285.39 78.5883 1306.81 87.8203 1328 93.2392C1335.87 95.2521 1344.11 93.4286 1352 96.1042C1357.7 98.0356 1362.42 101.889 1368 104L1368 105L1354 106L1354 107L1406 110.325L1429 117L1428 120L1435.86 134.582L1449.33 144.975L1475.71 176.424L1485 185.346L1498 185L1497 182L1504 180L1505 185L1517 187L1495.33 160L1480.83 134L1473 121L1472 121L1481 146L1485 146L1490 158L1482 164C1479.38 158.089 1473.86 154.328 1468 152L1469 150L1468 149C1465.22 149.196 1463.36 149.021 1463 146L1456 138.167L1447 133.667L1438 121C1452.14 121 1463.73 121.516 1477 116L1476 118L1496 108L1497 109L1496 112L1507 107L1509 123L1547 122L1621 122L1621 0L1526 0z"/>
<path style="fill:#b9ab5f; stroke:none;" d="M1018 158L1019 158C1020.39 125.734 1020 93.3481 1020 61C1020 46.8273 1023.02 28.5894 1019 15C1029.84 16.191 1023 35.9872 1023 43L1023 104C1023 113.489 1021.3 124.878 1024 134L1027 125L1101 109L1101 110L1098 111L1098 112C1106.11 118.592 1104.04 128.892 1106.3 137.826C1107.22 141.424 1111.56 142.789 1112.33 146.209C1113.03 149.316 1110.19 152.769 1110.09 156C1109.79 165.934 1110.87 174.938 1109 185L1108 185C1106.42 178.087 1106.7 166.688 1098 166C1095.56 172.139 1087.45 176.171 1083.18 168.811C1080.61 164.389 1082.21 158.843 1079.37 154.171C1074.73 146.558 1070.17 149.724 1068.92 156.998C1068.52 159.336 1068.19 161.637 1068 164L1067 164C1065.68 158.477 1067.31 140.599 1060.84 138.497C1053.96 136.261 1054.96 154.691 1055.02 158C1055.34 174.571 1057.24 190.555 1059.28 207C1060.05 213.114 1059.67 221.153 1065 225L1042 230L1042 231L1105 215L1105 214L1078 220L1078 219L1090 214L1090 212C1081.98 204.993 1075.47 183.554 1085 176C1087.88 186.068 1096.41 194.095 1101.97 203C1103.6 205.609 1109.35 211.381 1106 213L1106 214C1128.89 213.015 1153.31 215.004 1176 210.739C1189.12 208.273 1201.11 201.122 1214 197.64C1230.89 193.08 1245.82 193.645 1263 194L1263 193C1244.5 192.206 1226.78 191.294 1209 198L1212 191L1210 187C1216.46 184.836 1212.76 168.746 1212.17 163C1211.1 152.498 1202.6 144.302 1196.38 136C1188.58 125.607 1183.19 112.128 1172 105C1180.33 100.922 1190.94 100.364 1200 98.5509C1210.61 96.4274 1222.07 92.6477 1233 93.2091C1247.31 93.9445 1260.87 99.5219 1275 101.704C1314.03 107.73 1355.55 110.974 1395 111L1395 112C1383.01 112.05 1386.85 124.855 1391.39 131.972C1395.82 138.925 1401.99 138.996 1409 137.306C1412.49 136.465 1413.89 137.214 1416 134C1418.83 138.08 1424.75 139.09 1426.69 144.015C1428.83 149.45 1431.66 161.111 1431.93 167C1432.16 171.986 1429.61 177.307 1432.89 181.786C1436.58 186.809 1445.48 187.102 1451 189.089C1460.01 192.33 1469.87 195.848 1478 200.951C1486.15 206.065 1491.79 212.761 1502 213L1502 214L1499 217L1504 218C1496.66 220.728 1488.29 216.595 1481 215.015C1464.78 211.498 1446.55 206.712 1430 206L1430 207L1467 214L1467 215C1461.43 215.02 1453.3 216.699 1452 223L1440.53 238L1414 267C1424.89 268.113 1431.29 257.814 1439 251.464C1447.34 244.599 1453.71 245.413 1463 241.968C1468.59 239.89 1470.55 236.076 1477 236L1479 253C1488.5 248.169 1489.37 232.352 1492 223L1469 216L1469 215C1485.35 215.704 1508.51 220.108 1523 227.782C1527.51 230.167 1536.06 233.812 1536.99 239.428C1539.78 256.217 1528.86 269.52 1523.69 284C1521.54 289.996 1522 296.748 1522 303L1608 303L1608 304L1606 306C1587.4 300.503 1561.43 305 1542 305C1537.17 305 1524.41 302.746 1520.94 306.603C1513.83 314.5 1522.88 328.301 1527 335L1503 334L1503 528L1509 528L1509 336L1510 336L1510 528L1551 528L1551 428L1551.51 383L1564 368L1592.55 339.17L1600.36 319L1620.1 284L1621 246L1621 159L1538 159C1527.49 159 1510.12 154.31 1514 169L1513 169L1490.78 131L1481 119L1477 120C1474.42 117.78 1472.74 121.395 1473.79 124.005C1476.09 129.712 1480.87 135.513 1483.9 141C1493.32 158.101 1505.86 171.121 1517 187L1505 185L1504 180L1497 182L1498 185C1493.58 184.276 1488.12 186.809 1484.09 184.318C1469.64 175.383 1460.13 156.737 1449.33 144.025C1445.68 139.725 1440.14 138.505 1436.51 134.582C1433.96 131.823 1429.9 120.699 1429 117C1403.83 110.129 1380.25 107 1354 107L1354 106L1368 105L1368 104C1362.16 100.76 1356.64 96.7447 1350 95.2894C1342.74 93.6989 1335.08 95.0233 1328 92.9568C1306.68 86.7366 1285.78 78.1374 1266 68.2485C1258.29 64.3923 1250.1 62.2722 1242 59.4707C1240.03 58.7874 1235.13 56.4919 1236.92 53.5988C1238.82 50.5365 1247.1 52.0121 1250 52.4282C1262.68 54.2487 1274.14 60.4481 1287 61L1287 60L1284 59L1284 58L1297 61L1295 64C1304.96 67.1581 1317.54 68.9886 1328 67.892C1332.16 67.4557 1335.68 64.8146 1339.96 65.1473C1352.14 66.093 1361.05 72.5888 1371 79C1370.39 67.8727 1356.24 65.0969 1347 63.4637C1332.13 60.8356 1316.99 64.1317 1302 60.7855C1284.72 56.9282 1269.89 46.9089 1253 43L1253 44L1256 46L1240.96 40.8025L1210 36C1173.61 44.7644 1139.07 31.6031 1103 28.1698C1078.74 25.8607 1051.78 32.2125 1028 36L1027 35L1030 24L1040 25L1044 18L1044 17C1037.17 17 1028.86 19.0093 1029 10L1028 10L1023 14L1024 4C1012.93 2.55029 1018.96 32.6771 1019 40C1019.19 79.3521 1018.81 118.728 1018 158z"/>
<path style="fill:#a0623a; stroke:none;" d="M1054 3L1054 18L1055 18L1054 3z"/>
<path style="fill:#fdfcfc; stroke:none;" d="M1020 4L1021 13L1020 4z"/>
<path style="fill:#b9ab5f; stroke:none;" d="M1053 4L1053 19L1054 19L1053 4z"/>
<path style="fill:#a0623a; stroke:none;" d="M1052 5L1053 6L1052 5M1051 6L1049 24C1053.92 19.9014 1054.63 11.3114 1051 6z"/>
<path style="fill:#344c23; stroke:none;" d="M1025 10L1026 11L1025 10z"/>
<path style="fill:#fdfcfc; stroke:none;" d="M1019 15C1023.95 35.7755 1020 61.6429 1020 83C1020 104.511 1021.39 126.543 1019.91 148C1019.05 160.456 1014.88 172.424 1014.71 185C1014.5 200.48 1018.99 215.574 1019 231C1033.28 231 1052.37 232.947 1065 225C1059.55 219.707 1059.63 210.249 1059 203C1057.71 188.233 1056.2 173.726 1055.16 159C1054.92 155.733 1053.99 137.574 1060.37 138.782C1067.12 140.058 1065.5 158.946 1067 164L1068 164C1068.26 161.987 1068.57 159.996 1068.92 157.995C1070.88 146.713 1078.02 149.625 1081.2 159.001C1082.34 162.387 1081.24 166.568 1083.18 169.656C1087.49 176.504 1096.46 172.307 1098 166C1106.56 167.385 1105.85 178.219 1108 185L1109 185C1111.38 175.01 1109.64 165.847 1110.22 156C1110.42 152.667 1113.64 149.507 1112.98 146.209C1112.16 142.063 1106.85 140.623 1106.14 135.961C1104.98 128.265 1105.96 116.283 1098 112L1098 111L1101 110L1101 109L1027 125L1024 134C1021.59 123.883 1023 112.363 1023 102L1023 43C1023 37.0039 1029.92 13.8953 1019 15z"/>
<path style="fill:#344c23; stroke:none;" d="M1014 15L1013.99 38L1014.91 80L1014 167L1015 167C1019.23 154.5 1018 141.001 1018 128L1018 65C1018 49.3739 1020.44 30.025 1016 15L1014 15M1045 18L1046 19L1045 18M1042 28L1045 19C1041.06 21.1733 1041.11 23.865 1042 28z"/>
<path style="fill:#a0623a; stroke:none;" d="M1040 23L1038 24L1035 32L1036 32C1038.64 29.1246 1041.56 27.1002 1040 23z"/>
<path style="fill:#676272; stroke:none;" d="M1030 24L1027 35L1028 36L1031 34L1034 36L1038 24L1030 24M1041 24L1042 25L1041 24z"/>
<path style="fill:#344c23; stroke:none;" d="M1036 26L1037 27L1036 26z"/>
<path style="fill:#676272; stroke:none;" d="M1041.33 26.6666L1041.67 27.3334L1041.33 26.6666M1396.67 26.3334L1397.33 26.6666L1396.67 26.3334z"/>
<path style="fill:#a0623a; stroke:none;" d="M1072 29L1072 30L1075 30L1072 29M1065 30L1066 31L1065 30z"/>
<path style="fill:#676272; stroke:none;" d="M1058 31L1059 32L1058 31z"/>
<path style="fill:#a0623a; stroke:none;" d="M1055 32L1055 33L1061 32L1055 32M1048 33L1048 34L1053 33L1048 33M1133 32L1133 33L1136 33L1133 32z"/>
<path style="fill:#676272; stroke:none;" d="M1044 33L1044 34L1048 34L1044 33z"/>
<path style="fill:#a0623a; stroke:none;" d="M1140.67 33.3334L1141.33 33.6666L1140.67 33.3334M1031 34L1032 35L1031 34M1034 35L1034 36L1047 35L1034 35M1146 34L1147 35L1146 34z"/>
<path style="fill:#676272; stroke:none;" d="M1412 34L1413 35L1412 34z"/>
<path style="fill:#a0623a; stroke:none;" d="M1147 35L1147 36L1151 36L1147 35M1207.67 36.3334L1208.33 36.6666L1207.67 36.3334M1201 37L1202 38L1201 37M1029 38L1029 45L1034 46L1034 53C1046.53 53.9103 1054.52 70.8442 1063.21 78.3657C1068.81 83.2104 1075.16 86.1718 1077 94C1081.04 96.179 1083.33 99.4575 1084 104L1087 105L1087 107L1082 111C1102.28 107.62 1121.15 99.537 1143 105C1147.54 106.136 1159.16 103.354 1158 108L1164 108L1159 112L1167 135L1170 134L1183 153C1185.94 151.426 1190.2 148.792 1190.15 144.911C1190.09 140.648 1185.25 136.229 1182.89 133C1176.42 124.181 1171 109.521 1160 106L1160 105L1191 98L1173.87 97.3387L1147 75.3541L1108 55.4521L1029 38M1103 42C1106.64 46.7986 1115.69 46.6525 1121 49.4012C1140.3 59.3908 1160.47 66.7589 1182 70.5363C1187.72 71.5396 1204.82 72.9068 1208 68L1103 42z"/>
<path style="fill:#344c23; stroke:none;" d="M1274 43L1274 44L1300 54L1301 51C1312.02 55.0156 1325.24 53.1204 1336 49L1308 47.9607L1274 43M1047 46L1047 47L1066 50L1047 46M1378 47C1389.47 67.0117 1420.72 66.9609 1432 87L1446.42 97.5255L1473 110L1473 113L1484 112L1484 111C1466.37 106.064 1449.7 83.9903 1435.71 72.5795C1417.32 57.5734 1400.38 52.2582 1378 47M1284 51L1284 52L1306 58L1306 57L1284 51z"/>
<path style="fill:#676272; stroke:none;" d="M1444 51L1445 52L1444 51z"/>
<path style="fill:#a0623a; stroke:none;" d="M1028 52L1030 67L1031 67L1028 52z"/>
<path style="fill:#344c23; stroke:none;" d="M1302 53L1304 55L1302 53M1308 58L1308 60L1319 60L1308 58M1323 59L1323 60L1345 60L1323 59z"/>
<path style="fill:#676272; stroke:none;" d="M1027 60L1027 116L1028 116L1031 99L1030 99L1030 108L1029 108C1027.58 96.7299 1027.69 84.3734 1028.02 73C1028.15 68.4852 1031.13 63.1906 1027 60z"/>
<path style="fill:#b9ab5f; stroke:none;" d="M1288 61L1289 62L1288 61z"/>
<path style="fill:#344c23; stroke:none;" d="M1355 62L1355 63L1358 63L1355 62M1029 65C1026.12 77.111 1026.73 95.7877 1029 108L1030 108C1030.04 94.7249 1034.31 77.6504 1029 65z"/>
<path style="fill:#676272; stroke:none;" d="M1030 67L1030 75L1031 75L1030 67z"/>
<path style="fill:#a0623a; stroke:none;" d="M1031 74L1031 103L1032 103L1031 74M1511 75L1510 84L1511 84L1511 79L1512 79L1512 82L1513 82L1511 75z"/>
<path style="fill:#b9ab5f; stroke:none;" d="M1371 79L1373 82L1371 79z"/>
<path style="fill:#a0623a; stroke:none;" d="M1260 85L1260 89C1266.83 92.4761 1272.35 94.4153 1280 93C1275.14 86.7922 1267.78 83.7205 1260 85z"/>
<path style="fill:#b9ab5f; stroke:none;" d="M1374 84L1378 88L1374 84z"/>
<path style="fill:#a0623a; stroke:none;" d="M1209.67 93.3333L1210.33 93.6667L1209.67 93.3333z"/>
<path style="fill:#fdfcfc; stroke:none;" d="M1172 105C1182.75 114.988 1189 127.343 1197.88 139C1203.81 146.779 1211.16 154.103 1212.17 164C1212.79 170.097 1216.05 183.486 1210 187L1212 191C1208.28 191.796 1209 194.637 1209 198C1223.42 193.939 1237.94 191.053 1253 192.089C1264.74 192.898 1276.21 196.902 1288 197C1286.09 193.972 1282.37 190.564 1285 187L1285 186C1275.32 185.999 1266.13 184.065 1257 180.819C1250.87 178.64 1245.1 175.352 1240 171.331C1217.85 153.875 1228.92 124.646 1251 112.089C1267.59 102.66 1300.32 110.617 1309.63 127C1313.22 133.313 1313 141.932 1313 149L1314 149L1315 141C1328.76 149.76 1342.62 156.383 1355 167.286C1362.03 173.473 1368.3 184.319 1376.17 188.988C1399.07 202.565 1432.12 206.68 1458 211.081C1468.44 212.856 1478.71 214.914 1489 217.346C1493.79 218.477 1499.46 220.44 1504 218L1499 217L1502 214L1502 213C1492.36 212.505 1486.72 205.797 1479 200.951C1470.39 195.549 1459.65 191.534 1450 188.425C1444.04 186.504 1435.6 186.122 1432.32 179.957C1430.09 175.762 1432.24 170.526 1431.95 166C1431.58 160.461 1429.11 147.916 1426.88 143.04C1424.89 138.664 1419.27 137.212 1416 134L1415 137C1407.39 137.026 1400.72 140.373 1394.33 134.468C1388.03 128.645 1382.19 112.975 1395 112C1378.74 105.162 1355.39 109.485 1338 107.83C1317.31 105.861 1296.62 104.887 1276 101.704C1261.54 99.4707 1247.67 93.7493 1233 93.1042C1222.84 92.6573 1211.85 95.6484 1202 97.8804C1193.04 99.9119 1179.57 99.7393 1172 105z"/>
<path style="fill:#a0623a; stroke:none;" d="M1202 95L1203 96L1202 95z"/>
<path style="fill:#b9ab5f; stroke:none;" d="M1119 100L1128 100L1128 99L1123 96L1119 100z"/>
<path style="fill:#a0623a; stroke:none;" d="M1195 96L1195 97L1198 97L1195 96M1260 96L1260 97L1288 101C1282.2 96.6065 1267.4 96.3176 1260 96z"/>
<path style="fill:#fdfcfc; stroke:none;" d="M1113 105C1118.14 115.338 1125.62 126.009 1125 138L1131 146L1118 147L1118 148L1121 149C1119.64 165.599 1143.98 190.368 1159 194L1137 155L1170 174L1168.61 155L1156.59 126L1146 110L1147 107L1113 105z"/>
<path style="fill:#676272; stroke:none;" d="M1157 109C1160.15 110.431 1161.97 111.042 1164 108L1157 109z"/>
<path style="fill:#b9ab5f; stroke:none;" d="M1496 112L1497 109L1496 108L1479 115L1479 116L1507 120L1507 129L1548 128L1621 128L1621 125L1508 125L1508 124L1621 124L1621 122L1546 122L1509 123L1507 107L1496 112z"/>
<path style="fill:#a0623a; stroke:none;" d="M1030 108L1030 112L1031 112L1030 108z"/>
<path style="fill:#b9ab5f; stroke:none;" d="M1261 109L1261 110L1274 110L1261 109M1254 110L1254 111L1259 111L1254 110z"/>
<path style="fill:#676272; stroke:none;" d="M1259.67 110.333L1260.33 110.667L1259.67 110.333z"/>
<path style="fill:#344c23; stroke:none;" d="M1261 110.454C1240.78 113.117 1221.5 138.676 1230.37 159C1236.88 173.929 1262.97 186.171 1279 184.66C1303.55 182.345 1320.71 145.891 1307.53 125.015C1299.16 111.753 1275.41 108.556 1261 110.454z"/>
<path style="fill:#676272; stroke:none;" d="M1266 110L1266 111L1277 111L1266 110z"/>
<path style="fill:#b9ab5f; stroke:none;" d="M1277 110L1277 111L1285 111L1277 110z"/>
<path style="fill:#a0623a; stroke:none;" d="M1074 112L1074 113L1078 112L1074 112z"/>
<path style="fill:#b9ab5f; stroke:none;" d="M1247 115L1253 112L1247 115z"/>
<path style="fill:#676272; stroke:none;" d="M1253 111L1253 112L1256 112L1253 111M1280 111L1280 112L1286 112L1280 111z"/>
<path style="fill:#b9ab5f; stroke:none;" d="M1286 111L1286 112L1292 113L1292 112L1286 111z"/>
<path style="fill:#a0623a; stroke:none;" d="M1029 112L1028 120L1029 120L1029 112z"/>
<path style="fill:#676272; stroke:none;" d="M1251 112L1252 113L1251 112M1251 116L1251 117L1272 113C1265.02 110.771 1257.48 113.184 1251 116M1287.67 112.333L1288.33 112.667L1287.67 112.333z"/>
<path style="fill:#fdfcfc; stroke:none;" d="M1402 113L1410 123L1410 120L1411 120L1415 129C1417.61 119.883 1411.69 110.822 1402 113z"/>
<path style="fill:#a0623a; stroke:none;" d="M1061 116L1061 117L1073 114L1061 116z"/>
<path style="fill:#676272; stroke:none;" d="M1249 113L1250 114L1249 113z"/>
<path style="fill:#b9ab5f; stroke:none;" d="M1260 113L1259 115L1260 113z"/>
<path style="fill:#fdfcfc; stroke:none;" d="M1281 178L1281 177C1275.99 175.692 1273.4 173.229 1273 168L1272 168L1271 177C1266.74 172.477 1267 165.909 1267 160L1266 160L1259 173L1263 156L1262 156L1251 169L1259 153L1245 162L1256 150L1241 156L1256 146L1256 145L1237 149L1255 142L1255 141C1251.28 140.625 1243.97 138.551 1243 143L1242 143L1238 142L1237 139L1257 139L1257 138L1251 134L1260 136L1248 124L1264 134L1254 118L1266 132L1267 132L1264 120L1269 129L1270 129L1270 118L1272 118L1273 129L1274 129L1280 117L1277 130L1278 130L1287 119L1281 132L1291 124L1283 136L1298 128L1286 137L1286 138L1302 133L1301 137C1306.71 133.844 1302.74 129.981 1302 125L1291 120C1286.39 112.184 1262.35 112.078 1254.96 115.92C1241.74 122.788 1229.09 141.781 1236.28 156.83C1240.61 165.919 1249.5 170.855 1258.17 174.88C1265.27 178.176 1273.33 178.977 1281 178z"/>
<path style="fill:#b9ab5f; stroke:none;" d="M1264 113L1265 114L1264 113M1269 113L1269 114L1273 114L1269 113z"/>
<path style="fill:#676272; stroke:none;" d="M1273 113L1274 114L1273 113M1278 113L1278 114L1281 114L1278 113M1290 113L1290 114L1295 115L1295 114L1290 113z"/>
<path style="fill:#b9ab5f; stroke:none;" d="M1293 113L1294 114L1293 113z"/>
<path style="fill:#344c23; stroke:none;" d="M1440 113C1440.86 120.154 1454.93 118.28 1460 117L1460 116L1446 114L1440 113M1464 115L1464 116L1470 114L1464 115z"/>
<path style="fill:#676272; stroke:none;" d="M1248 114L1249 115L1248 114z"/>
<path style="fill:#b9ab5f; stroke:none;" d="M1265 114L1265 115L1268 115L1265 114M1274 114L1274 115L1278 115L1278 114L1274 114z"/>
<path style="fill:#676272; stroke:none;" d="M1275.67 114.333L1276.33 114.667L1275.67 114.333z"/>
<path style="fill:#b9ab5f; stroke:none;" d="M1279 114L1279 115L1294 120L1294 119L1279 114z"/>
<path style="fill:#676272; stroke:none;" d="M1282 114L1283 115L1282 114z"/>
<path style="fill:#b9ab5f; stroke:none;" d="M1295 114L1295 115L1300 117L1300 116L1295 114z"/>
<path style="fill:#676272; stroke:none;" d="M1477.33 114.667L1477.67 115.333L1477.33 114.667z"/>
<path style="fill:#b9ab5f; stroke:none;" d="M1246 115L1247 116L1246 115M1254 115L1255 116L1254 115M1257 115L1258 116L1257 115z"/>
<path style="fill:#676272; stroke:none;" d="M1283 115L1283 116L1286 116L1283 115M1288 115L1289 116L1288 115M1296 115L1297 116L1296 115M1466 115L1466 116L1469 116L1466 115z"/>
<path style="fill:#b9ab5f; stroke:none;" d="M1245 116L1246 117L1245 116M1253 116L1254 117L1253 116z"/>
<path style="fill:#676272; stroke:none;" d="M1290 116L1292 118L1292 116L1290 116M1298 116L1299 117L1298 116M1438 121C1442.23 130.473 1447.48 132.304 1454.91 138.418C1457.86 140.852 1459.25 145.119 1463 146C1463.37 149.173 1464.92 149.275 1468 149L1468 152L1482 164L1490 158L1485 146L1481 146C1481.11 133.347 1468.71 128.03 1477 116C1463.38 119.923 1452.31 121 1438 121z"/>
<path style="fill:#b9ab5f; stroke:none;" d="M1478 116L1479 117L1478 116z"/>
<path style="fill:#a0623a; stroke:none;" d="M1496 116L1496 117L1503 118L1503 117L1496 116M1035 121L1035 123L1059 118L1035 121z"/>
<path style="fill:#676272; stroke:none;" d="M1244 117L1245 118L1244 117z"/>
<path style="fill:#b9ab5f; stroke:none;" d="M1251 117L1249 122L1251 117M1278 117L1275 126L1276 126C1276.65 124.04 1277 123.446 1277 126L1278 126L1280 117L1278 117z"/>
<path style="fill:#676272; stroke:none;" d="M1300 117L1303 120L1300 117z"/>
<path style="fill:#b9ab5f; stroke:none;" d="M1301 117L1302 118L1301 117M1477 117L1478 118L1477 117M1243 118L1244 119L1243 118z"/>
<path style="fill:#676272; stroke:none;" d="M1250.33 118.667L1250.67 119.333L1250.33 118.667z"/>
<path style="fill:#b9ab5f; stroke:none;" d="M1254 118L1260 129L1261 129L1257 121L1258 121L1263 127L1254 118M1270 118L1270 132L1269 133L1265 131L1267 135L1260 132L1263 136L1248 124L1260 136L1251 134L1257 138L1257 139C1252.46 137.919 1237.88 135.436 1238 142L1242 143L1243 143L1255 141L1255 142L1249 143L1249 144L1258 143L1258 144L1255 147L1260 146L1260 147L1254 150L1254 151L1256 150L1256 151L1245 162L1257 154L1250 158L1263 148L1259 154L1265 150L1261 157L1264 157L1266 151L1267 151L1265 162L1266 162L1266 160L1267 160C1267 165.442 1266.08 173.539 1271 177L1272 168L1273 168C1273.18 173.57 1275.41 176.18 1281 177L1281 178L1270 179L1270 180L1283 176C1287.51 176.589 1288.96 174.867 1291 171L1280 159L1279 159L1285 171L1277 158L1276 160L1275 160L1275 153L1278 157L1292 169L1283 155L1282 155L1283 158L1278 156L1278 152L1296 162L1285 151L1292 153L1288 148L1304 150L1304 148L1289 146L1289 145L1304 143L1304 156L1305 156C1306.15 150.357 1310 136.654 1301 137L1302 133L1289 137L1289 138L1297 135L1291 139L1291 140L1298 138L1288 142L1288 141L1290 141L1290 140L1283 141L1288 139L1288 138L1282 139L1284 134L1279 137L1288 127L1285 132L1291 124L1280 131L1277 136L1281 126L1280 126L1276 133L1275 133L1275 128L1273 129L1272 118L1270 118z"/>
<path style="fill:#676272; stroke:none;" d="M1292 118L1292 119L1298 124L1303 125L1292 118z"/>
<path style="fill:#b9ab5f; stroke:none;" d="M1302 118L1303 119L1302 118M1242 119L1243 120L1242 119M1281 125L1283 124L1282 128L1283 128L1287 119L1281 125M1295 119L1296 120L1295 119M1303 119L1304 120L1303 119M1241 120L1242 121L1241 120z"/>
<path style="fill:#676272; stroke:none;" d="M1244 124L1250 121L1244 124z"/>
<path style="fill:#b9ab5f; stroke:none;" d="M1264 120L1266 130L1267 130C1266.46 126.768 1265.1 125.275 1268 126L1264 120M1297 120L1297 124L1298 124L1297 120M1304 120L1305 121L1304 120M1240 121L1241 122L1240 121M1247 121L1248 122L1247 121z"/>
<path style="fill:#676272; stroke:none;" d="M1257 121L1262 131L1265 131L1257 121z"/>
<path style="fill:#b9ab5f; stroke:none;" d="M1305 121L1306 122L1305 121z"/>
<path style="fill:#a0623a; stroke:none;" d="M1030.67 122.333L1031.33 122.667L1030.67 122.333z"/>
<path style="fill:#b9ab5f; stroke:none;" d="M1239 122L1240 123L1239 122M1246 122L1247 123L1246 122M1293 122L1292 124L1294 124L1293 122M1306 122L1309 125L1306 122M1238 123L1239 124L1238 123M1245 123L1246 124L1245 123z"/>
<path style="fill:#676272; stroke:none;" d="M1271 123L1273 132L1271 123M1283 123L1284 124L1283 123M1306 123L1307 124L1306 123z"/>
<path style="fill:#b9ab5f; stroke:none;" d="M1237 124L1238 125L1237 124z"/>
<path style="fill:#676272; stroke:none;" d="M1243 124L1244 125L1243 124M1276 124L1275 133L1276 133L1276 124M1282 124L1281 129L1277 136L1279 130C1282 129.593 1282.81 126.81 1282 124z"/>
<path style="fill:#b9ab5f; stroke:none;" d="M1298 124L1298 125L1302 125L1298 124z"/>
<path style="fill:#676272; stroke:none;" d="M1307 124L1308 125L1307 124z"/>
<path style="fill:#b9ab5f; stroke:none;" d="M1236 125L1237 126L1236 125M1243 125L1242 128L1243 125z"/>
<path style="fill:#676272; stroke:none;" d="M1266 125C1266.4 128.264 1266.48 131.565 1270 132L1270 131L1266 125z"/>
<path style="fill:#b9ab5f; stroke:none;" d="M1302 125L1302 130L1303 130L1302 125z"/>
<path style="fill:#676272; stroke:none;" d="M1308 125L1310 131L1311 131L1308 125z"/>
<path style="fill:#b9ab5f; stroke:none;" d="M1235 126L1233 129L1235 126z"/>
<path style="fill:#676272; stroke:none;" d="M1242 126L1243 127L1242 126M1303.33 126.667L1303.67 127.333L1303.33 126.667z"/>
<path style="fill:#b9ab5f; stroke:none;" d="M1309 126L1310 127L1309 126z"/>
<path style="fill:#676272; stroke:none;" d="M1235 127L1236 128L1235 127M1239 127L1237 131L1242 128L1239 127z"/>
<path style="fill:#b9ab5f; stroke:none;" d="M1268 127L1269 128L1268 127z"/>
<path style="fill:#676272; stroke:none;" d="M1287 127L1279 136L1279 137C1282.88 135.15 1287.23 131.615 1287 127M1234 128L1235 129L1234 128z"/>
<path style="fill:#b9ab5f; stroke:none;" d="M1263 128L1264 129L1263 128z"/>
<path style="fill:#344c23; stroke:none;" d="M1280 128L1281 129L1280 128z"/>
<path style="fill:#b9ab5f; stroke:none;" d="M1284 135L1284 136L1291 134L1298 128L1284 135M1310 128L1311 129L1310 128z"/>
<path style="fill:#676272; stroke:none;" d="M1233 129L1234 130L1233 129z"/>
<path style="fill:#b9ab5f; stroke:none;" d="M1239 129L1240 130L1239 129M1264 129L1265 130L1264 129z"/>
<path style="fill:#344c23; stroke:none;" d="M1268 129L1268 132L1269 132L1268 129M1275 129L1276 130L1275 129z"/>
<path style="fill:#b9ab5f; stroke:none;" d="M1281 129L1282 130L1281 129z"/>
<path style="fill:#676272; stroke:none;" d="M1303 129L1303 130L1306 131L1303 129z"/>
<path style="fill:#b9ab5f; stroke:none;" d="M1232 130L1233 131L1232 130M1238 130L1239 131L1238 130z"/>
<path style="fill:#344c23; stroke:none;" d="M1263 130L1265 133L1263 130M1279.33 130.667L1279.67 131.333L1279.33 130.667z"/>
<path style="fill:#b9ab5f; stroke:none;" d="M1304 130L1305 131L1304 130M1311 130L1311 134L1312 134L1311 130z"/>
<path style="fill:#676272; stroke:none;" d="M1232 131L1233 132L1232 131z"/>
<path style="fill:#b9ab5f; stroke:none;" d="M1237 131L1237 134L1238 134L1237 131M1243 131L1243 132L1249 134L1243 131z"/>
<path style="fill:#676272; stroke:none;" d="M1257 131L1258 132L1257 131z"/>
<path style="fill:#b9ab5f; stroke:none;" d="M1262 131L1263 132L1262 131z"/>
<path style="fill:#676272; stroke:none;" d="M1292 131L1293 132L1292 131z"/>
<path style="fill:#b9ab5f; stroke:none;" d="M1305 131L1305 134L1306 134L1305 131M1231 132L1232 133L1231 132z"/>
<path style="fill:#676272; stroke:none;" d="M1236 132L1237 133L1236 132M1258 132L1263 136L1258 132z"/>
<path style="fill:#b9ab5f; stroke:none;" d="M1263 132L1264 133L1263 132z"/>
<path style="fill:#676272; stroke:none;" d="M1265 132L1267 135L1265 132z"/>
<path style="fill:#344c23; stroke:none;" d="M1283 132L1281 135L1283 132z"/>
<path style="fill:#676272; stroke:none;" d="M1288 134L1289 135L1292 132L1288 134M1231 133L1230 137L1231 137L1231 133M1269 133L1270 134L1269 133z"/>
<path style="fill:#b9ab5f; stroke:none;" d="M1008 134C1005.99 144.844 1004.88 162.436 1008 173L1009 173C1009.47 162.127 1012.24 144.106 1008 134M1230 134L1231 135L1230 134z"/>
<path style="fill:#676272; stroke:none;" d="M1237 134C1234.29 137.397 1232.96 139.688 1234 144L1235 144L1237 134z"/>
<path style="fill:#344c23; stroke:none;" d="M1283 138L1289 135L1283 138z"/>
<path style="fill:#676272; stroke:none;" d="M1305 134L1306 135L1305 134M1311 134L1311 149L1312 149L1311 134z"/>
<path style="fill:#b9ab5f; stroke:none;" d="M1237 135L1238 136L1237 135z"/>
<path style="fill:#344c23; stroke:none;" d="M1280 135L1281 136L1280 135z"/>
<path style="fill:#676272; stroke:none;" d="M1287 135L1286 137L1287 135z"/>
<path style="fill:#b9ab5f; stroke:none;" d="M1288 135L1289 136L1288 135z"/>
<path style="fill:#676272; stroke:none;" d="M1296 135L1283 141C1286.27 141.454 1296.77 139.359 1296 135M1304.33 135.667L1304.67 136.333L1304.33 135.667z"/>
<path style="fill:#b9ab5f; stroke:none;" d="M1229 136L1228 142L1229 142L1229 136M1236 136L1237 137L1236 136z"/>
<path style="fill:#fdfcfc; stroke:none;" d="M1268 136L1262 137L1264 145L1268 136z"/>
<path style="fill:#676272; stroke:none;" d="M1283 136L1284 137L1283 136z"/>
<path style="fill:#b9ab5f; stroke:none;" d="M1287 136L1288 137L1287 136z"/>
<path style="fill:#a0623a; stroke:none;" d="M1424 136L1424 138L1426 138L1426 136L1424 136M1168 137C1167.33 144.546 1172.28 155.459 1176 162L1177 162L1176 148L1168 137z"/>
<path style="fill:#b9ab5f; stroke:none;" d="M1235 137L1236 138L1235 137z"/>
<path style="fill:#676272; stroke:none;" d="M1258.67 137.333L1259.33 137.667L1258.67 137.333M1265 142L1266 142C1271.77 136.246 1279.55 139.913 1276 148C1284.49 140.725 1270.36 132.586 1265 142M1282 137L1282 139L1284 139L1282 137M1306.33 137.667L1306.67 138.333L1306.33 137.667M1479 137L1480 140L1481 140L1479 137z"/>
<path style="fill:#b9ab5f; stroke:none;" d="M1267 138L1268 139L1267 138z"/>
<path style="fill:#344c23; stroke:none;" d="M1270.04 138.672C1261.73 141.079 1268.06 150.167 1274.94 147.396C1281.67 144.684 1275.65 137.051 1270.04 138.672M1289 138L1290 139L1289 138z"/>
<path style="fill:#fdfcfc; stroke:none;" d="M1288 141L1288 142L1298 138L1288 141M1303 138L1305 140L1305 138L1303 138z"/>
<path style="fill:#b9ab5f; stroke:none;" d="M1312 138L1311 155L1312 155L1312 150L1313 150C1316.9 164.979 1335.17 167.596 1341.41 181C1342.81 184 1348.21 192.17 1344.58 194.973C1341.77 197.138 1335.43 196.782 1332 197.271C1327.67 197.888 1323.33 197.856 1319 198.424C1312.87 199.229 1307.12 198.051 1301 198C1303.64 192.167 1300.73 182.463 1294 181L1299 175C1290.35 180.908 1284.8 184.993 1274 185L1274 186L1285 186L1285 187C1282.01 190.428 1285.52 194.292 1288 197L1264 194L1264 195C1296.22 197.546 1329.76 205.269 1361 192L1361 191C1358.89 191.167 1355.99 192.465 1354 191.5C1351.96 190.511 1347.8 179.411 1347 186L1346 186L1333 159C1350.59 163.433 1359.06 179.11 1372.59 189.062C1376.12 191.656 1381.92 191.734 1386 193.425C1399.4 198.974 1414.43 204.84 1429 206L1429 205C1413.78 202.95 1388.69 197.442 1376.17 188.4C1369.04 183.252 1363.65 174.181 1357 168.17C1344.47 156.836 1330.23 148.245 1315 141L1314 149L1313 149L1312 138M1508 138C1508.05 151.567 1524.74 147 1535 147L1621 147L1621 138L1508 138z"/>
<path style="fill:#676272; stroke:none;" d="M1229.33 139.667L1229.67 140.333L1229.33 139.667z"/>
<path style="fill:#b9ab5f; stroke:none;" d="M1234 139L1234 143L1235 143L1234 139z"/>
<path style="fill:#676272; stroke:none;" d="M1247.67 139.333L1248.33 139.667L1247.67 139.333z"/>
<path style="fill:#b9ab5f; stroke:none;" d="M1265 139L1266 140L1265 139z"/>
<path style="fill:#a0623a; stroke:none;" d="M1509 139L1510 140L1509 139z"/>
<path style="fill:#676272; stroke:none;" d="M1256 140L1256 141L1259 141L1256 140M1307.33 140.667L1307.67 141.333L1307.33 140.667M1228 142L1228 147L1229 147L1228 142M1295.67 142.333L1296.33 142.667L1295.67 142.333z"/>
<path style="fill:#fdfcfc; stroke:none;" d="M1304 142L1305 143L1304 142z"/>
<path style="fill:#676272; stroke:none;" d="M1306 142L1307 143L1306 142z"/>
<path style="fill:#fdfcfc; stroke:none;" d="M1128.33 143.667L1128.67 144.333L1128.33 143.667z"/>
<path style="fill:#b9ab5f; stroke:none;" d="M1235 143L1235 155L1236 155L1235 143z"/>
<path style="fill:#676272; stroke:none;" d="M1242 146L1242 147L1258 144L1242 146M1285 143L1285 144L1293 144L1285 143z"/>
<path style="fill:#fdfcfc; stroke:none;" d="M1303 143L1289 145L1289 146L1304 148L1304 150L1288 148L1292 153L1285 151L1296 162L1282 153L1292 169L1279 156C1280.29 161.642 1292.89 179.171 1295 166C1304.71 164.453 1307.02 150.46 1303 143z"/>
<path style="fill:#b9ab5f; stroke:none;" d="M1227 144L1227 154L1228 154L1227 144M1237 149L1251 147L1251 146L1242 147L1242 146L1247 145C1242.96 143.473 1239.25 145.514 1237 149z"/>
<path style="fill:#676272; stroke:none;" d="M1265.33 144.667L1265.67 145.333L1265.33 144.667M1305.33 144.667L1305.67 145.333L1305.33 144.667z"/>
<path style="fill:#b9ab5f; stroke:none;" d="M1398 148C1401.38 152.433 1404.63 152.981 1410 153L1410 152L1408 150L1411 151L1410 147L1414 148L1414 144L1398 148z"/>
<path style="fill:#676272; stroke:none;" d="M1234 145L1235 146L1234 145z"/>
<path style="fill:#344c23; stroke:none;" d="M1248 145L1249 146L1248 145z"/>
<path style="fill:#b9ab5f; stroke:none;" d="M1251 145L1251 146L1254 146L1251 145z"/>
<path style="fill:#676272; stroke:none;" d="M1233 146L1234 147L1233 146M1256 146L1257 147L1256 146z"/>
<path style="fill:#344c23; stroke:none;" d="M1257 146L1250 150L1250 151C1252.72 150.459 1257.58 149.293 1257 146z"/>
<path style="fill:#676272; stroke:none;" d="M1258 146L1258 148L1260 146L1258 146M1266 146L1267 147L1266 146M1286 146L1286 147L1289 147L1286 146M1306 146L1307 147L1306 146M1232 147L1232 151L1233 151L1232 147z"/>
<path style="fill:#b9ab5f; stroke:none;" d="M1241 156L1254 148C1249.15 147.292 1243.25 151.9 1241 156z"/>
<path style="fill:#676272; stroke:none;" d="M1254 147L1255 148L1254 147M1267 147L1268 148L1267 147z"/>
<path style="fill:#fdfcfc; stroke:none;" d="M1279.67 147.333L1280.33 147.667L1279.67 147.333z"/>
<path style="fill:#676272; stroke:none;" d="M1252 148L1253 149L1252 148M1256 148L1257 149L1256 148M1260 148L1257 154L1263 148L1260 148M1268 148L1268 149L1275 149L1268 148z"/>
<path style="fill:#fdfcfc; stroke:none;" d="M1276 150L1279 148L1276 150z"/>
<path style="fill:#676272; stroke:none;" d="M1295 148L1296 149L1295 148z"/>
<path style="fill:#b9ab5f; stroke:none;" d="M1131 149L1131 152L1133 152L1133 149L1131 149z"/>
<path style="fill:#676272; stroke:none;" d="M1250 149L1251 150L1250 149M1254 149L1255 150L1254 149z"/>
<path style="fill:#344c23; stroke:none;" d="M1252 157L1261 149L1252 157z"/>
<path style="fill:#b9ab5f; stroke:none;" d="M1509 149L1511 159L1550 158L1621 158L1621 149L1509 149z"/>
<path style="fill:#676272; stroke:none;" d="M1246 154L1251 151L1246 154M1253 150L1254 151L1253 150M1257 150L1258 151L1257 150M1258 157L1259 157L1265 150L1258 157M1281 150L1284 153L1281 150z"/>
<path style="fill:#fdfcfc; stroke:none;" d="M1312 150C1310.86 163.03 1300.93 170.865 1294 181C1300.44 183.361 1302.79 191.784 1301 198L1335 197L1346.19 193.682L1341.86 181L1312 150z"/>
<path style="fill:#a0623a; stroke:none;" d="M1018 151L1019 152L1018 151z"/>
<path style="fill:#b9ab5f; stroke:none;" d="M1134 151L1134 153L1136 153L1136 151L1134 151z"/>
<path style="fill:#676272; stroke:none;" d="M1228 151L1228 156L1229 156L1228 151M1233 151L1234 152L1233 151z"/>
<path style="fill:#b9ab5f; stroke:none;" d="M1251.67 151.333L1252.33 151.667L1251.67 151.333z"/>
<path style="fill:#676272; stroke:none;" d="M1256 151L1257 152L1256 151M1266 151L1264 155L1267 155L1266 151M1306 151L1307 152L1306 151M1007 152L1007 158L1008 158L1007 152M1234 152L1235 153L1234 152z"/>
<path style="fill:#b9ab5f; stroke:none;" d="M1249.67 152.333L1250.33 152.667L1249.67 152.333z"/>
<path style="fill:#676272; stroke:none;" d="M1255 152L1256 153L1255 152z"/>
<path style="fill:#344c23; stroke:none;" d="M1262 152L1258 159L1262 152z"/>
<path style="fill:#676272; stroke:none;" d="M1278 152L1283 158L1278 152M1305 152L1306 153L1305 152z"/>
<path style="fill:#b9ab5f; stroke:none;" d="M1247.67 153.333L1248.33 153.667L1247.67 153.333z"/>
<path style="fill:#676272; stroke:none;" d="M1254 153L1255 154L1254 153M1275.67 153.333L1276.33 153.667L1275.67 153.333z"/>
<path style="fill:#344c23; stroke:none;" d="M1279 153L1281 155L1279 153z"/>
<path style="fill:#b9ab5f; stroke:none;" d="M1294 153L1300 156L1294 153z"/>
<path style="fill:#676272; stroke:none;" d="M1310 153L1308 161L1309 161L1310 153z"/>
<path style="fill:#a0623a; stroke:none;" d="M1483 153L1483 155L1485 153L1483 153z"/>
<path style="fill:#676272; stroke:none;" d="M1234 154L1234 157L1235 157L1234 154M1253 154L1254 155L1253 154M1262 154L1263 155L1262 154z"/>
<path style="fill:#344c23; stroke:none;" d="M1265 154L1264 159L1265 159L1265 154z"/>
<path style="fill:#676272; stroke:none;" d="M1268 154L1269 170L1270 170L1270 154L1268 154M1271 155L1271 156L1274 156L1271 155z"/>
<path style="fill:#344c23; stroke:none;" d="M1275 154L1277 156L1277 154L1275 154z"/>
<path style="fill:#fdfcfc; stroke:none;" d="M1278.33 154.667L1278.67 155.333L1278.33 154.667z"/>
<path style="fill:#676272; stroke:none;" d="M1286 154L1287 155L1286 154M1305 154L1304 160L1305 160L1305 154M1252 155L1253 156L1252 155M1254 155L1255 156L1254 155z"/>
<path style="fill:#b9ab5f; stroke:none;" d="M1258 155L1259 156L1258 155z"/>
<path style="fill:#676272; stroke:none;" d="M1261 155L1262 156L1261 155z"/>
<path style="fill:#344c23; stroke:none;" d="M1272 155L1273 160L1274 160L1272 155z"/>
<path style="fill:#676272; stroke:none;" d="M1275 155L1276 156L1275 155M1017.33 156.667L1017.67 157.333L1017.33 156.667z"/>
<path style="fill:#b9ab5f; stroke:none;" d="M1228 156L1231 163L1232 163L1228 156M1235 156C1237.35 160.99 1240.25 166.102 1246 167L1250 172L1250 171L1235 156z"/>
<path style="fill:#676272; stroke:none;" d="M1251 156L1250 158L1252 158L1251 156M1253 156L1254 157L1253 156M1276 156L1276 157L1276 158L1278 157L1278 158C1277.78 163.106 1280.62 168.324 1285 171L1279 162L1276 156z"/>
<path style="fill:#b9ab5f; stroke:none;" d="M1310.33 156.667L1310.67 157.333L1310.33 156.667z"/>
<path style="fill:#676272; stroke:none;" d="M1229 157L1230 158L1229 157z"/>
<path style="fill:#b9ab5f; stroke:none;" d="M1257 157L1251 169L1259 161L1254 164L1257 157z"/>
<path style="fill:#676272; stroke:none;" d="M1260 157L1261 158L1260 157M1263 157L1264 163L1263 163L1263 161L1262 161L1261 168L1262 168C1264.15 164.158 1265.61 160.9 1263 157M1265.33 157.667L1265.67 158.333L1265.33 157.667z"/>
<path style="fill:#fdfcfc; stroke:none;" d="M1275 157L1275 160L1276 160L1275 157z"/>
<path style="fill:#344c23; stroke:none;" d="M1277.33 157.667L1277.67 158.333L1277.33 157.667z"/>
<path style="fill:#b9ab5f; stroke:none;" d="M1304 157L1305 158L1304 157z"/>
<path style="fill:#a0623a; stroke:none;" d="M1017 158L1018 159L1017 158z"/>
<path style="fill:#676272; stroke:none;" d="M1235 158L1236 159L1235 158z"/>
<path style="fill:#b9ab5f; stroke:none;" d="M1260 158L1261 159L1260 158M1262 158L1262 161L1263 161L1262 158z"/>
<path style="fill:#676272; stroke:none;" d="M1283 158L1287 162L1283 158z"/>
<path style="fill:#b9ab5f; stroke:none;" d="M1017 159L1017 163L1018 163L1017 159z"/>
<path style="fill:#676272; stroke:none;" d="M1230 159L1231 160L1230 159M1236 159L1237 160L1236 159M1257 159L1254 164L1259 159L1257 159z"/>
<path style="fill:#b9ab5f; stroke:none;" d="M1259 159L1260 160L1259 159z"/>
<path style="fill:#676272; stroke:none;" d="M1272 159L1273 160L1272 159z"/>
<path style="fill:#b9ab5f; stroke:none;" d="M1301 161L1304 160L1301 161z"/>
<path style="fill:#a0623a; stroke:none;" d="M1333 159L1346 186L1347 186L1347 183C1353.65 189.652 1350.7 191 1360 191C1361.86 191 1360.13 192.472 1360 193L1372 188C1354.33 192.255 1351.11 179.383 1343 166L1368 184C1360.65 173.563 1346.02 161.031 1333 159z"/>
<path style="fill:#676272; stroke:none;" d="M1237.67 160.333L1238.33 160.667L1237.67 160.333z"/>
<path style="fill:#344c23; stroke:none;" d="M1257 160L1258 161L1257 160M1263 160L1263 163L1264 163L1263 160z"/>
<path style="fill:#676272; stroke:none;" d="M1273 160L1276 171L1277 171L1276 162L1275 162L1275 164L1274 164L1275 160L1273 160z"/>
<path style="fill:#fdfcfc; stroke:none;" d="M1276 160L1276 163L1277 163L1276 160z"/>
<path style="fill:#676272; stroke:none;" d="M1302 160L1303 161L1302 160z"/>
<path style="fill:#b9ab5f; stroke:none;" d="M1309 160L1310 161L1309 160z"/>
<path style="fill:#676272; stroke:none;" d="M1016 161L1016 164L1017 164L1016 161M1231 161L1232 162L1231 161z"/>
<path style="fill:#344c23; stroke:none;" d="M1274 161L1274 164L1275 164L1274 161M1279 161L1280 162L1279 161z"/>
<path style="fill:#676272; stroke:none;" d="M1301 161L1301 164L1302 164L1301 161z"/>
<path style="fill:#b9ab5f; stroke:none;" d="M1308 161L1309 162L1308 161z"/>
<path style="fill:#676272; stroke:none;" d="M1238 162L1239 163L1238 162z"/>
<path style="fill:#b9ab5f; stroke:none;" d="M1244 162L1245 163L1244 162z"/>
<path style="fill:#676272; stroke:none;" d="M1307 162L1305 166L1306 166L1307 162M1232 163L1240 171L1232 163z"/>
<path style="fill:#b9ab5f; stroke:none;" d="M1261 163L1261 166L1262 166L1261 163M1264.33 163.667L1264.67 164.333L1264.33 163.667M1307 163L1308 164L1307 163M1016 164L1016 214L1017 214L1014.95 181.911L1016 164M1232 164L1233 165L1232 164z"/>
<path style="fill:#676272; stroke:none;" d="M1239 164L1240 165L1239 164M1300 164L1301 165L1300 164z"/>
<path style="fill:#b9ab5f; stroke:none;" d="M1233 165L1234 166L1233 165z"/>
<path style="fill:#676272; stroke:none;" d="M1240 165L1241 166L1240 165z"/>
<path style="fill:#b9ab5f; stroke:none;" d="M1263.33 165.667L1263.67 166.333L1263.33 165.667M1299 165L1295 166L1293 172L1300 166L1299 165M1306 165L1307 166L1306 165M1234 166L1235 167L1234 166z"/>
<path style="fill:#676272; stroke:none;" d="M1241 166L1242 167L1241 166M1299 166L1300 167L1299 166z"/>
<path style="fill:#b9ab5f; stroke:none;" d="M1305 166L1306 167L1305 166z"/>
<path style="fill:#676272; stroke:none;" d="M1343 166C1345.83 172.602 1351.29 186.374 1358.26 189.393C1361.83 190.935 1367.2 189.078 1371 189C1366.97 179.042 1353.35 168.482 1343 166z"/>
<path style="fill:#b9ab5f; stroke:none;" d="M1235 167L1236 168L1235 167z"/>
<path style="fill:#676272; stroke:none;" d="M1243 167L1244 168L1243 167M1245 167L1246 168L1245 167z"/>
<path style="fill:#b9ab5f; stroke:none;" d="M1260 167L1259 173L1263 167L1260 167z"/>
<path style="fill:#676272; stroke:none;" d="M1296 167L1296 169L1298 167L1296 167M1304 167L1300 172L1304 167z"/>
<path style="fill:#b9ab5f; stroke:none;" d="M1236 168L1237 169L1236 168M1304 168L1305 169L1304 168M1237 169L1238 170L1237 169M1303 169L1304 170L1303 169M1238 170L1239 171L1238 170z"/>
<path style="fill:#676272; stroke:none;" d="M1246 170L1247 171L1246 170M1295 170L1296 171L1295 170z"/>
<path style="fill:#b9ab5f; stroke:none;" d="M1302 170L1303 171L1302 170z"/>
<path style="fill:#676272; stroke:none;" d="M1240 171L1241 172L1240 171M1248 171L1249 172L1248 171M1277.33 171.667L1277.67 172.333L1277.33 171.667M1294 171L1295 172L1294 171z"/>
<path style="fill:#b9ab5f; stroke:none;" d="M1301 171L1302 172L1301 171M1241 172L1243 174L1241 172z"/>
<path style="fill:#676272; stroke:none;" d="M1242 172L1243 173L1242 172M1249 172L1249 173L1255 173L1255 172L1249 172z"/>
<path style="fill:#b9ab5f; stroke:none;" d="M1251.67 172.333L1252.33 172.667L1251.67 172.333M1255 172L1268 179L1255 172z"/>
<path style="fill:#676272; stroke:none;" d="M1290 172L1290 173L1294 173L1290 172z"/>
<path style="fill:#b9ab5f; stroke:none;" d="M1300 172L1301 173L1300 172z"/>
<path style="fill:#a0623a; stroke:none;" d="M1014.33 173.667L1014.67 174.333L1014.33 173.667z"/>
<path style="fill:#676272; stroke:none;" d="M1243 173L1244 174L1243 173M1289 173L1289 176L1290 176L1289 173M1299 173L1300 174L1299 173z"/>
<path style="fill:#b9ab5f; stroke:none;" d="M1244 174L1244 175L1258 181L1258 180L1244 174z"/>
<path style="fill:#676272; stroke:none;" d="M1245 174L1246 175L1245 174M1255 174L1256 175L1255 174z"/>
<path style="fill:#fdfcfc; stroke:none;" d="M1287 174L1288 175L1287 174z"/>
<path style="fill:#676272; stroke:none;" d="M1298 174L1299 175L1298 174z"/>
<path style="fill:#b9ab5f; stroke:none;" d="M1009.33 175.667L1009.67 176.333L1009.33 175.667z"/>
<path style="fill:#a0623a; stroke:none;" d="M1010.33 175.667L1010.67 176.333L1010.33 175.667z"/>
<path style="fill:#676272; stroke:none;" d="M1247 175L1248 176L1247 175M1256 175L1257 176L1256 175M1297 175L1298 176L1297 175z"/>
<path style="fill:#fdfcfc; stroke:none;" d="M1090 212L1090 214L1078 219L1078 220L1109 213L1085 176C1074.89 181.308 1081.73 207.218 1090 212z"/>
<path style="fill:#676272; stroke:none;" d="M1249 176L1250 177L1249 176M1258 176L1259 177L1258 176M1283.67 176.333L1284.33 176.667L1283.67 176.333M1287.67 176.333L1288.33 176.667L1287.67 176.333M1296 176L1297 177L1296 176M1251 177L1252 178L1251 177M1260 177L1260 178L1263 178L1260 177M1265 177L1266 178L1265 177M1282.33 177.667L1282.67 178.333L1282.33 177.667M1285.67 177.333L1286.33 177.667L1285.67 177.333M1295 177L1296 178L1295 177z"/>
<path style="fill:#fdfcfc; stroke:none;" d="M1123 178L1126 210L1141 212L1125 178L1123 178z"/>
<path style="fill:#676272; stroke:none;" d="M1253 178L1254 179L1253 178M1266 178L1270 180L1270 179L1266 178M1273 178L1274 179L1273 178M1275 178L1276 179L1275 178M1294 178L1295 179L1294 178z"/>
<path style="fill:#b9ab5f; stroke:none;" d="M1009 179L1010 180L1009 179z"/>
<path style="fill:#a0623a; stroke:none;" d="M1010 179L1011 180L1010 179M1013 179L1013 182L1014 182L1013 179z"/>
<path style="fill:#676272; stroke:none;" d="M1255 179L1256 180L1255 179M1272 179L1273 180L1272 179M1276 179L1277 180L1276 179M1279 179L1279 180L1282 180L1279 179M1293 179L1294 180L1293 179M1258.67 180.333L1259.33 180.667L1258.67 180.333M1291 180L1292 181L1291 180z"/>
<path style="fill:#b9ab5f; stroke:none;" d="M1259 181L1259 182L1264 183L1264 182L1259 181z"/>
<path style="fill:#676272; stroke:none;" d="M1261 181L1262 182L1261 181M1290 181L1291 182L1290 181z"/>
<path style="fill:#fdfcfc; stroke:none;" d="M1293 181L1294 182L1293 181z"/>
<path style="fill:#676272; stroke:none;" d="M1264 182L1264 183L1267 183L1264 182M1288 182L1289 183L1288 182z"/>
<path style="fill:#b9ab5f; stroke:none;" d="M1266.67 183.333L1267.33 183.667L1266.67 183.333z"/>
<path style="fill:#676272; stroke:none;" d="M1268 183L1268 184L1272 184L1268 183M1284 183L1284 184L1287 184L1284 183z"/>
<path style="fill:#a0623a; stroke:none;" d="M1168 184C1170.53 192.995 1181.62 195.444 1180 206L1188 204L1186 190L1182 191L1168 184z"/>
<path style="fill:#b9ab5f; stroke:none;" d="M1269 184L1269 185L1273 185L1269 184z"/>
<path style="fill:#676272; stroke:none;" d="M1273.67 184.333L1274.33 184.667L1273.67 184.333M1280 184L1280 185L1284 185L1280 184z"/>
<path style="fill:#a0623a; stroke:none;" d="M1369 185L1370 186L1369 185M1347 186L1349 193L1350 193L1347 186M1370 186L1371 187L1370 186M1518 188L1520 191L1518 188z"/>
<path style="fill:#fdfcfc; stroke:none;" d="M1525 189L1526 190L1525 189z"/>
<path style="fill:#676272; stroke:none;" d="M1332 198L1332 199L1376 191L1359 193.08L1332 198z"/>
<path style="fill:#a0623a; stroke:none;" d="M1013 191L1013 198L1014 198L1013 191z"/>
<path style="fill:#344c23; stroke:none;" d="M1015 209L1014 209L1013.96 269L1011 298L1014.15 334L1014 625L1018 625L1018 324C1021.25 327.854 1023.13 334.263 1027.21 337.142C1031.22 339.969 1038.27 339.633 1043 340.075C1059.94 341.656 1070.62 338.791 1087 335L1087 395L1088 395L1088 334L1102 332C1106.24 349.821 1103 371.693 1103 390C1103 400.145 1100.64 409.692 1111 415C1104.71 388.576 1116.68 357.967 1109 332L1124 332C1121.64 339.999 1123 349.688 1123 358L1123 407C1123 415.218 1120.09 427.099 1129 431L1128 396L1128 330L1141 329L1141 444L1143 444L1143 367L1142 329L1150 328L1150 412L1151 452L1152 452L1152 368L1151 327C1156.01 325.952 1166.4 318.546 1170.85 320.933C1174.42 322.842 1173.99 327.597 1174 331L1174 358L1174 444C1174 457.313 1171.18 469.83 1185 477L1184 424L1184 319L1187 319L1187 426L1186 479L1190 481L1190 317L1191 317L1191 442L1191 472C1191 476.206 1190.17 480.518 1194 483L1194 353C1194 338.054 1187.96 314.629 1207 311L1207 445L1207 478C1207 483.132 1206.12 488.199 1210 492L1210 309L1211 309L1211 449L1211 482C1211 487.221 1210.1 491.997 1215 495L1215 308L1218 308L1218 452L1218 486C1218 490.571 1216.77 496.26 1221 499L1221 368C1221 349.447 1225.25 324.763 1220 307L1224 306L1224 455L1224 490C1224 494.868 1222.68 500.882 1227 504L1227 305L1233 304C1236.82 320.047 1234 339.523 1234 356L1234 460C1234 480.339 1227.6 507.041 1246 520L1246 304L1264 305L1264 528L1267 528L1267 359L1267 319C1267 316.461 1265.75 307.207 1270 307.207C1274.25 307.207 1273 316.461 1273 319L1273 359L1273 528L1275 528L1275 307L1288.4 310.603L1290 324L1290 361L1290 528L1295 528L1295 311L1302 312L1301 336L1301 380L1301 528L1311 528L1311 380L1311 336L1310 312L1314 311L1314 528L1317 528L1317 360L1317 321C1317 314.952 1316.71 309.022 1324 308L1329 305L1329 528L1332 528L1332 357L1332 319L1333.6 304.564L1347 300L1347 299L1344 299C1347.81 294.482 1350.55 290.064 1350 284L1353 277C1366.19 274.326 1367.3 285.258 1377 291C1376.72 287.789 1375.82 285.073 1374.9 282C1372.98 275.55 1374.41 267.153 1380.75 275.711C1385.68 282.372 1386.1 295.061 1395 298L1395 528L1399 528L1399 374C1399 350.509 1394.56 321.843 1400 299L1404 301L1403 326L1403 373L1403 528L1407 528L1407 302L1409 302L1409 528L1411 528L1411 303L1414 303L1414 528L1420 528L1420 305L1421 305L1421 528L1422 528L1422 370L1422 327L1424 306L1424 379L1424 528L1425 528L1425 379C1425 356.424 1420.77 328.957 1426 307L1427 307C1432.23 328.957 1428 356.424 1428 379L1428 528L1430 528L1430 381C1430 358.424 1425.77 330.957 1431 309L1461 321L1461 528L1462 528L1462 323L1499 331L1499 326L1499 325L1490 322C1493.97 314.679 1503.45 305.793 1512 306C1512.02 300.507 1512.04 295.769 1518 294C1516.76 289.814 1514.31 287.684 1510 287L1510 292L1478 287.018L1452 289L1451 293L1481 302.973L1506 298L1506 300L1488 312L1496 305C1489.13 304.763 1485.48 311.499 1479.29 313.69C1472.91 315.947 1459.34 312.995 1453 310.91C1443.1 307.656 1429.59 301.242 1422.21 293.812C1413.61 285.153 1407.77 272.472 1397 266.008C1389.94 261.771 1380.8 263.447 1373 262L1373 261C1380.29 258.834 1379.2 252.599 1381 247L1377 249C1384.75 237.649 1393.1 223.468 1389.39 209C1387.82 202.879 1383.89 199.194 1381 194L1446 212C1441.55 206.716 1425.79 206.345 1419 204.626C1405.1 201.107 1389.15 191.646 1375 191.133C1364.23 190.742 1353.57 196.664 1343 197.911C1323.41 200.22 1303.65 200.938 1284 198.826C1270.79 197.407 1257.43 192.235 1244 193.184C1219.05 194.948 1198.83 206.804 1175 211.6C1155.8 215.465 1137.24 211.764 1118 213.089C1091.42 214.92 1068.17 231.037 1042 231.989C1036.37 232.194 1023.19 235.942 1018.74 231.397C1014.94 227.51 1016.01 214.438 1015 209z"/>
<path style="fill:#676272; stroke:none;" d="M1378 191L1378 192L1384 193L1378 191z"/>
<path style="fill:#fdfcfc; stroke:none;" d="M1526.33 191.667L1526.67 192.333L1526.33 191.667z"/>
<path style="fill:#676272; stroke:none;" d="M1234 193L1234 194L1242 194L1234 193M1249 193L1249 194L1257 194L1249 193z"/>
<path style="fill:#a0623a; stroke:none;" d="M1357 193L1358 194L1357 193z"/>
<path style="fill:#676272; stroke:none;" d="M1385.67 193.333L1386.33 193.667L1385.67 193.333z"/>
<path style="fill:#b9ab5f; stroke:none;" d="M1007 194L1007 196L1010 196L1010 194L1007 194z"/>
<path style="fill:#676272; stroke:none;" d="M1227 194L1227 195L1231 195L1227 194M1260 194L1260 195L1264 195L1260 194z"/>
<path style="fill:#a0623a; stroke:none;" d="M1352 194L1353 195L1352 194z"/>
<path style="fill:#676272; stroke:none;" d="M1381 194C1382.93 199.658 1387.79 203.765 1389.39 210C1393.21 224.919 1382.67 236.618 1377 249L1381 247L1379 249C1380.19 254.765 1377.56 257.714 1373 261L1373 262C1380.55 263.797 1389.04 261.835 1396 266.008C1406.71 272.434 1413.06 284.935 1421.38 293.812C1428.56 301.485 1442.98 308.227 1453 311.229C1459.31 313.119 1473.01 316.154 1479.29 314.171C1485.45 312.224 1489.44 305.198 1496 305L1488 312L1506 300L1506 298L1481.29 302.772L1451 293L1452 289L1478 287.054L1510 292L1510 287L1518 294C1511.47 295.067 1512 300.459 1512 306C1503.45 305.126 1492.86 313.949 1490 322L1499 325L1499 326L1499 331L1462 323L1462 528L1463 528L1463 379L1463 340L1465 324L1464 326L1465 326L1469 325L1469 528L1470 528L1470 326L1475 327C1469.5 345.597 1474 371.571 1474 391L1474 528L1477 528L1477 328C1481.06 331.977 1480 337.649 1480 343L1480 380L1480 528L1483 528L1483 329C1487.06 332.977 1486 338.649 1486 344L1486 380L1486 528L1489 528L1489 331L1492 331L1492 528L1495 528L1495 397C1495 376.558 1491.26 351.889 1496 332C1500.13 336.374 1499 342.316 1499 348L1499 383L1499 528L1503 528L1503 334L1527 335C1523.67 327.287 1514.29 316.077 1520.94 307.318C1524.43 302.719 1536.84 305 1542 305C1562.14 305 1586.41 301.335 1606 306L1608 304L1608 303L1522 303C1522 297.064 1521.65 290.69 1523.69 285C1528.77 270.789 1541.61 254.642 1536.97 238.043C1535.54 232.91 1527.36 229.494 1523 227.259C1508.63 219.893 1485.12 215.333 1469 215L1469 216L1492 223C1488.18 233.194 1488.25 245.901 1479 253C1481.16 246.016 1479.64 242.492 1477 236C1470.06 236.025 1468.04 239.741 1462 241.968C1453.19 245.213 1446.98 244.318 1439 250.666C1431.22 256.849 1424.75 267.26 1414 267L1439.7 240L1452 223C1453.31 217.352 1461.89 215.021 1467 215L1467 214C1462.21 212.819 1449.5 208.146 1446 212L1413 205.441L1381 194M1387.67 194.333L1388.33 194.667L1387.67 194.333M1222 195L1222 196L1226 196L1222 195M1265 195L1265 196L1269 196L1265 195z"/>
<path style="fill:#a0623a; stroke:none;" d="M1348 195L1349 196L1348 195z"/>
<path style="fill:#676272; stroke:none;" d="M1389.67 195.333L1390.33 195.667L1389.67 195.333M1218 196L1218 197L1221 197L1218 196M1271 196L1271 197L1275 197L1271 196M1392.67 196.333L1393.33 196.667L1392.67 196.333M1214 197L1214 198L1217 198L1214 197M1277 197L1277 198L1281 198L1277 197M1394 197L1394 198L1397 198L1394 197M1210 198L1210 199L1213 199L1210 198M1281 198L1281 199L1290 199L1281 198M1397.67 198.333L1398.33 198.667L1397.67 198.333z"/>
<path style="fill:#a0623a; stroke:none;" d="M1106 199L1111 206L1106 199z"/>
<path style="fill:#676272; stroke:none;" d="M1208 199L1209 200L1208 199M1266 199C1267.27 205.412 1264.05 211.806 1272 214L1273 200L1266 199M1293 199L1293 200L1305 200L1293 199M1319 199L1319 200L1328 200L1319 199M1337 204L1342 202L1340 207L1344 207L1328 212L1328 213L1331 213L1331 214L1329 215C1334.19 219.541 1331.15 225.429 1329 231L1332 233L1332 241L1333 241L1337 237L1337 241C1348.52 231.957 1348 212.238 1348 199L1337 204M1401.67 199.333L1402.33 199.667L1401.67 199.333z"/>
<path style="fill:#a0623a; stroke:none;" d="M1014.33 200.667L1014.67 201.333L1014.33 200.667z"/>
<path style="fill:#676272; stroke:none;" d="M1204 200L1204 201L1207 201L1204 200M1403 200L1403 201L1406 201L1403 200M1202.67 201.333L1203.33 201.667L1202.67 201.333M1407.67 201.333L1408.33 201.667L1407.67 201.333M1199.67 202.333L1200.33 202.667L1199.67 202.333M1411.67 202.333L1412.33 202.667L1411.67 202.333M1197.67 203.333L1198.33 203.667L1197.67 203.333M1414 203L1414 204L1417 204L1414 203M1194.67 204.333L1195.33 204.667L1194.67 204.333M1418.67 204.333L1419.33 204.667L1418.67 204.333z"/>
<path style="fill:#fdfcfc; stroke:none;" d="M1517 204L1519 224L1537 234C1537 219.401 1534.52 204.803 1517 204z"/>
<path style="fill:#a0623a; stroke:none;" d="M1191 205L1192 206L1191 205z"/>
<path style="fill:#676272; stroke:none;" d="M1192 205L1193 206L1192 205M1422 205L1422 206L1425 206L1422 205M1189.67 206.333L1190.33 206.667L1189.67 206.333M1426 206L1426 207L1430 207L1426 206z"/>
<path style="fill:#a0623a; stroke:none;" d="M1015 207L1016 208L1015 207z"/>
<path style="fill:#676272; stroke:none;" d="M1186 207L1186 208L1189 208L1186 207M1431 207L1431 208L1435 208L1431 207z"/>
<path style="fill:#b9ab5f; stroke:none;" d="M1008 208L1007 253L1007 342L1007 625L1010 625L1010 423C1010 393.559 1007.92 363.315 1009.38 334C1010.86 304.101 1010 273.961 1010 244C1010 233.938 1013.26 216.788 1008 208z"/>
<path style="fill:#676272; stroke:none;" d="M1184.67 208.333L1185.33 208.667L1184.67 208.333M1435 208L1435 209L1440 209L1435 208z"/>
<path style="fill:#a0623a; stroke:none;" d="M1112 209L1112 210L1115 210L1112 209z"/>
<path style="fill:#676272; stroke:none;" d="M1181 209L1181 210L1184 210L1181 209M1441 209L1441 210L1445 210L1441 209M1177 210L1177 211L1181 211L1177 210M1171 211L1171 212L1176 212L1171 211M1116 212L1116 213L1134 213L1116 212z"/>
<path style="fill:#a0623a; stroke:none;" d="M1161 212L1162 213L1161 212z"/>
<path style="fill:#676272; stroke:none;" d="M1162 212L1162 213L1171 213L1162 212M1111 213L1111 214L1115 214L1111 213M1139 213L1139 214L1161 214L1139 213M1016 214L1016 219L1017 219L1016 214M1105 214L1105 215L1109 215L1105 214z"/>
<path style="fill:#b9ab5f; stroke:none;" d="M1017 215C1017.01 232.349 1022.25 232 1038 232L1038 231L1019 231L1017 215z"/>
<path style="fill:#676272; stroke:none;" d="M1100 215L1100 216L1103 216L1100 215M1095.67 216.333L1096.33 216.667L1095.67 216.333M1091.67 217.333L1092.33 217.667L1091.67 217.333M1087.67 218.333L1088.33 218.667L1087.67 218.333M1084.67 219.333L1085.33 219.667L1084.67 219.333M1262 219L1263 220L1262 219z"/>
<path style="fill:#fdfcfc; stroke:none;" d="M1076.67 220.333L1077.33 220.667L1076.67 220.333z"/>
<path style="fill:#676272; stroke:none;" d="M1081.67 220.333L1082.33 220.667L1081.67 220.333M1078.67 221.333L1079.33 221.667L1078.67 221.333z"/>
<path style="fill:#344c23; stroke:none;" d="M1333.33 221.667L1333.67 222.333L1333.33 221.667M1497 221L1497 222L1522 229L1522 228L1497 221z"/>
<path style="fill:#676272; stroke:none;" d="M1075.67 222.333L1076.33 222.667L1075.67 222.333M1072 223L1072 224L1075 224L1072 223M1257 224L1257 225L1260 227L1261 227L1263 224L1257 224z"/>
<path style="fill:#a0623a; stroke:none;" d="M1017.33 224.667L1017.67 225.333L1017.33 224.667z"/>
<path style="fill:#676272; stroke:none;" d="M1070.67 224.333L1071.33 224.667L1070.67 224.333M1068.67 225.333L1069.33 225.667L1068.67 225.333M1017 226L1017 231L1018 231L1017 226M1065.67 226.333L1066.33 226.667L1065.67 226.333M1249 226C1248.17 236.298 1257.81 251.055 1266 257C1264.04 248.635 1258.91 226.77 1249 226M1063.67 227.333L1064.33 227.667L1063.67 227.333M1060.67 228.333L1061.33 228.667L1060.67 228.333M1056 229L1056 230L1059 230L1056 229z"/>
<path style="fill:#a0623a; stroke:none;" d="M1010 230L1010 237L1011 237L1010 230z"/>
<path style="fill:#676272; stroke:none;" d="M1050 230L1050 231L1054 231L1050 230M1018 231C1021.41 234.906 1031.07 233 1036 233L1036 232L1018 231M1038 231L1038 232L1048 232L1038 231z"/>
<path style="fill:#344c23; stroke:none;" d="M1534 235L1535 236L1534 235z"/>
<path style="fill:#676272; stroke:none;" d="M1320 243L1321 244L1320 243M1315 247L1316 250C1310.87 250.849 1310.3 254.441 1309 259L1299 254C1299.16 260.507 1306.87 274.821 1314.79 274.404C1318.93 274.186 1321.19 265.525 1318.97 262.603C1317.29 260.393 1313.2 260.077 1311 258L1317 252L1322 246L1315 247M1333 246L1332 248L1334 248L1333 246z"/>
<path style="fill:#344c23; stroke:none;" d="M1316 248L1317 249L1316 248z"/>
<path style="fill:#676272; stroke:none;" d="M1290 263L1298 281L1304 280C1302.32 273.562 1296.59 264.893 1290 263z"/>
<path style="fill:#a0623a; stroke:none;" d="M1010 264L1010 279L1011 279L1010 264z"/>
<path style="fill:#676272; stroke:none;" d="M1041 269L1042 270L1041 269M1377 291C1368.44 283.862 1365.78 273.419 1353 277L1350 284L1347 299L1347 300L1333.03 304.564L1332 319L1332 356L1332 528L1337 528L1337 362L1337 320L1338.6 304.589L1352 300.92L1390 297L1390 528L1395 528L1395 298C1386.47 293.319 1386.19 282.118 1380.75 275.005C1373.89 266.042 1372.89 275.488 1374.6 282C1375.41 285.061 1376.53 287.852 1377 291M1039.33 273.667L1039.67 274.333L1039.33 273.667z"/>
<path style="fill:#b9ab5f; stroke:none;" d="M1364 283C1363.49 288.319 1366.77 292.156 1372 293L1366 283L1364 283z"/>
<path style="fill:#676272; stroke:none;" d="M1034 284L1033 295L1034 295L1034 284z"/>
<path style="fill:#b9ab5f; stroke:none;" d="M1426 287C1428.75 293.502 1433.7 299.723 1440 303L1445 296L1426 287M1446 291L1445 295L1446 295L1448 291L1446 291M1337 528L1390 528L1390 297L1351 300.92L1338.03 304.589L1337 321L1337 363L1337 528z"/>
<path style="fill:#676272; stroke:none;" d="M1400 299L1399 324L1399 371L1399 528L1403 528L1403 375C1403 351.814 1398.63 323.547 1404 301L1400 299M1407 302L1407 528L1409 528L1409 302L1407 302M1411 303L1411 528L1414 528L1414 303L1411 303M1227 305L1227 457L1227 492C1227 496.211 1228.28 503.82 1225 503C1234.63 514.721 1248.67 528 1264 528L1264 305L1246 304L1246 520C1242.35 516.348 1236.5 512.25 1234.45 507.424C1232.69 503.276 1234 496.457 1234 492L1234 456L1234 353C1234 337.951 1237.26 318.425 1233 304L1227 305z"/>
<path style="fill:#a0623a; stroke:none;" d="M1010 305L1010 625L1012 625L1011 401L1011 334L1010 305z"/>
<path style="fill:#b9ab5f; stroke:none;" d="M1231.33 305.667L1231.67 306.333L1231.33 305.667M1247 305L1247 519L1248 519L1248 368L1248 325L1247 305z"/>
<path style="fill:#676272; stroke:none;" d="M1324 308C1316.19 308.386 1317 314.79 1317 321L1317 359L1317 528L1329 528L1329 305L1324 308M1420 305L1420 528L1421 528L1421 371L1421 326L1420 305M1220 307C1224.59 326.298 1221 350.168 1221 370L1221 499C1216.94 495.024 1218 489.351 1218 484L1218 450L1218 308L1215 308L1215 451L1215 484C1215 488.118 1216.24 494.81 1213 494L1224 503L1224 306L1220 307M1267 528L1273 528L1273 358L1273 319C1273 316.304 1274.45 306.636 1270 306.636C1265.55 306.636 1267 316.304 1267 319L1267 358L1267 528M1423 306L1422 330L1422 376L1422 528L1424 528L1424 367L1424 324L1423 306M1275 307L1275 528L1276 528L1276 308L1277 308L1277 528L1281 528L1281 310L1282 310L1282 528L1283 528L1283 381C1283 358.424 1278.77 330.957 1284 309L1275 307M1426 307L1425 331L1425 377L1425 528L1428 528L1428 366L1428 324L1426 307z"/>
<path style="fill:#a0623a; stroke:none;" d="M1276 308L1277 309L1276 308z"/>
<path style="fill:#676272; stroke:none;" d="M1210 309L1210 492C1202.13 481.058 1207 455.271 1207 442L1207 311L1206 311L1206 449C1206 460.282 1200.85 488.023 1212 494C1208.6 479.729 1211 462.645 1211 448L1211 357C1211 343.485 1215.21 321.407 1210 309z"/>
<path style="fill:#b9ab5f; stroke:none;" d="M1276 309L1277 310L1276 309M1284 309L1283 333L1283 378L1283 528L1286 528L1286 381C1286 358.729 1281.84 331.661 1287 310L1284 309z"/>
<path style="fill:#676272; stroke:none;" d="M1285 309L1285 310L1286 327L1286 369L1286 528L1290 528L1290 361L1290 322C1290 316.665 1291.55 310.092 1285 309M1431 309L1430 333L1430 378L1430 528L1432 528L1432 311L1436 312L1431 309z"/>
<path style="fill:#a0623a; stroke:none;" d="M1276 310L1276 528L1277 528L1277 375L1277 331L1276 310z"/>
<path style="fill:#344c23; stroke:none;" d="M1281 310L1281 528L1282 528L1282 375L1282 331L1281 310z"/>
<path style="fill:#676272; stroke:none;" d="M1194 483C1186.5 475.657 1191 450.231 1191 440L1191 317L1190 317C1187.03 325.908 1190 344.188 1190 355L1190 443L1190 471C1190 475.023 1191.19 480.797 1188 480L1195 485L1195 360C1195 349.061 1190.32 323.136 1198 315L1198 447L1198 477C1198 481.541 1197.01 486.345 1202 488L1202 313L1204 313L1204 489L1205 489L1205 311C1188.03 316.266 1194 339.31 1194 354L1194 483z"/>
<path style="fill:#b9ab5f; stroke:none;" d="M1205 311L1205 489L1204 489L1204 313L1202 313L1202 488C1197.27 485.39 1198 480.902 1198 476L1198 446L1198 315C1194.05 317.849 1195 322.503 1195 327L1195 357L1195 485C1187.88 480.536 1177.91 474.769 1174.03 467C1170.17 459.287 1173 444.537 1173 436L1173 360L1173 333C1173 329.944 1173.87 324.998 1171.97 322.361C1169.55 318.999 1165.67 322.058 1165.15 325.105C1163.63 333.898 1165 344.074 1165 353L1165 461L1163 461L1163 370L1164 324C1158.44 328.858 1162 350.672 1162 358L1162 459L1160 457L1157 458L1157 327L1155 327L1155 455L1140.6 441.985L1140 408L1140 330L1136 330C1140.42 340.431 1138 354.803 1138 366L1138 441L1109 415.011L1098.99 404.907L1098 384L1098 334L1092 335L1094 401C1084.67 395.143 1086 387.973 1086 378L1086 336C1078.48 338.029 1080 344.459 1080 351L1080 391L1078 391L1078 339L1077 339L1077 389C1072.4 385.172 1073 380.6 1073 375C1073 364.024 1071.45 351.712 1074 341L1073 340C1069.05 342.849 1070 347.503 1070 352C1070 362.076 1068.14 374.317 1071 384C1062.46 378.76 1067 351.395 1067 342L1062 343L1064 379C1050.98 369.083 1045.09 359.408 1049 343L1036 341L1036 348L1025 338L1024 333L1023 333L1024 436L1024 625L1031 625L1031 528L1251 528C1244.21 514.949 1230.18 507.616 1219 498.989C1214.78 495.736 1207.73 492.537 1206.32 486.996C1203.15 474.54 1206 457.864 1206 445L1206 355C1206 342.532 1209.81 322.456 1205 311z"/>
<path style="fill:#676272; stroke:none;" d="M1295 311L1295 528L1301 528L1301 383C1301 360.729 1296.84 333.661 1302 312L1295 311M1310 312C1315.16 333.661 1311 360.729 1311 383L1311 528L1314 528L1314 311L1310 312z"/>
<path style="fill:#b9ab5f; stroke:none;" d="M1432 311L1432 528L1433 528L1433 371L1433 329L1432 311z"/>
<path style="fill:#a0623a; stroke:none;" d="M1433 311L1434 312L1433 311M1434 312L1433 336L1433 380L1433 528L1435 528L1435 376L1435 332L1434 312z"/>
<path style="fill:#b9ab5f; stroke:none;" d="M1435 312L1435 528L1437 528L1437 370L1437 329L1435 312z"/>
<path style="fill:#a0623a; stroke:none;" d="M1436 312L1437 313L1436 312z"/>
<path style="fill:#676272; stroke:none;" d="M1437 312L1437 528L1440 528L1440 314L1441 314L1441 385L1441 528L1442 528L1442 387C1442 363.483 1438.71 337.129 1443 314L1437 312z"/>
<path style="fill:#a0623a; stroke:none;" d="M1440 314L1440 385L1440 528L1441 528L1441 373L1441 331L1440 314z"/>
<path style="fill:#b9ab5f; stroke:none;" d="M1440 315L1441 316L1440 315z"/>
<path style="fill:#a0623a; stroke:none;" d="M1443 315L1442 339L1442 383L1442 528L1443 528L1443 384L1443 315z"/>
<path style="fill:#676272; stroke:none;" d="M1444 315L1444 316L1449 317L1449 528L1450 528L1450 319L1456 320L1456 528L1458 528L1458 322L1460 322L1460 528L1461 528L1461 321L1444 315z"/>
<path style="fill:#b9ab5f; stroke:none;" d="M1443 316L1443 528L1444 528L1444 386C1444 364.033 1439.91 337.366 1445 316L1443 316z"/>
<path style="fill:#a0623a; stroke:none;" d="M1444 317L1444 528L1446 528L1446 317L1444 317z"/>
<path style="fill:#b9ab5f; stroke:none;" d="M1446 317L1446 528L1448 528L1448 317L1446 317z"/>
<path style="fill:#a0623a; stroke:none;" d="M1448 317L1448 528L1449 528L1449 380L1449 337L1448 317z"/>
<path style="fill:#344c23; stroke:none;" d="M1507 318L1507 320L1509 320L1509 318L1507 318z"/>
<path style="fill:#676272; stroke:none;" d="M1169.67 319.333L1170.33 319.667L1169.67 319.333M1184 319L1184 427C1184 442.982 1180.54 463.635 1185 479C1191.39 470.564 1187 446.548 1187 436L1187 319L1184 319z"/>
<path style="fill:#a0623a; stroke:none;" d="M1450 319L1450 528L1451 528L1451 381L1451 339L1450 319z"/>
<path style="fill:#b9ab5f; stroke:none;" d="M1451 319L1451 528L1452 528L1452 381L1452 339L1451 319z"/>
<path style="fill:#a0623a; stroke:none;" d="M1452 319L1452 528L1454 528L1454 374L1454 335L1452 319z"/>
<path style="fill:#676272; stroke:none;" d="M1151 327C1153.48 337.415 1152 349.331 1152 360L1152 423C1152 430.183 1148.51 451.23 1155 455L1155 327L1157 327L1157 458L1162 459L1162 361C1162 351.614 1158.28 331.555 1164 324L1163 368L1163 461L1165 461L1165 356C1165 347.501 1161.09 325.849 1169 321L1151 327M1171 320L1172 321L1171 320z"/>
<path style="fill:#b9ab5f; stroke:none;" d="M1454 320L1454 388L1454 528L1456 528L1456 376L1456 337L1454 320z"/>
<path style="fill:#a0623a; stroke:none;" d="M1455 320L1456 321L1455 320z"/>
<path style="fill:#676272; stroke:none;" d="M1172 321L1173 322L1172 321z"/>
<path style="fill:#344c23; stroke:none;" d="M1505 321L1506 322L1505 321z"/>
<path style="fill:#676272; stroke:none;" d="M1173 322L1173 465L1174 465L1174 365C1174 352.794 1177.71 333.218 1173 322z"/>
<path style="fill:#a0623a; stroke:none;" d="M1458 322L1458 528L1460 528L1460 378L1460 339L1458 322z"/>
<path style="fill:#b9ab5f; stroke:none;" d="M1459.33 322.667L1459.67 323.333L1459.33 322.667z"/>
<path style="fill:#676272; stroke:none;" d="M1018 324L1018 338L1019 338C1019 333.789 1017.72 326.18 1021 327L1018 324z"/>
<path style="fill:#a0623a; stroke:none;" d="M1463 324L1463 528L1465 528L1465 392C1465 371.253 1461.19 346.184 1466 326L1465 324L1463 324z"/>
<path style="fill:#b9ab5f; stroke:none;" d="M1159.33 325.667L1159.67 326.333L1159.33 325.667M1466 325L1466 528L1468 528L1468 325L1466 325z"/>
<path style="fill:#a0623a; stroke:none;" d="M1468 325L1468 528L1469 528L1469 385L1469 344L1468 325z"/>
<path style="fill:#b9ab5f; stroke:none;" d="M1019 326L1019 338L1020 338C1020 334.075 1018.88 329.22 1022 330L1019 326z"/>
<path style="fill:#a0623a; stroke:none;" d="M1470 326L1470 528L1471 528L1471 386L1471 345L1470 326z"/>
<path style="fill:#b9ab5f; stroke:none;" d="M1471 326L1471 528L1473 528L1473 380L1473 342L1471 326z"/>
<path style="fill:#a0623a; stroke:none;" d="M1472 326L1473 327L1472 326z"/>
<path style="fill:#676272; stroke:none;" d="M1465 327L1465 528L1466 528L1466 387L1466 346L1465 327z"/>
<path style="fill:#a0623a; stroke:none;" d="M1473 327L1473 528L1474 528L1474 393C1474 372.253 1470.19 347.184 1475 327L1473 327z"/>
<path style="fill:#676272; stroke:none;" d="M1021 328L1022 329L1021 328M1142 329C1144.27 338.521 1143 349.251 1143 359L1143 413C1143 422.423 1145.67 436.606 1141 445L1151 452L1150 410L1150 328L1142 329z"/>
<path style="fill:#a0623a; stroke:none;" d="M1477 328L1477 329L1479 345L1479 382L1479 528L1480 528L1480 377L1480 341C1480 336.429 1481.23 330.74 1477 328z"/>
<path style="fill:#676272; stroke:none;" d="M1022.33 329.667L1022.67 330.333L1022.33 329.667M1128 330L1128 404L1127 431L1138 441L1138 363C1138 353.21 1140.67 338.751 1136 330L1140 330L1140 444L1141 444L1141 329L1128 330z"/>
<path style="fill:#b9ab5f; stroke:none;" d="M1147.67 329.333L1148.33 329.667L1147.67 329.333M1477 329L1477 528L1479 528L1479 329L1477 329z"/>
<path style="fill:#a0623a; stroke:none;" d="M1483 329L1483 330L1485 346L1485 383L1485 528L1486 528L1486 378L1486 342C1486 337.428 1487.23 331.74 1483 329z"/>
<path style="fill:#b9ab5f; stroke:none;" d="M1483 330L1483 528L1485 528L1485 330L1483 330M1022 331L1023 332L1022 331z"/>
<path style="fill:#676272; stroke:none;" d="M1109 332C1115.29 358.424 1103.32 389.033 1111 415L1108 414L1122 428L1123 428L1123 365L1124 332L1109 332z"/>
<path style="fill:#a0623a; stroke:none;" d="M1489 331L1490 332L1489 331z"/>
<path style="fill:#b9ab5f; stroke:none;" d="M1490 331L1490 396L1490 528L1491 528L1491 386L1491 347L1490 331z"/>
<path style="fill:#a0623a; stroke:none;" d="M1491 331L1492 332L1491 331z"/>
<path style="fill:#676272; stroke:none;" d="M1023 332L1024 333L1023 332M1095 333L1095 334L1098 334L1098 386C1098 394.596 1096.52 402.906 1102 410L1103 410L1103 359L1102 332L1095 333z"/>
<path style="fill:#b9ab5f; stroke:none;" d="M1120 332L1121 365L1121 425L1122 425L1122 365L1123 332L1120 332z"/>
<path style="fill:#a0623a; stroke:none;" d="M1496 332C1490.67 350.041 1495 375.155 1495 394L1495 528L1496 528L1496 396L1496 332M1489 333L1489 528L1490 528L1490 391L1490 352L1489 333M1491 333L1491 528L1492 528L1492 391L1492 352L1491 333z"/>
<path style="fill:#b9ab5f; stroke:none;" d="M1496 333L1496 528L1498 528L1498 333L1496 333z"/>
<path style="fill:#a0623a; stroke:none;" d="M1498 333L1498 528L1499 528L1499 391L1499 352L1498 333z"/>
<path style="fill:#676272; stroke:none;" d="M1024 334L1025 335L1024 334M1088 334L1088 395L1087 395L1087 349C1087 344.811 1088.96 336.064 1084 335L1084 336C1086.95 339.888 1086 345.284 1086 350L1086 382C1086 390.513 1085.03 397.19 1094 401L1093 352L1094 335L1088 334z"/>
<path style="fill:#a0623a; stroke:none;" d="M1594 334L1595 335L1594 334z"/>
<path style="fill:#676272; stroke:none;" d="M1025 336L1025 338L1027 338L1025 336M1081 336L1081 337L1084 337L1081 336M1509 336L1509 528L1510 528L1510 393L1510 354L1509 336M1072 339C1075.54 349.405 1073 364.027 1073 375C1073 380.295 1071.78 386.124 1077 389L1077 339L1078 339L1078 391L1080 391L1081 337L1072 339z"/>
<path style="fill:#b9ab5f; stroke:none;" d="M1018 338L1018 625L1019 625L1019 423L1019 364L1018 338z"/>
<path style="fill:#676272; stroke:none;" d="M1029 338L1030 339L1029 338M1030 339C1030.93 343.274 1031.99 345.985 1036 348L1036 341L1049 343C1044.54 358.091 1049.8 371.634 1064 379L1062 343L1067 342L1067 373C1067 377.66 1066.11 382.033 1071 384L1070 354L1072 341L1058 341.921L1030 339M1036 348L1038 351L1036 348z"/>
<path style="fill:#b9ab5f; stroke:none;" d="M279 370L280 381L281 381L281 370L279 370z"/>
<path style="fill:#344c23; stroke:none;" d="M281 370C281 386.912 286.062 394.311 272 407C281.705 413.607 282.59 428.516 286 439C269.663 439 273 449.536 273 463L298 463L297.581 442L290.769 418.884L298 370L281 370z"/>
<path style="fill:#b9ab5f; stroke:none;" d="M335 370L335 397L336 397L335 370M372 370L372 375L373 375L372 370z"/>
<path style="fill:#344c23; stroke:none;" d="M373 370C372.994 377.398 371.649 383.232 363 383C364.217 390.359 371.617 385.888 373.517 390.407C374.878 393.645 373 401.292 373 405C373 418.775 376.808 440.466 367.606 451.985C362.407 458.493 354.225 457.603 349 463L390 463C389.993 452.863 384.516 444.714 384.04 435C383.009 413.953 387.322 390.116 382 370L373 370M407 370C400.612 390.474 405 417.583 405 439C389.453 439.002 393 450.512 393 463L417 463L415 370L407 370M465 370L463 382L437 382L437 400C441.248 398.808 460.067 383.637 462.628 396.109C463.465 400.184 461.015 405.653 461 410L437 410L437 439C421.453 439.002 425 450.512 425 463L460 463L458.646 434L470.034 415L469.027 395L472 370L465 370M500 370C498.299 386.189 509.831 402.903 512 419L514 419L513 370L500 370M547 370L549 439C534.023 439.002 538 450.967 538 463L561 463L558.62 432L564.512 412L557.432 391L560 370L547 370M609 370L609 375C604.962 376.181 604.759 380.222 604 384C597.236 382.454 581.646 377.329 579.337 388.015C577.59 396.103 595.898 391.75 601.941 395.532C607.433 398.97 609.969 417.747 608.61 424C605.746 437.169 591.524 440.47 580 439.961C576.673 439.814 570.554 437.26 567.603 439.269C563.492 442.069 566 458.359 566 463L612 463L612 370L609 370M336 374L340 439C326.54 439.01 329 448.064 329 459C334.05 457.579 336.402 453.769 340.09 450.286C343.152 447.392 348.621 444.543 350.397 440.625C352.398 436.21 351 428.775 351 424C351 404.795 348.709 389.107 336 374z"/>
<path style="fill:#a0623a; stroke:none;" d="M404 375L404 439L405 439L405 395L404 375z"/>
<path style="fill:#b9ab5f; stroke:none;" d="M462 375L462 382L463 382L462 375z"/>
<path style="fill:#a0623a; stroke:none;" d="M545.333 375.667L545.667 376.333L545.333 375.667M499 376L500 377L499 376z"/>
<path style="fill:#b9ab5f; stroke:none;" d="M605.333 376.667L605.667 377.333L605.333 376.667M499 377L500 378L499 377M545 377L545 386L546 386L545 377M372.333 378.667L372.667 379.333L372.333 378.667z"/>
<path style="fill:#a0623a; stroke:none;" d="M500 379L501 380L500 379z"/>
<path style="fill:#b9ab5f; stroke:none;" d="M604.333 379.667L604.667 380.333L604.333 379.667M500 380L501 381L500 380M251.667 381.333L252.333 381.667L251.667 381.333z"/>
<path style="fill:#a0623a; stroke:none;" d="M253 381L253 382L260 382L253 381z"/>
<path style="fill:#b9ab5f; stroke:none;" d="M260 381L260 382L263 382L260 381M585 381L586 382L585 381z"/>
<path style="fill:#a0623a; stroke:none;" d="M586.667 381.333L587.333 381.667L586.667 381.333M592.667 381.333L593.333 381.667L592.667 381.333z"/>
<path style="fill:#b9ab5f; stroke:none;" d="M594 381L594 382L597 382L594 381z"/>
<path style="fill:#676272; stroke:none;" d="M604 381L605 382L604 381z"/>
<path style="fill:#a0623a; stroke:none;" d="M250 382L250 402L251 402L250 382z"/>
<path style="fill:#344c23; stroke:none;" d="M251 382L251 402C254.795 400.934 271.176 389.261 267.339 384.638C263.957 380.564 255.649 382 251 382z"/>
<path style="fill:#a0623a; stroke:none;" d="M264 382L265 383L264 382z"/>
<path style="fill:#b9ab5f; stroke:none;" d="M265 382L266 383L265 382M281 382L282 383L281 382M369 382L370 383L369 382z"/>
<path style="fill:#a0623a; stroke:none;" d="M436 382L436 400L437 400L436 382z"/>
<path style="fill:#676272; stroke:none;" d="M501 382L502 383L501 382z"/>
<path style="fill:#b9ab5f; stroke:none;" d="M582 382L583 383L582 382z"/>
<path style="fill:#676272; stroke:none;" d="M583 382L584 383L583 382z"/>
<path style="fill:#b9ab5f; stroke:none;" d="M598.667 382.333L599.333 382.667L598.667 382.333z"/>
<path style="fill:#676272; stroke:none;" d="M266 383L267 384L266 383z"/>
<path style="fill:#b9ab5f; stroke:none;" d="M267 383L268 384L267 383z"/>
<path style="fill:#a0623a; stroke:none;" d="M365.667 383.333L366.333 383.667L365.667 383.333z"/>
<path style="fill:#b9ab5f; stroke:none;" d="M501 383L502 384L501 383z"/>
<path style="fill:#a0623a; stroke:none;" d="M581 383L582 384L581 383z"/>
<path style="fill:#b9ab5f; stroke:none;" d="M601 383L602 384L601 383M603 383L604 384L603 383M268 384L269 385L268 384M282.333 384.667L282.667 385.333L282.333 384.667M491.333 384.667L491.667 385.333L491.333 384.667M534 384L535 385L534 384z"/>
<path style="fill:#a0623a; stroke:none;" d="M580 384L581 385L580 384z"/>
<path style="fill:#b9ab5f; stroke:none;" d="M269 385L269 388L270 388L269 385z"/>
<path style="fill:#676272; stroke:none;" d="M502 385L503 386L502 385z"/>
<path style="fill:#a0623a; stroke:none;" d="M534 385L534 390L535 390L534 385M579 385L580 386L579 385M491 386L492 387L491 386z"/>
<path style="fill:#b9ab5f; stroke:none;" d="M502 386L503 387L502 386M533.333 386.667L533.667 387.333L533.333 386.667M578.333 386.667L578.667 387.333L578.333 386.667z"/>
<path style="fill:#344c23; stroke:none;" d="M491 387L489 439C474.304 439.011 478 451.512 478 463L501 463L496.166 415L491 387z"/>
<path style="fill:#b9ab5f; stroke:none;" d="M492.333 387.667L492.667 388.333L492.333 387.667z"/>
<path style="fill:#a0623a; stroke:none;" d="M283 388L283 392L284 392L283 388z"/>
<path style="fill:#676272; stroke:none;" d="M503 388L504 389L503 388z"/>
<path style="fill:#a0623a; stroke:none;" d="M578.333 388.667L578.667 389.333L578.333 388.667M492 389L493 390L492 389z"/>
<path style="fill:#b9ab5f; stroke:none;" d="M503 389L504 390L503 389z"/>
<path style="fill:#344c23; stroke:none;" d="M533 389C529.688 403.448 525.042 423.098 517.442 435.852C515.225 439.572 509.786 437.974 508.434 442.148C506.485 448.165 508 456.701 508 463L530 463C530 445.53 529.884 429.325 532.59 412C533.648 405.23 537.492 394.929 533 389z"/>
<path style="fill:#b9ab5f; stroke:none;" d="M532.333 390.667L532.667 391.333L532.333 390.667z"/>
<path style="fill:#a0623a; stroke:none;" d="M546 390L546 394L547 394L546 390z"/>
<path style="fill:#b9ab5f; stroke:none;" d="M578.333 390.667L578.667 391.333L578.333 390.667M493.333 391.667L493.667 392.333L493.333 391.667z"/>
<path style="fill:#676272; stroke:none;" d="M504 391L505 392L504 391z"/>
<path style="fill:#b9ab5f; stroke:none;" d="M504 392L505 393L504 392z"/>
<path style="fill:#a0623a; stroke:none;" d="M493 393L494 394L493 393z"/>
<path style="fill:#b9ab5f; stroke:none;" d="M531.333 393.667L531.667 394.333L531.333 393.667M579 393L580 394L579 393M282.333 394.667L282.667 395.333L282.333 394.667z"/>
<path style="fill:#a0623a; stroke:none;" d="M372 394L372 437L373 437C373 424.781 376.71 405.226 372 394z"/>
<path style="fill:#b9ab5f; stroke:none;" d="M490 394L490 406L491 406L490 394z"/>
<path style="fill:#676272; stroke:none;" d="M505 394L506 395L505 394z"/>
<path style="fill:#b9ab5f; stroke:none;" d="M546 394L546 403L547 403L546 394M580 394L581 395L580 394M582 394L581 396L583 396L582 394M505.333 395.667L505.667 396.333L505.333 395.667M281 397L282 398L281 397M530 397L531 398L530 397M605 397L605 409L606 409L605 397M314 398L314 399L319 399L314 398M336 398L337 399L336 398M506.333 398.667L506.667 399.333L506.333 398.667z"/>
<path style="fill:#676272; stroke:none;" d="M530 398L531 399L530 398z"/>
<path style="fill:#b9ab5f; stroke:none;" d="M280 399L281 400L280 399M309.667 399.333L310.333 399.667L309.667 399.333z"/>
<path style="fill:#a0623a; stroke:none;" d="M311 399L312 400L311 399z"/>
<path style="fill:#344c23; stroke:none;" d="M304 407L325 405C323.215 394.624 306.095 398.4 304 407z"/>
<path style="fill:#b9ab5f; stroke:none;" d="M321.667 399.333L322.333 399.667L321.667 399.333M279 400L280 401L279 400M306.667 400.333L307.333 400.667L306.667 400.333z"/>
<path style="fill:#a0623a; stroke:none;" d="M323 400L324 401L323 400z"/>
<path style="fill:#b9ab5f; stroke:none;" d="M337.333 400.667L337.667 401.333L337.333 400.667M529 400L530 401L529 400M278 401L279 402L278 401M305.333 401.667L305.667 402.333L305.333 401.667M507.333 401.667L507.667 402.333L507.333 401.667z"/>
<path style="fill:#676272; stroke:none;" d="M529 401L530 402L529 401z"/>
<path style="fill:#b9ab5f; stroke:none;" d="M277 402L278 403L277 402M325.333 402.667L325.667 403.333L325.333 402.667M276 403L277 404L276 403M338 403L338 407L339 407L338 403M528 403L529 404L528 403M572 403L573 416L574 416L572 403M275 404L276 405L275 404z"/>
<path style="fill:#a0623a; stroke:none;" d="M508 404L509 405L508 404z"/>
<path style="fill:#676272; stroke:none;" d="M528 404L529 405L528 404z"/>
<path style="fill:#b9ab5f; stroke:none;" d="M273 405L274 406L273 405M508.333 405.667L508.667 406.333L508.333 405.667z"/>
<path style="fill:#344c23; stroke:none;" d="M574 405C574 418.938 581.442 423.23 595 419C592.667 410.884 580.882 408.621 574 405z"/>
<path style="fill:#b9ab5f; stroke:none;" d="M575 405L576 406L575 405M271 406L272 407L271 406z"/>
<path style="fill:#a0623a; stroke:none;" d="M490 406L490 410L491 410L490 406z"/>
<path style="fill:#b9ab5f; stroke:none;" d="M527 406L528 407L527 406z"/>
<path style="fill:#a0623a; stroke:none;" d="M576 406L577 407L576 406z"/>
<path style="fill:#b9ab5f; stroke:none;" d="M272 407L273 408L272 407z"/>
<path style="fill:#676272; stroke:none;" d="M527 407L528 408L527 407M547 407L548 408L547 407z"/>
<path style="fill:#b9ab5f; stroke:none;" d="M578 407L579 408L578 407M273 408L274 409L273 408z"/>
<path style="fill:#676272; stroke:none;" d="M274 408L275 409L274 408z"/>
<path style="fill:#b9ab5f; stroke:none;" d="M509.333 408.667L509.667 409.333L509.333 408.667z"/>
<path style="fill:#a0623a; stroke:none;" d="M547 408L547 411L548 411L547 408M580 408L581 409L580 408z"/>
<path style="fill:#b9ab5f; stroke:none;" d="M581 408L582 409L581 408M526 409L527 410L526 409z"/>
<path style="fill:#676272; stroke:none;" d="M582 409L583 410L582 409z"/>
<path style="fill:#b9ab5f; stroke:none;" d="M583 409L584 410L583 409z"/>
<path style="fill:#a0623a; stroke:none;" d="M436 410L436 439L437 439L436 410z"/>
<path style="fill:#676272; stroke:none;" d="M490 410L491 411L490 410M526 410L527 411L526 410z"/>
<path style="fill:#a0623a; stroke:none;" d="M585 410L586 411L585 410z"/>
<path style="fill:#b9ab5f; stroke:none;" d="M586 410L587 411L586 410M606 410L607 411L606 410z"/>
<path style="fill:#676272; stroke:none;" d="M1104 410L1105 411L1104 410z"/>
<path style="fill:#a0623a; stroke:none;" d="M250 411L250 439L251 439L250 411z"/>
<path style="fill:#344c23; stroke:none;" d="M251 411L251 439C235.453 439.002 239 450.512 239 463L264 463C264 450.579 261.145 438.171 261.278 426C261.317 422.414 265.645 417.772 263.864 414.43C261.834 410.62 254.606 411.03 251 411z"/>
<path style="fill:#a0623a; stroke:none;" d="M258 411L259 412L258 411z"/>
<path style="fill:#b9ab5f; stroke:none;" d="M259.667 411.333L260.333 411.667L259.667 411.333z"/>
<path style="fill:#676272; stroke:none;" d="M510 411L511 412L510 411z"/>
<path style="fill:#b9ab5f; stroke:none;" d="M547 411L547 420L548 420L547 411M588 411L589 412L588 411z"/>
<path style="fill:#676272; stroke:none;" d="M607 411L608 412L607 411M1105 411L1106 412L1105 411z"/>
<path style="fill:#b9ab5f; stroke:none;" d="M262 412L263 413L262 412M277 412L278 413L277 412M510.333 412.667L510.667 413.333L510.333 412.667M525 412L526 413L525 412M590 412L591 413L590 412M607 412L608 413L607 412z"/>
<path style="fill:#676272; stroke:none;" d="M1106 412L1107 413L1106 412M525 413L526 414L525 413z"/>
<path style="fill:#b9ab5f; stroke:none;" d="M592 413L593 414L592 413z"/>
<path style="fill:#676272; stroke:none;" d="M1107 413L1108 414L1107 413z"/>
<path style="fill:#b9ab5f; stroke:none;" d="M278 414L279 415L278 414M593 414L594 415L593 414z"/>
<path style="fill:#a0623a; stroke:none;" d="M608 414L609 415L608 414z"/>
<path style="fill:#b9ab5f; stroke:none;" d="M265.333 415.667L265.667 416.333L265.333 415.667M318 415L318 416L321 416L318 415z"/>
<path style="fill:#a0623a; stroke:none;" d="M321 415L322 416L321 415z"/>
<path style="fill:#676272; stroke:none;" d="M322 415L323 416L322 415z"/>
<path style="fill:#344c23; stroke:none;" d="M327 415C323.127 415.306 302.446 420.917 312.603 428.168C317.793 431.873 326.53 419.181 327 415z"/>
<path style="fill:#b9ab5f; stroke:none;" d="M489 415L489 424L490 424L489 415z"/>
<path style="fill:#676272; stroke:none;" d="M511 415L512 416L511 415z"/>
<path style="fill:#b9ab5f; stroke:none;" d="M524 415L525 416L524 415M594 415L595 416L594 415M608.333 415.667L608.667 416.333L608.333 415.667M279.333 416.667L279.667 417.333L279.333 416.667M315.667 416.333L316.333 416.667L315.667 416.333M511.333 416.667L511.667 417.333L511.333 416.667M595 416L596 417L595 416M313 417L314 418L313 417z"/>
<path style="fill:#676272; stroke:none;" d="M314 417L315 418L314 417z"/>
<path style="fill:#b9ab5f; stroke:none;" d="M523.333 417.667L523.667 418.333L523.333 417.667M312 418L313 419L312 418M280.333 419.667L280.667 420.333L280.333 419.667M311 419L312 420L311 419z"/>
<path style="fill:#676272; stroke:none;" d="M512 419L513 420L512 419z"/>
<path style="fill:#a0623a; stroke:none;" d="M513 419L514 420L513 419z"/>
<path style="fill:#676272; stroke:none;" d="M311 420L312 421L311 420z"/>
<path style="fill:#b9ab5f; stroke:none;" d="M512 420L512 422L514 422L514 420L512 420M522.333 420.667L522.667 421.333L522.333 420.667M310.333 421.667L310.667 422.333L310.333 421.667M608 422L608 425L609 425L608 422M281 423L281 426L282 426L281 423z"/>
<path style="fill:#a0623a; stroke:none;" d="M310 423L310 426L311 426L310 423z"/>
<path style="fill:#b9ab5f; stroke:none;" d="M521.333 423.667L521.667 424.333L521.333 423.667z"/>
<path style="fill:#a0623a; stroke:none;" d="M489 424L489 428L490 428L489 424M548 425L548 429L549 429L548 425M608 425L609 426L608 425z"/>
<path style="fill:#b9ab5f; stroke:none;" d="M310 426L311 427L310 426M520.333 426.667L520.667 427.333L520.333 426.667z"/>
<path style="fill:#a0623a; stroke:none;" d="M282 427L283 428L282 427z"/>
<path style="fill:#b9ab5f; stroke:none;" d="M607 427L608 428L607 427M282.333 428.667L282.667 429.333L282.333 428.667M311 428L312 429L311 428z"/>
<path style="fill:#676272; stroke:none;" d="M489 428L490 429L489 428M1123.67 428.333L1124.33 428.667L1123.67 428.333z"/>
<path style="fill:#a0623a; stroke:none;" d="M312 429L313 430L312 429z"/>
<path style="fill:#b9ab5f; stroke:none;" d="M519.333 429.667L519.667 430.333L519.333 429.667M548 429L548 437L549 437L548 429M606 429L607 430L606 429z"/>
<path style="fill:#676272; stroke:none;" d="M1125 429L1126 430L1125 429z"/>
<path style="fill:#b9ab5f; stroke:none;" d="M313 430L314 431L313 430M605 430L606 431L605 430z"/>
<path style="fill:#676272; stroke:none;" d="M1126 430L1127 431L1126 430z"/>
<path style="fill:#b9ab5f; stroke:none;" d="M283.333 431.667L283.667 432.333L283.333 431.667z"/>
<path style="fill:#676272; stroke:none;" d="M605 431L606 432L605 431z"/>
<path style="fill:#b9ab5f; stroke:none;" d="M518.333 432.667L518.667 433.333L518.333 432.667z"/>
<path style="fill:#a0623a; stroke:none;" d="M604 432L605 433L604 432M339 433L339 436L340 436L339 433z"/>
<path style="fill:#b9ab5f; stroke:none;" d="M488 433L488 439L489 439L488 433z"/>
<path style="fill:#a0623a; stroke:none;" d="M603 433L604 434L603 433z"/>
<path style="fill:#676272; stroke:none;" d="M284 434L285 435L284 434z"/>
<path style="fill:#b9ab5f; stroke:none;" d="M326 434L324 437L326 434z"/>
<path style="fill:#344c23; stroke:none;" d="M327 434C319.485 440.699 311.96 441.181 303 437L303 463L328 463L327 434z"/>
<path style="fill:#a0623a; stroke:none;" d="M602 434L603 435L602 434z"/>
<path style="fill:#b9ab5f; stroke:none;" d="M284.333 435.667L284.667 436.333L284.333 435.667M517.333 435.667L517.667 436.333L517.333 435.667M600 435L601 436L600 435M328 436L328 459L329 459L328 436M339 436L339 439L340 439L339 436M598 436L599 437L598 436z"/>
<path style="fill:#a0623a; stroke:none;" d="M599 436L600 437L599 436z"/>
<path style="fill:#676272; stroke:none;" d="M285 437L286 438L285 437z"/>
<path style="fill:#b9ab5f; stroke:none;" d="M304 437L305 438L304 437M322 437L323 438L322 437z"/>
<path style="fill:#676272; stroke:none;" d="M323 437L324 438L323 437M372 437L373 438L372 437z"/>
<path style="fill:#b9ab5f; stroke:none;" d="M568 437L569 438L568 437M596 437L597 438L596 437z"/>
<path style="fill:#a0623a; stroke:none;" d="M597 437L598 438L597 437z"/>
<path style="fill:#b9ab5f; stroke:none;" d="M285 438L286 439L285 438z"/>
<path style="fill:#676272; stroke:none;" d="M305 438L306 439L305 438z"/>
<path style="fill:#b9ab5f; stroke:none;" d="M306 438L307 439L306 438M320 438L321 439L320 438z"/>
<path style="fill:#a0623a; stroke:none;" d="M321 438L322 439L321 438z"/>
<path style="fill:#b9ab5f; stroke:none;" d="M509 438L510 439L509 438z"/>
<path style="fill:#a0623a; stroke:none;" d="M510 438L510 439L517 439L510 438z"/>
<path style="fill:#676272; stroke:none;" d="M570 438L571 439L570 438z"/>
<path style="fill:#b9ab5f; stroke:none;" d="M571.667 438.333L572.333 438.667L571.667 438.333M593.667 438.333L594.333 438.667L593.667 438.333M308 439L308 440L311 440L308 439M315 439L315 440L318 440L315 439z"/>
<path style="fill:#a0623a; stroke:none;" d="M318 439L319 440L318 439M575 439L576 440L575 439z"/>
<path style="fill:#b9ab5f; stroke:none;" d="M576 439L576 440L581 440L576 439M585 439L585 440L590 440L585 439z"/>
<path style="fill:#a0623a; stroke:none;" d="M590 439L591 440L590 439z"/>
<path style="fill:#676272; stroke:none;" d="M591 439L592 440L591 439z"/>
<path style="fill:#b9ab5f; stroke:none;" d="M371 441L371 444L372 444L371 441z"/>
<path style="fill:#676272; stroke:none;" d="M371 444L372 445L371 444z"/>
<path style="fill:#b9ab5f; stroke:none;" d="M370 446L371 447L370 446z"/>
<path style="fill:#a0623a; stroke:none;" d="M370 447L371 448L370 447z"/>
<path style="fill:#b9ab5f; stroke:none;" d="M369 449L370 450L369 449z"/>
<path style="fill:#a0623a; stroke:none;" d="M368 451L369 452L368 451z"/>
<path style="fill:#b9ab5f; stroke:none;" d="M367 452L368 453L367 452M366 453L367 454L366 453M365 454L366 455L365 454M364 455L365 456L364 455z"/>
<path style="fill:#a0623a; stroke:none;" d="M363 456L364 457L363 456z"/>
<path style="fill:#b9ab5f; stroke:none;" d="M360 457L361 458L360 457z"/>
<path style="fill:#a0623a; stroke:none;" d="M361 457L362 458L361 457z"/>
<path style="fill:#b9ab5f; stroke:none;" d="M358 458L359 459L358 458z"/>
<path style="fill:#676272; stroke:none;" d="M359 458L360 459L359 458z"/>
<path style="fill:#b9ab5f; stroke:none;" d="M352 459L352 460L355 460L352 459z"/>
<path style="fill:#a0623a; stroke:none;" d="M355 459L356 460L355 459z"/>
<path style="fill:#676272; stroke:none;" d="M1173 466L1175 469L1173 466M1175 469L1176 470L1175 469M1176 470L1177 471L1176 470M1177 471L1178 472L1177 471M1178 472L1179 473L1178 472M1179 473L1180 474L1179 473M1180 474L1181 475L1180 474M1181 475L1182 476L1181 475M1182.67 476.333L1183.33 476.667L1182.67 476.333M1186 479L1187 480L1186 479z"/>
<path style="fill:#344c23; stroke:none;" d="M1200.33 485.667L1200.67 486.333L1200.33 485.667z"/>
<path style="fill:#a0623a; stroke:none;" d="M1232 508L1233 509L1232 508z"/>
</svg>
