<svg xmlns="http://www.w3.org/2000/svg" width="24.421" height="30.825" viewBox="0 0 24.421 30.825">
  <g id="Group_68581" data-name="Group 68581" transform="translate(0 0)">
    <g id="Group_68582" data-name="Group 68582">
      <path id="Path_50266" data-name="Path 50266" d="M24.42,15.432q0,6.054,0,12.108a7.587,7.587,0,0,1-.073,1.259,2.462,2.462,0,0,1-2.312,2c-1.671.027-3.342.017-5.013.02q-3.492,0-6.984,0c-2.449,0-4.9-.015-7.348,0A2.582,2.582,0,0,1,.055,28.677,2.7,2.7,0,0,1,0,28.124Q0,15.393,0,2.663A2.629,2.629,0,0,1,2.111.054,8.791,8.791,0,0,1,3.522,0c.635,0,1.27.005,1.905.008q1.006,0,2.012,0c.593,0,1.185,0,1.778,0,.664,0,1.327,0,1.991,0,.614,0,1.228-.007,1.842-.007.635,0,1.27,0,1.905.006.593,0,1.185,0,1.778,0l2.034,0h1.649c.5,0,1-.015,1.5,0a2.42,2.42,0,0,1,2.259,1.525,2.539,2.539,0,0,1,.217.99c.023,2.221.021,4.443.023,6.664q0,3.118,0,6.236h.007M3.82,3.853c0,.06-.009.109-.009.157,0,1.185.007,2.371,0,3.556,0,.147.072.165.185.164.285,0,.571,0,.857,0,1,0,2,.005,3,.005,1.071,0,2.142-.006,3.212-.006,1.042,0,2.085,0,3.127.006,1.1,0,2.2,0,3.3,0,.985,0,1.97.011,2.955.015a.557.557,0,0,0,.117-.024V3.853ZM9,26.988v0c1.128,0,2.256,0,3.384,0a1.614,1.614,0,0,0,.541-.1,1.958,1.958,0,0,0-.67-3.784c-.756-.02-1.513,0-2.269,0q-.974,0-1.948,0c-.757,0-1.513-.017-2.269,0A1.972,1.972,0,0,0,3.94,25.729,2.038,2.038,0,0,0,5.747,27c1.084-.044,2.17-.012,3.256-.012M7.721,12.194a1.911,1.911,0,0,0-1.96-1.954,1.994,1.994,0,0,0-1.942,2.031,1.963,1.963,0,0,0,2.209,1.861,1.9,1.9,0,0,0,1.693-1.938m2.568.02a1.933,1.933,0,0,0,1.9,1.941,1.959,1.959,0,1,0,.058-3.917,1.9,1.9,0,0,0-1.959,1.976m0,6.459a1.9,1.9,0,0,0,1.907,1.918,1.957,1.957,0,1,0,.007-3.914,1.947,1.947,0,0,0-1.914,2m10.3-6.459A1.915,1.915,0,0,0,18.7,10.243a1.958,1.958,0,1,0,1.887,1.971M7.726,18.66A1.892,1.892,0,0,0,5.552,16.7a1.925,1.925,0,0,0-1.727,2.046,1.981,1.981,0,0,0,2.04,1.841,1.907,1.907,0,0,0,1.86-1.93m12.862-.029a1.952,1.952,0,1,0-3.9.123,1.956,1.956,0,0,0,2.044,1.837,1.922,1.922,0,0,0,1.858-1.96M18.66,27a1.95,1.95,0,0,0,.025-3.9,1.99,1.99,0,0,0-2.006,2A1.936,1.936,0,0,0,18.66,27" transform="translate(0 0.001)" fill="#fff9f9"/>
    </g>
  </g>
</svg>
