<svg xmlns="http://www.w3.org/2000/svg" width="53.063" height="32" viewBox="0 0 53.063 32">
  <g id="Group_68564" data-name="Group 68564" transform="translate(17593.072 18118.725)">
    <path id="Union_2" data-name="Union 2" d="M14.119,32a1.5,1.5,0,0,1-1.546-1.546v-3.3a5.878,5.878,0,0,1,.953-3.272,5.8,5.8,0,0,1,2.6-2.19,41.257,41.257,0,0,1,6.75-2.37,26.262,26.262,0,0,1,6.184-.721,26.572,26.572,0,0,1,6.209.721l.143.035a9.132,9.132,0,0,1,2.069-3.078,9.055,9.055,0,0,1,12.886,0,9.055,9.055,0,0,1,0,12.886,8.766,8.766,0,0,1-5.609,2.658,1.588,1.588,0,0,1-.755.175ZM23.6,22.261a34.783,34.783,0,0,0-6.235,2.215,2.691,2.691,0,0,0-1.211,1.082,2.948,2.948,0,0,0-.489,1.6v1.752H37.234a8.751,8.751,0,0,1-2.443-6.185q0-.2.008-.4l-.249-.057a25.261,25.261,0,0,0-5.488-.567A24.908,24.908,0,0,0,23.6,22.261ZM1.546,32A1.5,1.5,0,0,1,0,30.454v-3.3A5.653,5.653,0,0,1,.979,23.91a7.982,7.982,0,0,1,2.68-2.422,23.68,23.68,0,0,1,5.1-1.829,51.185,51.185,0,0,1,6.7-1.211,12.072,12.072,0,0,0-4.329,3.376,8.341,8.341,0,0,0-1.649,5.333v3.2a1.873,1.873,0,0,0,.309,1.108,1.288,1.288,0,0,0,.825.541ZM23.5,13.294a7.533,7.533,0,0,1-2.164-5.565A7.413,7.413,0,0,1,29.063,0a7.413,7.413,0,0,1,7.729,7.73,7.413,7.413,0,0,1-7.729,7.729A7.532,7.532,0,0,1,23.5,13.294Zm2.242-8.888a4.5,4.5,0,0,0-1.314,3.324,4.638,4.638,0,1,0,9.275,0,4.7,4.7,0,0,0-7.961-3.324ZM12.676,13.294a7.53,7.53,0,0,1-2.164-5.565A7.413,7.413,0,0,1,18.241,0,8.682,8.682,0,0,1,19.5.1,10.906,10.906,0,0,1,20.766.36a10.959,10.959,0,0,0-1.881,3.273,12,12,0,0,0-.644,4.1,12.913,12.913,0,0,0,.644,4.2A8.462,8.462,0,0,0,20.766,15.1a5.472,5.472,0,0,1-1.263.284,11.609,11.609,0,0,1-1.263.077A7.53,7.53,0,0,1,12.676,13.294Z" transform="translate(-17593.072 -18118.725)" fill="#2a6dd9"/>
    <path id="restart_alt_FILL0_wght400_GRAD0_opsz48" d="M164.448,219.464a5.48,5.48,0,0,1-3.931-7.706,5.2,5.2,0,0,1,1.465-1.845.492.492,0,0,1,.328-.095.48.48,0,0,1,.328.147.488.488,0,0,1,.155.4.567.567,0,0,1-.224.4,4.2,4.2,0,0,0-1.129,1.474,4.431,4.431,0,0,0,.595,4.655,4.5,4.5,0,0,0,2.534,1.543.558.558,0,0,1,.448.534.484.484,0,0,1-.172.388A.474.474,0,0,1,164.448,219.464Zm2.172,0a.474.474,0,0,1-.4-.112.484.484,0,0,1-.172-.388.558.558,0,0,1,.448-.534,4.423,4.423,0,0,0,2.534-1.543,4.478,4.478,0,0,0-3.5-7.3h-.345l.672.672a.544.544,0,0,1,0,.724.516.516,0,0,1-.379.155.461.461,0,0,1-.362-.155l-1.569-1.552a.526.526,0,0,1-.121-.172.539.539,0,0,1,0-.379.525.525,0,0,1,.121-.172l1.569-1.569a.49.49,0,0,1,.362-.138.477.477,0,0,1,.517.517.49.49,0,0,1-.138.362l-.672.672h.345a5.508,5.508,0,0,1,1.086,10.913Z" transform="translate(-17714.662 -18310.064)" fill="#fff"/>
  </g>
</svg>
