<svg xmlns="http://www.w3.org/2000/svg" xmlns:xlink="http://www.w3.org/1999/xlink" width="96.38" height="90.279" viewBox="0 0 96.38 90.279">
  <defs>
    <linearGradient id="linear-gradient" x1="0.784" y1="0.254" x2="0.072" y2="0.931" gradientUnits="objectBoundingBox">
      <stop offset="0" stop-color="#0099fa"/>
      <stop offset="1" stop-color="#003ea2"/>
    </linearGradient>
    <linearGradient id="linear-gradient-2" x1="0.85" y1="0.742" x2="0.05" y2="0.5" gradientUnits="objectBoundingBox">
      <stop offset="0" stop-color="#91d5fd"/>
      <stop offset="1" stop-color="#2a6dd9"/>
    </linearGradient>
  </defs>
  <g id="Group_64673" data-name="Group 64673" transform="translate(-100 -837.506)">
    <path id="Path_45470" data-name="Path 45470" d="M0,34.93V30.223c.595-.036.357-.487.347-.774-.007-.2-.192-.377-.144-.616A33.723,33.723,0,0,1,3.609,19.2,33.841,33.841,0,0,1,14.5,7.342,44.092,44.092,0,0,1,27.156,1.481,17.878,17.878,0,0,1,30.212.729,25.821,25.821,0,0,0,33.194.344,29.163,29.163,0,0,1,39.328.018a23.489,23.489,0,0,1,4.915.247A38.809,38.809,0,0,1,48.373.8c2.905.924,5.908,1.546,8.7,2.861a40.672,40.672,0,0,1,10.342,6.533,33.114,33.114,0,0,1,7.018,8.614,26.815,26.815,0,0,1,3.72,13.1,2.422,2.422,0,0,0,.015.563,10.028,10.028,0,0,1,.055,3.438,29.113,29.113,0,0,1-1.732,7.023A35.776,35.776,0,0,1,72.065,50.9,33.249,33.249,0,0,1,66.8,56.389a34.244,34.244,0,0,1-6.136,4.291,41.255,41.255,0,0,1-12.9,4.665,43.56,43.56,0,0,1-7.369.849c-12.2-.027-24.407-.046-36.61.023A3.64,3.64,0,0,1,0,63.923V62.417a6.383,6.383,0,0,1,1.478-1.971c2.136-2.114,4.248-4.252,6.388-6.361.378-.372.466-.574.041-1.028a27.382,27.382,0,0,1-2.134-2.677A30.569,30.569,0,0,1,.827,40.208,19.626,19.626,0,0,0,0,36.624v-.753c.329-.314.051-.628,0-.941m39.459-4.9h2.258q7.666,0,15.332,0a2.972,2.972,0,0,0,3.056-2.717,2.792,2.792,0,0,0-1.9-2.974,8.623,8.623,0,0,0-2.364-.314c-11.131-.019-22.261-.008-33.392-.025a13.516,13.516,0,0,0-2.212.206,2.862,2.862,0,0,0-.662,5.308,6.3,6.3,0,0,0,2.479.508c5.8.018,11.6.009,17.4.009M33.452,42.082c3.793,0,7.585-.011,11.378.009a3.917,3.917,0,0,0,2.1-.609c.875-.529,1.626-2.692,1.186-3.473a3.781,3.781,0,0,0-3.584-1.952q-11.378.017-22.756.008a4.457,4.457,0,0,0-2.384.572,2.729,2.729,0,0,0-1.3,2.785A2.7,2.7,0,0,0,19.8,41.775a6.135,6.135,0,0,0,2.181.294c3.824.026,7.648.012,11.472.012" transform="translate(100 837.506)" fill="url(#linear-gradient)"/>
    <path id="Path_45471" data-name="Path 45471" d="M149.649,234.154a16.787,16.787,0,0,0-3.232-.546,43.145,43.145,0,0,1-19.826-8.775,36.146,36.146,0,0,1-7.581-8.564c.285-.3.581-.182.838-.182,5.741-.008,11.483.045,17.223-.021a47.676,47.676,0,0,0,16.981-3.413,50.983,50.983,0,0,0,9.552-5.09,40.2,40.2,0,0,0,12.973-14.06,36.32,36.32,0,0,0,3.689-10.351c.176-.826.065-1.844.218-2.621.2-1.026-.055-2.155.528-3.183a33.707,33.707,0,0,1,6.418,6.79,29.25,29.25,0,0,1,4.482,9.378,28.294,28.294,0,0,1,.9,6.34,29.54,29.54,0,0,1-1.521,10.584,30.088,30.088,0,0,1-6.208,10.432c-.45.5-.4.777.045,1.217,2.17,2.133,4.313,4.293,6.463,6.446,2.005,2.009,1.738,4.058-.7,5.432a1,1,0,0,0-.189.187Z" transform="translate(3.454 693.631)" fill="url(#linear-gradient-2)"/>
  </g>
</svg>
