<svg id="Group_66643" data-name="Group 66643" xmlns="http://www.w3.org/2000/svg" width="12.092" height="14.511" viewBox="0 0 12.092 14.511">
  <path id="Path_45467" data-name="Path 45467" d="M13.488,2.418H11.613A3.029,3.029,0,0,0,8.651,0H7.442A3.029,3.029,0,0,0,4.479,2.418H2.6a.6.6,0,1,0,0,1.209h.6v7.86a3.027,3.027,0,0,0,3.023,3.023H9.86a3.027,3.027,0,0,0,3.023-3.023V3.628h.6a.6.6,0,1,0,0-1.209ZM7.442,1.209H8.651a1.817,1.817,0,0,1,1.71,1.209H5.731A1.817,1.817,0,0,1,7.442,1.209Zm4.232,10.278A1.814,1.814,0,0,1,9.86,13.3H6.232a1.814,1.814,0,0,1-1.814-1.814V3.628h7.255Z" transform="translate(-2)" fill="#e54849"/>
  <g id="Group_66642" data-name="Group 66642" transform="translate(4.232 6.046)">
    <path id="Path_45468" data-name="Path 45468" d="M9.6,14.837a.6.6,0,0,0,.6-.6V10.6A.6.6,0,1,0,9,10.6v3.628A.6.6,0,0,0,9.6,14.837Z" transform="translate(-9 -10)" fill="#e54849"/>
    <path id="Path_45469" data-name="Path 45469" d="M13.6,14.837a.6.6,0,0,0,.6-.6V10.6A.6.6,0,0,0,13,10.6v3.628A.6.6,0,0,0,13.6,14.837Z" transform="translate(-10.582 -10)" fill="#e54849"/>
  </g>
</svg>
