<svg width="14" height="14" viewBox="0 0 14 14" fill="none" xmlns="http://www.w3.org/2000/svg">
<path d="M5.81099 10.434C5.9672 10.5904 6.15271 10.7144 6.35689 10.7991C6.56108 10.8837 6.77995 10.9273 7.00099 10.9273C7.22203 10.9273 7.4409 10.8837 7.64509 10.7991C7.84928 10.7144 8.03478 10.5904 8.19099 10.434L9.99099 8.634C10.0859 8.52694 10.1363 8.38766 10.1319 8.24465C10.1275 8.10164 10.0687 7.96572 9.96738 7.86467C9.86608 7.76363 9.73 7.70511 9.58699 7.70108C9.44397 7.69706 9.30481 7.74782 9.19799 7.843L7.55799 9.483V0.832003C7.55773 0.68408 7.49906 0.542247 7.39474 0.437369C7.29043 0.332491 7.14891 0.273058 7.00099 0.272003C6.8522 0.272003 6.70951 0.331108 6.6043 0.436316C6.4991 0.541524 6.43999 0.684217 6.43999 0.833003L6.43499 9.472L4.80299 7.842C4.69677 7.74212 4.55584 7.68751 4.41006 7.68974C4.26427 7.69198 4.12508 7.75089 4.02198 7.85399C3.91888 7.95709 3.85997 8.09628 3.85773 8.24207C3.85549 8.38786 3.9101 8.52879 4.00999 8.635L5.81099 10.434Z" fill="#2A6DD9" stroke="#2A6DD9" stroke-width="0.2"/>
<path d="M13.172 9.244C13.0232 9.244 12.8805 9.30311 12.7753 9.40832C12.6701 9.51352 12.611 9.65622 12.611 9.805V12.044C12.611 12.1928 12.5519 12.3355 12.4467 12.4407C12.3415 12.5459 12.1988 12.605 12.05 12.605H1.95397C1.80519 12.605 1.66249 12.5459 1.55729 12.4407C1.45208 12.3355 1.39297 12.1928 1.39297 12.044V9.805C1.39297 9.65639 1.334 9.51385 1.22901 9.40867C1.12402 9.30349 0.981586 9.24427 0.832973 9.244C0.684186 9.244 0.541494 9.30311 0.436286 9.40832C0.331078 9.51352 0.271973 9.65622 0.271973 9.805L0.271973 12.044C0.271973 12.4901 0.449183 12.9179 0.764619 13.2334C1.08006 13.5488 1.50788 13.726 1.95397 13.726H12.048C12.4941 13.726 12.9219 13.5488 13.2373 13.2334C13.5528 12.9179 13.73 12.4901 13.73 12.044V9.805C13.73 9.65674 13.6713 9.5145 13.5667 9.40937C13.4622 9.30425 13.3202 9.2448 13.172 9.244Z" fill="#2A6DD9" stroke="#2A6DD9" stroke-width="0.2"/>
</svg>
