<svg width="17" height="13" viewBox="0 0 17 13" fill="none" xmlns="http://www.w3.org/2000/svg">
<path d="M16.1 5.53C15.508 4.232 13.181 0 8.111 0C3.041 0 0.715004 4.232 0.121004 5.53C0.0412728 5.70398 0 5.89312 0 6.0845C0 6.27588 0.0412728 6.46502 0.121004 6.639C0.714004 7.939 3.042 12.167 8.111 12.167C13.18 12.167 15.511 7.935 16.101 6.637C16.1803 6.46323 16.2213 6.27441 16.2211 6.08339C16.221 5.89237 16.1797 5.70362 16.1 5.53ZM8.11 10.815C3.847 10.815 1.858 7.188 1.351 6.091C1.858 4.979 3.851 1.352 8.11 1.352C12.369 1.352 14.353 4.964 14.869 6.084C14.354 7.2 12.364 10.815 8.111 10.815H8.11Z" fill="#2A6DD9"/>
<path d="M8.11099 2.70399C7.44249 2.70399 6.789 2.90223 6.23316 3.27363C5.67732 3.64503 5.2441 4.17291 4.98828 4.79052C4.73245 5.40814 4.66552 6.08774 4.79593 6.7434C4.92635 7.39906 5.24827 8.00131 5.72097 8.47402C6.19367 8.94672 6.79593 9.26863 7.45158 9.39905C8.10724 9.52947 8.78684 9.46253 9.40446 9.20671C10.0221 8.95088 10.55 8.51766 10.9214 7.96182C11.2928 7.40598 11.491 6.7525 11.491 6.08399C11.491 5.18756 11.1349 4.32785 10.501 3.69397C9.86714 3.0601 9.00742 2.70399 8.11099 2.70399ZM8.11099 8.11199C7.70989 8.11199 7.3178 7.99305 6.98429 7.77022C6.65079 7.54738 6.39086 7.23065 6.23736 6.86008C6.08387 6.48951 6.04371 6.08175 6.12196 5.68835C6.20021 5.29496 6.39336 4.9336 6.67698 4.64998C6.9606 4.36636 7.32195 4.17321 7.71535 4.09496C8.10874 4.01671 8.5165 4.05687 8.88707 4.21037C9.25764 4.36386 9.57437 4.6238 9.79721 4.9573C10.02 5.2908 10.139 5.68289 10.139 6.08399C10.139 6.62185 9.92533 7.13768 9.545 7.51801C9.16468 7.89833 8.64885 8.11199 8.11099 8.11199Z" fill="#2A6DD9"/>
</svg>
