<?xml version="1.0" encoding="UTF-8" standalone="no"?>
<!DOCTYPE svg PUBLIC "-//W3C//DTD SVG 1.1//EN" "http://www.w3.org/Graphics/SVG/1.1/DTD/svg11.dtd">
<svg width="100%" height="100%" viewBox="0 0 500 500" version="1.1" xmlns="http://www.w3.org/2000/svg" xmlns:xlink="http://www.w3.org/1999/xlink" xml:space="preserve" xmlns:serif="http://www.serif.com/" style="fill-rule:evenodd;clip-rule:evenodd;stroke-linejoin:round;stroke-miterlimit:2;">
    <g transform="matrix(1.16579,0,0,1.16579,2,9.98957)">
        <path d="M264.345,281.81L426.208,281.81L426.208,188.965L264.345,188.965L264.345,281.81ZM427.208,282.81L263.345,282.81L263.345,187.965L427.208,187.965L427.208,282.81Z" style="fill:rgb(225,226,225);fill-rule:nonzero;"/>
    </g>
    <g transform="matrix(1.16579,0,0,1.16579,2,9.98957)">
        <rect x="285.273" y="238.536" width="108.135" height="3.172" style="fill:rgb(241,242,243);fill-rule:nonzero;"/>
    </g>
    <g transform="matrix(1.16579,0,0,1.16579,2,9.98957)">
        <rect x="285.273" y="250.358" width="115.582" height="3.461" style="fill:rgb(241,242,243);fill-rule:nonzero;"/>
    </g>
    <g transform="matrix(1.16579,0,0,1.16579,2,9.98957)">
        <rect x="285.273" y="262.317" width="115.582" height="3.461" style="fill:rgb(241,242,243);fill-rule:nonzero;"/>
    </g>
    <g transform="matrix(1.16579,0,0,1.16579,2,9.98957)">
        <rect x="285.273" y="221.367" width="37.792" height="8.23" style="fill:rgb(241,242,243);fill-rule:nonzero;"/>
    </g>
    <g transform="matrix(1.16579,0,0,1.16579,2,9.98957)">
        <rect x="263.845" y="188.465" width="162.863" height="15.099" style="fill:rgb(225,226,225);fill-rule:nonzero;"/>
    </g>
    <g transform="matrix(1.16579,0,0,1.16579,2,9.98957)">
        <path d="M414.176,201.308C413.968,201.109 416.067,198.578 418.863,195.655C421.66,192.731 424.095,190.523 424.303,190.722C424.511,190.92 422.413,193.451 419.616,196.375C416.82,199.298 414.384,201.507 414.176,201.308Z" style="fill:white;fill-rule:nonzero;"/>
    </g>
    <g transform="matrix(1.16579,0,0,1.16579,2,9.98957)">
        <path d="M424.303,201.308C424.095,201.507 421.66,199.298 418.864,196.375C416.066,193.451 413.968,190.92 414.176,190.722C414.384,190.523 416.819,192.731 419.616,195.655C422.413,198.578 424.511,201.109 424.303,201.308Z" style="fill:white;fill-rule:nonzero;"/>
    </g>
    <g transform="matrix(1.16579,0,0,1.16579,2,9.98957)">
        <rect x="62.682" y="0.663" width="162.864" height="93.845" style="fill:rgb(231,231,231);fill-rule:nonzero;"/>
    </g>
    <g transform="matrix(1.16579,0,0,1.16579,2,9.98957)">
        <rect x="84.11" y="50.733" width="108.135" height="3.172" style="fill:rgb(241,242,243);fill-rule:nonzero;"/>
    </g>
    <g transform="matrix(1.16579,0,0,1.16579,2,9.98957)">
        <rect x="84.11" y="62.556" width="115.583" height="3.46" style="fill:rgb(241,242,243);fill-rule:nonzero;"/>
    </g>
    <g transform="matrix(1.16579,0,0,1.16579,2,9.98957)">
        <rect x="84.11" y="74.515" width="115.583" height="3.46" style="fill:rgb(241,242,243);fill-rule:nonzero;"/>
    </g>
    <g transform="matrix(1.16579,0,0,1.16579,2,9.98957)">
        <rect x="84.11" y="33.564" width="37.792" height="8.23" style="fill:rgb(241,242,243);fill-rule:nonzero;"/>
    </g>
    <g transform="matrix(1.16579,0,0,1.16579,2,9.98957)">
        <rect x="62.682" y="0.663" width="162.864" height="15.098" style="fill:rgb(225,226,225);fill-rule:nonzero;"/>
    </g>
    <g transform="matrix(1.16579,0,0,1.16579,2,9.98957)">
        <path d="M212.456,13.433C212.248,13.234 214.346,10.703 217.142,7.78C219.939,4.856 222.375,2.648 222.583,2.847C222.791,3.045 220.692,5.576 217.895,8.5C215.099,11.423 212.664,13.632 212.456,13.433Z" style="fill:white;fill-rule:nonzero;"/>
    </g>
    <g transform="matrix(1.16579,0,0,1.16579,2,9.98957)">
        <path d="M222.583,13.433C222.375,13.632 219.939,11.423 217.143,8.5C214.345,5.576 212.248,3.045 212.456,2.847C212.664,2.648 215.098,4.856 217.895,7.78C220.692,10.703 222.791,13.234 222.583,13.433Z" style="fill:white;fill-rule:nonzero;"/>
    </g>
    <g transform="matrix(1.16579,0,0,1.16579,2,9.98957)">
        <path d="M1,173.997L162.863,173.997L162.863,81.153L1,81.153L1,173.997ZM163.863,174.997L0,174.997L0,80.153L163.863,80.153L163.863,174.997Z" style="fill:rgb(225,226,225);fill-rule:nonzero;"/>
    </g>
    <g transform="matrix(1.16579,0,0,1.16579,2,9.98957)">
        <rect x="21.927" y="130.723" width="108.136" height="3.172" style="fill:rgb(241,242,243);fill-rule:nonzero;"/>
    </g>
    <g transform="matrix(1.16579,0,0,1.16579,2,9.98957)">
        <rect x="21.927" y="142.546" width="115.583" height="3.46" style="fill:rgb(241,242,243);fill-rule:nonzero;"/>
    </g>
    <g transform="matrix(1.16579,0,0,1.16579,2,9.98957)">
        <rect x="21.927" y="154.505" width="115.583" height="3.46" style="fill:rgb(241,242,243);fill-rule:nonzero;"/>
    </g>
    <g transform="matrix(1.16579,0,0,1.16579,2,9.98957)">
        <rect x="21.927" y="113.554" width="37.792" height="8.23" style="fill:rgb(241,242,243);fill-rule:nonzero;"/>
    </g>
    <g transform="matrix(1.16579,0,0,1.16579,2,9.98957)">
        <rect x="0.5" y="80.653" width="162.863" height="15.098" style="fill:rgb(225,226,225);fill-rule:nonzero;"/>
    </g>
    <g transform="matrix(1.16579,0,0,1.16579,2,9.98957)">
        <rect x="160.671" y="196.732" width="192.304" height="172.157" style="fill:rgb(231,231,231);fill-rule:nonzero;"/>
    </g>
    <g transform="matrix(1.16579,0,0,1.16579,2,9.98957)">
        <rect x="19.7" y="142.5" width="150.638" height="156.509" style="fill:rgb(241,242,243);fill-rule:nonzero;"/>
    </g>
    <g transform="matrix(1.16579,0,0,1.16579,2,9.98957)">
        <rect x="19.7" y="142.5" width="150.638" height="17.053" style="fill:rgb(225,226,225);fill-rule:nonzero;"/>
    </g>
    <g transform="matrix(1.16579,0,0,1.16579,2,9.98957)">
        <path d="M32.14,150.851C32.14,152.677 30.724,154.157 28.977,154.157C27.23,154.157 25.814,152.677 25.814,150.851C25.814,149.026 27.23,147.545 28.977,147.545C30.724,147.545 32.14,149.026 32.14,150.851Z" style="fill:white;fill-rule:nonzero;"/>
    </g>
    <g transform="matrix(1.16579,0,0,1.16579,2,9.98957)">
        <path d="M44.968,150.851C44.968,152.677 43.552,154.157 41.806,154.157C40.059,154.157 38.643,152.677 38.643,150.851C38.643,149.026 40.059,147.545 41.806,147.545C43.552,147.545 44.968,149.026 44.968,150.851Z" style="fill:white;fill-rule:nonzero;"/>
    </g>
    <g transform="matrix(1.16579,0,0,1.16579,2,9.98957)">
        <path d="M57.797,150.851C57.797,152.677 56.381,154.157 54.634,154.157C52.888,154.157 51.472,152.677 51.472,150.851C51.472,149.026 52.888,147.545 54.634,147.545C56.381,147.545 57.797,149.026 57.797,150.851Z" style="fill:white;fill-rule:nonzero;"/>
    </g>
    <g transform="matrix(1.16579,0,0,1.16579,2,9.98957)">
        <rect x="213.4" y="34.893" width="192.304" height="191.661" style="fill:rgb(241,242,243);fill-rule:nonzero;"/>
    </g>
    <g transform="matrix(1.16579,0,0,1.16579,2,9.98957)">
        <rect x="213.4" y="34.893" width="192.304" height="22.45" style="fill:rgb(225,226,225);fill-rule:nonzero;"/>
    </g>
    <g transform="matrix(1.16579,0,0,1.16579,2,9.98957)">
        <path d="M229.777,45.888C229.777,48.291 227.913,50.24 225.613,50.24C223.314,50.24 221.45,48.291 221.45,45.888C221.45,43.484 223.314,41.536 225.613,41.536C227.913,41.536 229.777,43.484 229.777,45.888Z" style="fill:white;fill-rule:nonzero;"/>
    </g>
    <g transform="matrix(1.16579,0,0,1.16579,2,9.98957)">
        <path d="M245.447,42.944C247.146,44.643 247.206,47.339 245.58,48.965C243.954,50.591 241.257,50.531 239.558,48.832C237.859,47.132 237.798,44.436 239.424,42.81C241.05,41.184 243.747,41.244 245.447,42.944Z" style="fill:white;fill-rule:nonzero;"/>
    </g>
    <g transform="matrix(1.16579,0,0,1.16579,2,9.98957)">
        <path d="M263.555,45.888C263.555,48.291 261.691,50.24 259.39,50.24C257.091,50.24 255.228,48.291 255.228,45.888C255.228,43.484 257.091,41.536 259.39,41.536C261.691,41.536 263.555,43.484 263.555,45.888Z" style="fill:white;fill-rule:nonzero;"/>
    </g>
    <g transform="matrix(1.16579,0,0,1.16579,2,9.98957)">
        <path d="M364.162,419.739C364.162,419.883 294.722,420 209.085,420C123.417,420 53.993,419.883 53.993,419.739C53.993,419.596 123.417,419.478 209.085,419.478C294.722,419.478 364.162,419.596 364.162,419.739Z" style="fill:rgb(24,46,53);fill-rule:nonzero;"/>
    </g>
    <g transform="matrix(1.16579,0,0,1.16579,2,9.98957)">
        <path d="M296.499,297.32C281.05,286.527 277.545,266.494 278.157,248.486C278.258,245.48 277.928,242.311 279.358,239.674C280.789,237.037 284.125,235.234 286.816,236.501C289.048,237.552 290.021,240.148 291.27,242.296C292.931,245.153 295.407,247.517 298.32,249.029C300.234,250.022 302.602,250.63 304.492,249.588C307.084,248.157 307.39,244.575 307.372,241.585C307.336,236.013 307.302,230.44 307.267,224.869C307.249,221.88 307.24,218.827 308.169,215.99C309.099,213.152 311.154,210.517 313.998,209.72C316.842,208.923 320.359,210.563 320.959,213.489C321.209,214.707 320.961,215.971 321.044,217.212C321.127,218.453 321.706,219.826 322.884,220.172C324.078,220.522 325.274,219.675 326.167,218.8C329.253,215.781 331.347,211.892 333.304,208.025C335.261,204.158 337.161,200.199 339.96,196.907C342.76,193.614 346.633,191.005 350.915,190.763C355.197,190.52 359.758,193.163 360.84,197.366C361.925,201.581 359.466,205.857 356.791,209.269C352.821,214.331 348.125,218.808 342.896,222.514C341.954,223.183 340.932,223.905 340.572,225.013C339.922,227.006 341.811,228.985 343.779,229.641C346.007,230.383 348.425,230.151 350.756,230.426C353.087,230.7 355.613,231.728 356.495,233.932C357.719,236.987 355.164,240.19 352.649,242.288C347.614,246.489 341.864,249.808 335.73,252.055C333.531,252.859 331.216,253.565 329.443,255.11C327.669,256.656 326.599,259.343 327.67,261.449C328.743,263.557 331.493,264.23 333.796,263.803C336.099,263.376 338.162,262.126 340.357,261.298C344.465,259.747 349.771,260.029 352.403,263.58C354.132,265.914 354.285,269.164 353.41,271.946C352.536,274.728 350.761,277.125 348.877,279.335C342.292,287.06 333.863,293.28 324.332,296.585C314.801,299.89 305.97,300.784 296.499,297.32Z" style="fill:rgb(42,109,217);fill-rule:nonzero;"/>
    </g>
    <g transform="matrix(1.16579,0,0,1.16579,2,9.98957)">
        <path d="M356.521,193.266C356.528,193.273 356.429,193.369 356.231,193.55C356.01,193.747 355.716,194.008 355.343,194.341C354.56,195.033 353.406,196.055 351.955,197.41C349.049,200.11 344.968,204.175 340.536,209.735C338.311,212.506 336,215.643 333.579,219.056C331.164,222.475 328.606,226.143 326.062,230.101C323.518,234.058 320.971,238.298 318.686,242.879C317.534,245.164 316.506,247.556 315.458,249.994C314.415,252.432 313.357,254.905 312.286,257.408C308.038,267.434 304.301,277.125 301.631,286.178C298.946,295.223 297.348,303.605 296.649,310.709C295.932,317.815 296.079,323.615 296.369,327.595C296.525,329.585 296.677,331.13 296.818,332.172C296.875,332.672 296.921,333.065 296.956,333.36C296.984,333.629 296.994,333.767 296.985,333.769C296.975,333.77 296.947,333.636 296.9,333.369C296.853,333.076 296.789,332.684 296.708,332.187C296.532,331.148 296.344,329.605 296.155,327.612C295.799,323.629 295.592,317.809 296.262,310.671C296.915,303.537 298.479,295.112 301.147,286.031C303.797,276.943 307.529,267.223 311.781,257.19C312.853,254.685 313.913,252.211 314.957,249.772C316.004,247.341 317.043,244.929 318.206,242.633C320.51,238.029 323.077,233.779 325.639,229.821C328.201,225.86 330.776,222.195 333.208,218.786C335.65,215.38 337.985,212.249 340.235,209.486C344.719,203.94 348.858,199.904 351.812,197.249C353.287,195.916 354.464,194.92 355.272,194.256C355.661,193.94 355.965,193.692 356.195,193.506C356.405,193.34 356.515,193.258 356.521,193.266Z" style="fill:rgb(24,46,53);fill-rule:nonzero;"/>
    </g>
    <g transform="matrix(1.16579,0,0,1.16579,2,9.98957)">
        <path d="M318.363,242.611C318.326,242.617 318.224,242.163 318.071,241.336C317.914,240.51 317.726,239.308 317.516,237.818C317.093,234.842 316.65,230.711 316.178,226.155C315.707,221.597 315.206,217.484 314.739,214.522C314.509,213.041 314.312,211.843 314.165,211.017C314.022,210.19 313.96,209.728 313.998,209.72C314.035,209.711 314.167,210.157 314.374,210.973C314.585,211.787 314.842,212.977 315.121,214.455C315.688,217.411 316.252,221.533 316.724,226.096C317.178,230.593 317.588,234.661 317.902,237.769C318.052,239.173 318.18,240.355 318.283,241.305C318.37,242.14 318.401,242.605 318.363,242.611Z" style="fill:rgb(24,46,53);fill-rule:nonzero;"/>
    </g>
    <g transform="matrix(1.16579,0,0,1.16579,2,9.98957)">
        <path d="M356.8,235.428C356.801,235.466 356.254,235.529 355.267,235.611C354.281,235.699 352.853,235.818 351.094,236.022C347.574,236.402 342.729,237.098 337.417,238.099C332.106,239.109 327.338,240.228 323.914,241.138C322.197,241.58 320.818,241.976 319.863,242.243C318.909,242.515 318.375,242.647 318.363,242.611C318.351,242.574 318.863,242.372 319.799,242.036C320.737,241.705 322.103,241.251 323.811,240.758C327.219,239.749 331.99,238.565 337.317,237.551C342.644,236.548 347.516,235.911 351.057,235.631C352.827,235.476 354.263,235.416 355.256,235.395C356.25,235.38 356.798,235.389 356.8,235.428Z" style="fill:rgb(24,46,53);fill-rule:nonzero;"/>
    </g>
    <g transform="matrix(1.16579,0,0,1.16579,2,9.98957)">
        <path d="M301.62,285.324C301.602,285.332 301.512,285.171 301.356,284.855C301.178,284.479 300.961,284.02 300.699,283.465C300.133,282.255 299.361,280.482 298.435,278.28C296.581,273.877 294.21,267.714 291.687,260.878C289.162,254.039 286.852,247.862 285.092,243.427C284.23,241.27 283.52,239.497 282.993,238.179C282.767,237.606 282.582,237.135 282.429,236.747C282.306,236.418 282.25,236.241 282.267,236.232C282.285,236.226 282.375,236.387 282.531,236.702C282.708,237.078 282.925,237.536 283.188,238.092C283.753,239.302 284.526,241.074 285.452,243.276C287.306,247.68 289.676,253.843 292.201,260.682C294.725,267.518 297.035,273.694 298.794,278.131C299.658,280.286 300.367,282.06 300.894,283.378C301.12,283.95 301.305,284.423 301.458,284.809C301.581,285.14 301.637,285.316 301.62,285.324Z" style="fill:rgb(24,46,53);fill-rule:nonzero;"/>
    </g>
    <g transform="matrix(1.16579,0,0,1.16579,2,9.98957)">
        <path d="M352.697,268.862C352.702,268.881 352.527,268.952 352.19,269.071C351.791,269.205 351.3,269.369 350.707,269.568C349.336,270.013 347.487,270.612 345.237,271.341C340.619,272.839 334.264,274.98 327.246,277.356C320.225,279.734 313.844,281.819 309.194,283.222C306.869,283.924 304.982,284.473 303.67,284.825C303.064,284.984 302.564,285.115 302.158,285.223C301.81,285.308 301.625,285.343 301.62,285.324C301.615,285.306 301.79,285.234 302.126,285.114C302.525,284.981 303.015,284.817 303.61,284.618C304.98,284.174 306.829,283.575 309.079,282.846C313.697,281.349 320.052,279.206 327.073,276.829C334.091,274.452 340.471,272.367 345.122,270.965C347.447,270.263 349.333,269.714 350.646,269.361C351.252,269.202 351.751,269.07 352.159,268.964C352.506,268.879 352.691,268.844 352.697,268.862Z" style="fill:rgb(24,46,53);fill-rule:nonzero;"/>
    </g>
    <g transform="matrix(1.16579,0,0,1.16579,2,9.98957)">
        <path d="M321.188,72.174L324.849,83.357C325.003,83.83 324.733,84.313 324.276,84.477L319.154,86.309C318.762,86.449 318.26,86.242 318.106,85.769L314.445,74.586C310.478,74.419 306.795,71.789 305.417,67.582C303.647,62.173 306.417,56.26 311.608,54.403C316.796,52.547 322.45,55.447 324.221,60.856C325.598,65.063 324.229,69.5 321.188,72.174ZM291.179,33.322C288.953,26.519 292.428,19.092 298.936,16.764C305.438,14.438 312.542,18.081 314.769,24.883L316.972,31.613L293.382,40.051L291.179,33.322ZM331.86,26.287L326.707,28.13L324.503,21.401C320.44,8.989 307.469,2.348 295.606,6.592C283.736,10.838 277.39,24.389 281.454,36.801L283.657,43.53L278.487,45.379C274.466,46.818 272.291,51.451 273.667,55.659L288.003,99.449C289.402,103.719 293.84,105.997 297.86,104.559L351.234,85.467C355.319,84.005 357.497,79.361 356.098,75.09L341.762,31.3C340.385,27.092 335.945,24.826 331.86,26.287Z" style="fill:rgb(42,109,217);fill-rule:nonzero;"/>
    </g>
    <g transform="matrix(1.16579,0,0,1.16579,2,9.98957)">
        <path d="M326.482,28.01C326.531,28.145 316.932,31.739 305.044,36.035C293.154,40.333 283.477,43.707 283.428,43.572C283.379,43.436 292.976,39.844 304.868,35.545C316.754,31.249 326.433,27.874 326.482,28.01Z" style="fill:rgb(24,46,53);fill-rule:nonzero;"/>
    </g>
    <g transform="matrix(1.16579,0,0,1.16579,2,9.98957)">
        <path d="M337.816,29.852C337.825,29.849 337.864,29.938 337.931,30.114C338.007,30.318 338.103,30.577 338.222,30.898C338.479,31.627 338.836,32.641 339.291,33.929C340.209,36.606 341.517,40.415 343.127,45.107C344.733,49.844 346.639,55.467 348.754,61.707C349.799,64.84 350.941,68.095 352.036,71.533C352.542,73.261 352.961,75.108 352.786,77.021C352.697,77.97 352.439,78.925 351.976,79.788C351.505,80.647 350.848,81.401 350.086,82.016C348.549,83.245 346.75,83.963 345.011,84.607C343.266,85.234 341.545,85.852 339.856,86.459C336.476,87.668 333.216,88.835 330.109,89.948C323.901,92.158 318.307,94.15 313.595,95.828C308.916,97.474 305.117,98.81 302.447,99.749C301.156,100.191 300.138,100.539 299.408,100.789C299.082,100.895 298.82,100.98 298.613,101.048C298.432,101.103 298.338,101.128 298.335,101.119C298.333,101.111 298.42,101.07 298.594,100.998C298.797,100.918 299.053,100.817 299.372,100.691C300.095,100.419 301.101,100.039 302.378,99.558C305.035,98.581 308.815,97.192 313.471,95.481C318.171,93.773 323.752,91.746 329.947,89.496C333.05,88.375 336.307,87.198 339.683,85.979C341.372,85.37 343.089,84.75 344.833,84.121C346.557,83.482 348.308,82.773 349.758,81.611C350.477,81.031 351.083,80.331 351.519,79.541C351.945,78.745 352.185,77.864 352.27,76.971C352.439,75.174 352.042,73.379 351.546,71.677C350.469,68.273 349.329,64.989 348.299,61.86C346.224,55.606 344.354,49.971 342.778,45.224C341.234,40.51 339.979,36.683 339.098,33.994C338.683,32.692 338.357,31.668 338.123,30.932C338.023,30.603 337.944,30.34 337.881,30.131C337.83,29.95 337.807,29.855 337.816,29.852Z" style="fill:rgb(24,46,53);fill-rule:nonzero;"/>
    </g>
    <g transform="matrix(1.16579,0,0,1.16579,2,9.98957)">
        <path d="M309.662,16.062C309.635,16.106 309.13,15.793 308.148,15.397C307.163,15.021 305.672,14.582 303.783,14.522C301.906,14.453 299.622,14.744 297.341,15.739C295.07,16.724 292.832,18.47 291.229,20.847C289.595,23.215 288.88,25.955 288.879,28.44C288.858,30.936 289.388,33.16 289.897,34.984C290.424,36.81 290.963,38.259 291.318,39.265C291.677,40.271 291.871,40.83 291.835,40.844C291.803,40.856 291.546,40.324 291.128,39.339C290.715,38.353 290.123,36.921 289.544,35.089C288.985,33.26 288.405,31.009 288.399,28.437C288.372,25.88 289.104,23.006 290.797,20.555C292.459,18.091 294.789,16.294 297.151,15.299C299.522,14.293 301.876,14.036 303.8,14.154C305.737,14.264 307.25,14.77 308.227,15.211C308.711,15.448 309.082,15.641 309.314,15.805C309.552,15.959 309.671,16.046 309.662,16.062Z" style="fill:rgb(24,46,53);fill-rule:nonzero;"/>
    </g>
    <g transform="matrix(1.16579,0,0,1.16579,2,9.98957)">
        <path d="M310.116,55.192C310.11,55.179 310.283,55.094 310.623,54.94C310.959,54.783 311.475,54.582 312.166,54.385C312.85,54.17 313.728,54.014 314.764,53.953C315.797,53.902 317.014,54.009 318.272,54.476C320.827,55.374 323.182,57.986 324.338,61.447C324.894,63.195 324.944,65.224 324.384,67.188C323.789,69.142 322.695,71.018 321.115,72.594L321.18,72.329C322.508,75.974 323.955,79.941 325.46,84.068L325.551,84.319L325.298,84.404C324.574,84.646 323.795,84.908 323.012,85.17C321.328,85.734 319.667,86.29 318.037,86.836L317.791,86.918L317.709,86.672C316.339,82.525 314.838,78.617 313.749,74.88L313.964,75.051C311.917,74.914 310.078,74.055 308.613,72.934C307.142,71.803 306.015,70.4 305.254,68.922C304.507,67.441 304.131,65.868 304.195,64.418C304.232,62.97 304.566,61.659 305.034,60.554C305.966,58.325 307.357,56.923 308.386,56.158C309.435,55.391 310.116,55.192 310.116,55.192C310.14,55.237 309.481,55.488 308.48,56.279C307.499,57.069 306.173,58.473 305.301,60.663C304.43,62.801 304.052,65.872 305.61,68.739C306.357,70.156 307.458,71.503 308.881,72.582C310.298,73.65 312.066,74.455 313.991,74.573L314.16,74.583L314.207,74.743C315.309,78.453 316.819,82.347 318.201,86.509L317.873,86.345C319.501,85.799 321.163,85.241 322.847,84.676C323.63,84.414 324.408,84.153 325.133,83.911L324.971,84.245C323.476,80.115 322.039,76.144 320.719,72.496L320.666,72.349L320.785,72.231C322.281,70.752 323.371,68.919 323.945,67.058C324.491,65.182 324.458,63.252 323.941,61.569C322.848,58.209 320.601,55.656 318.164,54.759C316.96,54.289 315.783,54.161 314.771,54.188C313.757,54.224 312.89,54.353 312.207,54.541C310.833,54.894 310.133,55.236 310.116,55.192Z" style="fill:rgb(24,46,53);fill-rule:nonzero;"/>
    </g>
    <g transform="matrix(1.16579,0,0,1.16579,2,9.98957)">
        <path d="M279.21,343.926L179.33,343.464C167.317,343.409 157.622,333.628 157.673,321.615L158.731,71.212C158.782,59.192 168.569,49.491 180.589,49.546L280.47,50.008C292.483,50.063 302.177,59.844 302.126,71.857L301.068,322.261C301.017,334.28 291.23,343.981 279.21,343.926Z" style="fill:rgb(55,90,101);fill-rule:nonzero;"/>
    </g>
    <g transform="matrix(1.16579,0,0,1.16579,2,9.98957)">
        <path d="M280.328,58.65L260.962,58.56C258.366,58.549 256.25,60.74 256.239,63.454L256.224,66.967C256.213,69.682 254.098,71.873 251.501,71.861L213.754,71.687C211.158,71.675 209.062,69.464 209.073,66.749L209.088,63.237C209.099,60.522 207.003,58.311 204.406,58.299L197.595,58.267L180.646,58.189C172.228,58.151 165.374,64.945 165.338,73.363L164.305,317.774C164.269,326.188 171.059,333.038 179.472,333.077L279.154,333.537C287.571,333.576 294.425,326.782 294.461,318.364L295.495,73.952C295.53,65.538 288.741,58.689 280.328,58.65Z" style="fill:white;fill-rule:nonzero;"/>
    </g>
    <g transform="matrix(1.16579,0,0,1.16579,2,9.98957)">
        <path d="M266.913,300.933L192.789,300.591C192.021,300.587 191.403,299.752 191.407,298.725L191.489,279.333C191.493,278.306 192.119,277.476 192.887,277.479L267.01,277.822C267.778,277.826 268.397,278.661 268.392,279.688L268.31,299.079C268.306,300.106 267.68,300.936 266.913,300.933Z" style="fill:rgb(42,109,217);fill-rule:nonzero;"/>
    </g>
    <g transform="matrix(1.16579,0,0,1.16579,2,9.98957)">
        <path d="M215.487,285.715C214.28,285.709 213.46,286.328 213.455,287.324C213.447,289.39 216.451,288.682 216.445,289.976C216.443,290.425 216.053,290.68 215.402,290.677C214.807,290.674 214.093,290.372 213.524,289.822L213.116,290.666C213.685,291.217 214.509,291.594 215.382,291.598C216.605,291.604 217.481,290.969 217.485,289.931C217.502,287.84 214.498,288.507 214.504,287.237C214.505,286.847 214.863,286.633 215.411,286.635C215.832,286.637 216.435,286.798 217.037,287.182L217.429,286.321C216.915,285.962 216.209,285.718 215.487,285.715Z" style="fill:rgb(233,233,228);fill-rule:nonzero;"/>
    </g>
    <g transform="matrix(1.16579,0,0,1.16579,2,9.98957)">
        <path d="M219.511,291.585L219.536,285.775L218.599,285.771L218.574,291.58L219.511,291.585Z" style="fill:rgb(233,233,228);fill-rule:nonzero;"/>
    </g>
    <g transform="matrix(1.16579,0,0,1.16579,2,9.98957)">
        <path d="M225.791,291.613L225.815,285.804L224.894,285.8L224.877,289.974L221.917,285.786L220.996,285.782L220.972,291.591L221.909,291.595L221.926,287.429L224.87,291.609L225.791,291.613Z" style="fill:rgb(233,233,228);fill-rule:nonzero;"/>
    </g>
    <g transform="matrix(1.16579,0,0,1.16579,2,9.98957)">
        <path d="M231.074,288.783L231.067,290.401C230.669,290.649 230.2,290.796 229.787,290.794C228.652,290.789 227.759,289.88 227.763,288.718C227.768,287.564 228.661,286.664 229.797,286.669C230.376,286.672 230.971,286.924 231.398,287.341L231.932,286.621C231.387,286.121 230.594,285.802 229.8,285.798C228.117,285.79 226.818,287.054 226.811,288.714C226.804,290.373 228.077,291.666 229.72,291.673C230.482,291.677 231.317,291.374 231.883,290.928L231.892,288.787L231.074,288.783Z" style="fill:rgb(233,233,228);fill-rule:nonzero;"/>
    </g>
    <g transform="matrix(1.16579,0,0,1.16579,2,9.98957)">
        <path d="M240.002,285.869L239.066,285.865L239.051,289.267C239.047,290.255 238.481,290.833 237.576,290.829C236.663,290.825 236.086,290.233 236.09,289.254L236.104,285.851L235.168,285.847L235.153,289.249C235.147,290.768 236.064,291.702 237.564,291.709C239.065,291.716 239.982,290.79 239.988,289.272L240.002,285.869Z" style="fill:rgb(233,233,228);fill-rule:nonzero;"/>
    </g>
    <g transform="matrix(1.16579,0,0,1.16579,2,9.98957)">
        <path d="M241.344,285.876L241.32,291.685L242.256,291.689L242.264,289.938L243.542,289.944C244.939,289.95 245.744,289.191 245.75,287.879C245.755,286.618 244.956,285.892 243.559,285.886L241.344,285.876ZM242.277,286.76L243.516,286.765C244.373,286.769 244.856,287.137 244.853,287.9C244.849,288.689 244.363,289.068 243.506,289.064L242.267,289.058L242.277,286.76Z" style="fill:rgb(233,233,228);fill-rule:nonzero;"/>
    </g>
    <g transform="matrix(1.16579,0,0,1.16579,2,9.98957)">
        <path d="M207.534,135.197L181.818,135.078L181.838,130.359L207.554,130.478L207.534,135.197Z" style="fill:rgb(42,109,217);fill-rule:nonzero;"/>
    </g>
    <g transform="matrix(1.16579,0,0,1.16579,2,9.98957)">
        <path d="M207.534,135.197L181.818,135.078L181.838,130.359L207.554,130.478L207.534,135.197Z" style="fill:rgb(42,109,217);fill-rule:nonzero;"/>
    </g>
    <g transform="matrix(1.16579,0,0,1.16579,2,9.98957)">
        <path d="M282.974,159.434C282.97,159.414 283.189,159.446 283.561,159.296C283.912,159.16 284.466,158.734 284.53,157.951C284.527,156.356 284.522,154.038 284.516,151.061C284.516,149.563 284.515,147.899 284.514,146.079C284.515,145.624 284.515,145.159 284.515,144.684C284.528,144.199 284.527,143.748 284.235,143.374C283.972,143.004 283.522,142.767 283.052,142.765C282.54,142.764 282.017,142.763 281.486,142.762C277.231,142.754 272.39,142.744 267.042,142.734C245.619,142.654 216.054,142.545 183.401,142.424C182.97,142.42 182.549,142.631 182.299,142.981C182.021,143.334 182.033,143.752 182.04,144.288C182.035,145.303 182.031,146.314 182.026,147.323C182.018,149.339 182.009,151.343 182,153.331C181.996,154.326 181.991,155.316 181.986,156.303C182.002,156.776 181.94,157.342 182.028,157.709C182.127,158.111 182.431,158.451 182.809,158.611C183.005,158.691 183.189,158.719 183.427,158.717L184.159,158.721L185.619,158.727C186.59,158.732 187.557,158.737 188.52,158.742C196.221,158.783 203.649,158.823 210.727,158.86C224.876,158.946 237.62,159.024 248.33,159.089C259.018,159.174 267.675,159.242 273.679,159.289C276.657,159.324 278.976,159.351 280.571,159.37C281.345,159.385 281.94,159.396 282.363,159.404C282.767,159.415 282.974,159.434 282.974,159.434C282.974,159.434 282.767,159.451 282.363,159.457C281.94,159.462 281.345,159.468 280.571,159.475C278.975,159.479 276.656,159.485 273.678,159.492C267.673,159.484 259.017,159.472 248.328,159.458C237.619,159.424 224.875,159.384 210.725,159.34C203.647,159.312 196.219,159.283 188.518,159.252C187.555,159.248 186.588,159.245 185.617,159.24L184.157,159.234L183.425,159.231C183.175,159.236 182.865,159.197 182.609,159.085C182.085,158.865 181.668,158.396 181.529,157.84C181.45,157.558 181.468,157.271 181.467,157.04L181.47,156.301C181.474,155.314 181.478,154.323 181.482,153.329C181.49,151.34 181.498,149.337 181.506,147.321C181.51,146.312 181.515,145.301 181.519,144.286C181.526,144.026 181.504,143.798 181.544,143.487C181.589,143.195 181.702,142.913 181.878,142.675C182.221,142.192 182.811,141.896 183.403,141.903C216.056,142.083 245.621,142.247 267.042,142.366C272.392,142.405 277.233,142.44 281.488,142.471C282.019,142.475 282.542,142.479 283.054,142.484C283.615,142.489 284.147,142.777 284.454,143.217C284.796,143.648 284.793,144.238 284.774,144.685C284.77,145.16 284.767,145.625 284.763,146.08C284.747,147.9 284.732,149.564 284.719,151.062C284.682,154.042 284.654,156.363 284.634,157.959C284.547,158.793 283.949,159.221 283.58,159.346C283.189,159.483 282.974,159.434 282.974,159.434Z" style="fill:rgb(225,226,225);fill-rule:nonzero;"/>
    </g>
    <g transform="matrix(1.16579,0,0,1.16579,2,9.98957)">
        <path d="M235.763,153.138L188.72,152.92L188.739,148.51L235.782,148.727L235.763,153.138Z" style="fill:rgb(42,109,217);fill-rule:nonzero;"/>
    </g>
    <g transform="matrix(1.16579,0,0,1.16579,2,9.98957)">
        <path d="M235.763,153.138L222.041,153.074C222.815,151.879 223.714,150.677 224.227,150.058C224.652,149.546 224.892,149.071 224.974,148.677L235.782,148.727L235.763,153.138ZM218.78,153.059L214.182,153.038C213.738,151.118 212.913,149.778 212.34,149.483C212.212,149.417 212.082,149.387 211.956,149.387C211.312,149.387 210.778,150.168 211.142,150.895C211.392,151.394 211.576,152.222 211.707,153.026L188.72,152.92L188.739,148.51L222.712,148.667C221.392,149.957 219.587,152.051 218.78,153.059Z" style="fill:rgb(42,109,217);fill-rule:nonzero;"/>
    </g>
    <g transform="matrix(1.16579,0,0,1.16579,2,9.98957)">
        <path d="M207.352,178.26L181.636,178.141L181.656,173.423L207.372,173.541L207.352,178.26Z" style="fill:rgb(42,109,217);fill-rule:nonzero;"/>
    </g>
    <g transform="matrix(1.16579,0,0,1.16579,2,9.98957)">
        <path d="M192.343,178.191L181.636,178.141L181.656,173.423L197.244,173.495C195.522,175.145 193.839,176.758 192.343,178.191Z" style="fill:rgb(42,109,217);fill-rule:nonzero;"/>
    </g>
    <g transform="matrix(1.16579,0,0,1.16579,2,9.98957)">
        <path d="M282.314,202.495C282.312,202.477 282.524,202.496 282.907,202.383C283.27,202.264 283.855,201.964 284.173,201.25C284.344,200.898 284.362,200.471 284.346,199.982C284.344,199.496 284.342,198.967 284.34,198.393C284.338,197.242 284.335,195.918 284.333,194.429C284.333,192.936 284.332,191.278 284.332,189.465L284.332,188.075C284.353,187.597 284.295,187.154 284.04,186.755C283.799,186.363 283.409,186.052 282.953,185.913C282.505,185.771 281.97,185.848 281.442,185.826C277.202,185.818 272.377,185.808 267.046,185.798C245.699,185.719 216.237,185.61 183.697,185.489C182.792,185.467 181.958,186.204 181.871,187.099C181.841,188.05 181.855,189.101 181.845,190.093C181.836,192.102 181.828,194.099 181.819,196.08C181.815,197.071 181.81,198.058 181.806,199.042C181.822,199.533 181.752,200.046 181.869,200.438C181.982,200.851 182.246,201.221 182.599,201.463C182.965,201.71 183.362,201.801 183.842,201.783L185.297,201.79C186.265,201.795 187.228,201.8 188.188,201.805C195.862,201.846 203.265,201.885 210.318,201.922C224.418,202.008 237.118,202.086 247.79,202.151C258.441,202.235 267.068,202.304 273.051,202.35C276.019,202.386 278.33,202.413 279.919,202.431C280.691,202.446 281.284,202.457 281.706,202.465C282.108,202.476 282.314,202.495 282.314,202.495C282.314,202.495 282.108,202.512 281.705,202.518C281.284,202.523 280.69,202.529 279.918,202.536C278.33,202.54 276.018,202.546 273.05,202.554C267.067,202.545 258.44,202.534 247.788,202.519C237.116,202.486 224.417,202.446 210.315,202.402C203.263,202.374 195.86,202.345 188.185,202.315C187.226,202.311 186.262,202.307 185.294,202.303L183.84,202.297C183.351,202.323 182.75,202.204 182.308,201.889C181.855,201.579 181.517,201.106 181.372,200.574C181.223,200.014 181.312,199.527 181.29,199.039C181.293,198.056 181.297,197.069 181.301,196.078C181.309,194.096 181.317,192.1 181.325,190.09C181.337,189.073 181.317,188.106 181.354,187.038C181.465,185.886 182.539,184.939 183.699,184.969C216.239,185.148 245.701,185.311 267.048,185.43C272.379,185.469 277.203,185.504 281.443,185.535C281.966,185.563 282.495,185.478 283.036,185.644C283.558,185.808 284,186.165 284.27,186.614C284.557,187.053 284.619,187.614 284.59,188.076C284.586,188.549 284.583,189.012 284.58,189.466C284.564,191.279 284.548,192.937 284.536,194.43C284.52,195.919 284.506,197.243 284.495,198.394C284.488,198.967 284.482,199.497 284.476,199.983C284.485,200.459 284.457,200.933 284.269,201.293C283.917,202.036 283.299,202.329 282.921,202.434C282.524,202.533 282.314,202.495 282.314,202.495Z" style="fill:rgb(225,226,225);fill-rule:nonzero;"/>
    </g>
    <g transform="matrix(1.16579,0,0,1.16579,2,9.98957)">
        <path d="M207.163,223.173L181.446,223.055L181.466,218.336L207.183,218.454L207.163,223.173Z" style="fill:rgb(42,109,217);fill-rule:nonzero;"/>
    </g>
    <g transform="matrix(1.16579,0,0,1.16579,2,9.98957)">
        <path d="M207.163,223.173L181.446,223.055L181.466,218.336L207.183,218.454L207.163,223.173Z" style="fill:rgb(42,109,217);fill-rule:nonzero;"/>
    </g>
    <g transform="matrix(1.16579,0,0,1.16579,2,9.98957)">
        <path d="M282.124,247.408C282.123,247.391 282.334,247.409 282.716,247.297C283.081,247.178 283.665,246.877 283.983,246.163C284.154,245.811 284.171,245.384 284.156,244.895C284.154,244.409 284.152,243.88 284.15,243.307C284.148,242.155 284.146,240.831 284.143,239.343C284.142,237.85 284.142,236.191 284.141,234.378C284.141,233.925 284.142,233.461 284.142,232.987C284.163,232.51 284.106,232.067 283.85,231.668C283.609,231.276 283.219,230.965 282.763,230.825C282.316,230.684 281.781,230.761 281.251,230.739C277.012,230.73 272.188,230.722 266.857,230.711C245.508,230.632 216.047,230.522 183.507,230.402C182.603,230.38 181.768,231.117 181.681,232.012C181.651,232.963 181.666,234.014 181.656,235.006C181.647,237.015 181.638,239.012 181.629,240.993C181.625,241.984 181.621,242.971 181.616,243.955C181.633,244.445 181.563,244.958 181.679,245.35C181.792,245.765 182.056,246.134 182.409,246.376C182.775,246.623 183.172,246.715 183.652,246.696L185.107,246.703C186.075,246.708 187.038,246.713 187.998,246.718C195.672,246.759 203.075,246.798 210.127,246.835C224.228,246.922 236.927,246.999 247.599,247.064C258.251,247.148 266.877,247.217 272.861,247.264C275.829,247.299 278.14,247.326 279.729,247.345C280.5,247.359 281.094,247.37 281.515,247.379C281.917,247.39 282.124,247.408 282.124,247.408C282.124,247.408 281.917,247.425 281.515,247.432C281.093,247.435 280.5,247.441 279.729,247.449C278.139,247.453 275.828,247.459 272.86,247.467C266.876,247.458 258.25,247.447 247.597,247.433C236.925,247.399 224.226,247.359 210.125,247.315C203.073,247.287 195.67,247.259 187.995,247.228C187.036,247.225 186.072,247.22 185.104,247.216L183.65,247.21C183.161,247.236 182.56,247.117 182.118,246.802C181.666,246.491 181.327,246.018 181.181,245.487C181.033,244.927 181.122,244.439 181.1,243.952C181.104,242.969 181.107,241.981 181.111,240.991C181.119,239.009 181.127,237.013 181.135,235.003C181.147,233.985 181.127,233.019 181.165,231.95C181.275,230.799 182.349,229.852 183.51,229.882C216.049,230.061 245.51,230.225 266.859,230.343C272.189,230.382 277.013,230.417 281.253,230.448C281.777,230.475 282.305,230.392 282.846,230.558C283.368,230.721 283.809,231.079 284.081,231.527C284.368,231.967 284.429,232.527 284.401,232.989C284.397,233.462 284.393,233.926 284.389,234.379C284.374,236.192 284.359,237.85 284.346,239.343C284.331,240.832 284.317,242.156 284.305,243.308C284.298,243.88 284.292,244.41 284.286,244.895C284.294,245.373 284.266,245.846 284.079,246.207C283.727,246.949 283.109,247.242 282.732,247.348C282.334,247.445 282.124,247.408 282.124,247.408Z" style="fill:rgb(225,226,225);fill-rule:nonzero;"/>
    </g>
    <g transform="matrix(1.16579,0,0,1.16579,2,9.98957)">
        <path d="M235.582,196.201L188.538,195.984L188.557,191.573L235.6,191.79L235.582,196.201Z" style="fill:rgb(42,109,217);fill-rule:nonzero;"/>
    </g>
    <g transform="matrix(1.16579,0,0,1.16579,2,9.98957)">
        <path d="M235.582,196.201L195.887,196.018C197.106,194.818 198.526,193.314 200.057,191.626L235.6,191.79L235.582,196.201Z" style="fill:rgb(42,109,217);fill-rule:nonzero;"/>
    </g>
    <g transform="matrix(1.16579,0,0,1.16579,2,9.98957)">
        <path d="M192.831,239.245C192.825,240.456 191.9,241.433 190.765,241.429C189.629,241.423 188.712,240.436 188.717,239.225C188.723,238.015 189.648,237.036 190.783,237.042C191.919,237.047 192.835,238.033 192.831,239.245Z" style="fill:rgb(42,109,217);fill-rule:nonzero;"/>
    </g>
    <g transform="matrix(1.16579,0,0,1.16579,2,9.98957)">
        <path d="M199.204,239.274C199.198,240.485 198.273,241.463 197.138,241.458C196.002,241.453 195.085,240.467 195.09,239.255C195.095,238.044 196.02,237.066 197.156,237.071C198.292,237.076 199.208,238.062 199.204,239.274Z" style="fill:rgb(42,109,217);fill-rule:nonzero;"/>
    </g>
    <g transform="matrix(1.16579,0,0,1.16579,2,9.98957)">
        <path d="M205.576,239.304C205.571,240.515 204.646,241.493 203.51,241.487C202.375,241.482 201.458,240.496 201.463,239.284C201.468,238.073 202.393,237.096 203.529,237.1C204.664,237.105 205.582,238.092 205.576,239.304Z" style="fill:rgb(42,109,217);fill-rule:nonzero;"/>
    </g>
    <g transform="matrix(1.16579,0,0,1.16579,2,9.98957)">
        <path d="M211.949,239.333C211.944,240.544 211.019,241.522 209.883,241.516C208.748,241.512 207.831,240.525 207.836,239.313C207.841,238.102 208.766,237.125 209.902,237.13C211.038,237.136 211.955,238.122 211.949,239.333Z" style="fill:rgb(42,109,217);fill-rule:nonzero;"/>
    </g>
    <g transform="matrix(1.16579,0,0,1.16579,2,9.98957)">
        <path d="M218.322,239.362C218.317,240.574 217.392,241.552 216.256,241.546C215.121,241.541 214.204,240.555 214.208,239.344C214.214,238.132 215.139,237.154 216.275,237.159C217.411,237.165 218.327,238.151 218.322,239.362Z" style="fill:rgb(42,109,217);fill-rule:nonzero;"/>
    </g>
    <g transform="matrix(1.16579,0,0,1.16579,2,9.98957)">
        <path d="M224.695,239.392C224.69,240.603 223.765,241.581 222.628,241.575C221.493,241.57 220.577,240.584 220.582,239.373C220.586,238.161 221.511,237.183 222.647,237.188C223.784,237.194 224.7,238.181 224.695,239.392Z" style="fill:rgb(42,109,217);fill-rule:nonzero;"/>
    </g>
    <g transform="matrix(1.16579,0,0,1.16579,2,9.98957)">
        <path d="M231.068,239.421C231.062,240.633 230.137,241.61 229.001,241.605C227.866,241.6 226.95,240.613 226.955,239.402C226.959,238.19 227.884,237.213 229.02,237.219C230.156,237.223 231.073,238.21 231.068,239.421Z" style="fill:rgb(42,109,217);fill-rule:nonzero;"/>
    </g>
    <g transform="matrix(1.16579,0,0,1.16579,2,9.98957)">
        <path d="M237.44,239.45C237.435,240.662 236.51,241.64 235.374,241.635C234.239,241.629 233.322,240.643 233.328,239.432C233.333,238.221 234.257,237.242 235.393,237.248C236.529,237.253 237.446,238.239 237.44,239.45Z" style="fill:rgb(42,109,217);fill-rule:nonzero;"/>
    </g>
    <g transform="matrix(1.16579,0,0,1.16579,2,9.98957)">
        <path d="M243.813,239.48C243.808,240.691 242.883,241.669 241.748,241.664C240.612,241.659 239.695,240.673 239.7,239.461C239.706,238.25 240.63,237.272 241.766,237.277C242.902,237.282 243.819,238.268 243.813,239.48Z" style="fill:rgb(42,109,217);fill-rule:nonzero;"/>
    </g>
    <g transform="matrix(1.16579,0,0,1.16579,2,9.98957)">
        <path d="M190.773,241.429L190.765,241.429C189.633,241.423 188.72,240.444 188.717,239.24L188.717,239.225C188.723,238.018 189.642,237.042 190.773,237.042L190.783,237.042C191.915,237.047 192.828,238.025 192.831,239.231L192.831,239.245C192.825,240.453 191.905,241.429 190.773,241.429Z" style="fill:rgb(42,109,217);fill-rule:nonzero;"/>
    </g>
    <g transform="matrix(1.16579,0,0,1.16579,2,9.98957)">
        <path d="M197.146,241.458L197.138,241.458C196.006,241.453 195.093,240.474 195.09,239.269L195.09,239.255C195.095,238.047 196.016,237.071 197.148,237.071L197.156,237.071C198.288,237.076 199.201,238.055 199.204,239.26L199.204,239.274C199.198,240.482 198.278,241.458 197.146,241.458Z" style="fill:rgb(42,109,217);fill-rule:nonzero;"/>
    </g>
    <g transform="matrix(1.16579,0,0,1.16579,2,9.98957)">
        <path d="M203.52,241.487L203.51,241.487C202.379,241.482 201.465,240.504 201.463,239.298L201.463,239.284C201.468,238.076 202.389,237.1 203.52,237.1L203.529,237.1C204.66,237.105 205.574,238.084 205.576,239.289L205.576,239.304C205.571,240.511 204.651,241.487 203.52,241.487Z" style="fill:rgb(42,109,217);fill-rule:nonzero;"/>
    </g>
    <g transform="matrix(1.16579,0,0,1.16579,2,9.98957)">
        <path d="M209.893,241.516L209.883,241.516C208.752,241.512 207.838,240.533 207.836,239.328L207.836,239.313C207.841,238.106 208.762,237.13 209.893,237.13L209.902,237.13C211.033,237.136 211.947,238.114 211.949,239.319L211.949,239.333C211.944,240.54 211.025,241.516 209.893,241.516Z" style="fill:rgb(42,109,217);fill-rule:nonzero;"/>
    </g>
    <g transform="matrix(1.16579,0,0,1.16579,2,9.98957)">
        <path d="M216.267,241.546L216.256,241.546C215.125,241.541 214.211,240.562 214.208,239.358L214.208,239.344C214.214,238.135 215.135,237.159 216.266,237.159L216.275,237.159C217.406,237.165 218.32,238.144 218.322,239.348L218.322,239.362C218.317,240.57 217.398,241.546 216.267,241.546Z" style="fill:rgb(42,109,217);fill-rule:nonzero;"/>
    </g>
    <g transform="matrix(1.16579,0,0,1.16579,2,9.98957)">
        <path d="M222.639,241.575L222.628,241.575C221.497,241.57 220.584,240.592 220.582,239.387L220.582,239.373C220.586,238.164 221.507,237.188 222.638,237.188L222.647,237.188C223.779,237.194 224.692,238.173 224.695,239.377L224.695,239.392C224.69,240.6 223.771,241.575 222.639,241.575Z" style="fill:rgb(42,109,217);fill-rule:nonzero;"/>
    </g>
    <g transform="matrix(1.16579,0,0,1.16579,2,9.98957)">
        <path d="M229.01,241.605L229.001,241.605C227.87,241.6 226.957,240.621 226.955,239.416L226.955,239.402C226.959,238.194 227.879,237.219 229.01,237.219L229.02,237.219C230.151,237.223 231.066,238.202 231.068,239.407L231.068,239.421C231.062,240.63 230.142,241.605 229.01,241.605Z" style="fill:rgb(42,109,217);fill-rule:nonzero;"/>
    </g>
    <g transform="matrix(1.16579,0,0,1.16579,2,9.98957)">
        <path d="M235.383,241.635L235.374,241.635C234.243,241.629 233.329,240.651 233.328,239.446L233.328,239.432C233.333,238.224 234.252,237.248 235.383,237.248L235.393,237.248C236.524,237.253 237.439,238.231 237.44,239.436L237.44,239.45C237.435,240.659 236.515,241.635 235.383,241.635Z" style="fill:rgb(42,109,217);fill-rule:nonzero;"/>
    </g>
    <g transform="matrix(1.16579,0,0,1.16579,2,9.98957)">
        <path d="M241.756,241.664L241.748,241.664C240.616,241.659 239.702,240.68 239.7,239.475L239.7,239.461C239.706,238.253 240.626,237.277 241.758,237.277L241.766,237.277C242.897,237.282 243.812,238.261 243.813,239.466L243.813,239.48C243.808,240.688 242.888,241.664 241.756,241.664Z" style="fill:rgb(42,109,217);fill-rule:nonzero;"/>
    </g>
    <g transform="matrix(1.16579,0,0,1.16579,2,9.98957)">
        <path d="M234.762,95.114C236.108,94.55 237.065,93.162 237.073,91.527C237.082,89.385 235.46,87.64 233.452,87.631C231.444,87.622 229.808,89.351 229.799,91.493C229.792,93.143 230.756,94.548 232.117,95.114C226.52,95.957 226.774,102.039 226.774,102.039L240.008,102.101C240.008,102.101 240.31,95.952 234.762,95.114Z" style="fill:rgb(42,109,217);fill-rule:nonzero;"/>
    </g>
    <g transform="matrix(1.16579,0,0,1.16579,2,9.98957)">
        <path d="M240.008,102.101L226.774,102.039C226.774,102.039 226.772,101.998 226.772,101.92C226.772,101.066 226.985,95.887 232.117,95.114C230.762,94.55 229.8,93.154 229.799,91.512L229.799,91.493C229.808,89.357 231.435,87.631 233.436,87.631L233.452,87.631C235.457,87.64 237.075,89.378 237.073,91.514L237.073,91.527C237.065,93.162 236.108,94.55 234.762,95.114C239.768,95.87 240.011,100.95 240.011,101.935C240.011,102.042 240.008,102.101 240.008,102.101Z" style="fill:rgb(42,109,217);fill-rule:nonzero;"/>
    </g>
    <g transform="matrix(1.16579,0,0,1.16579,2,9.98957)">
        <path d="M256.243,111.725L209.051,111.507L209.075,105.865L256.267,106.082L256.243,111.725Z" style="fill:rgb(42,109,217);fill-rule:nonzero;"/>
    </g>
    <g transform="matrix(1.16579,0,0,1.16579,2,9.98957)">
        <path d="M256.243,111.725L209.051,111.507L209.075,105.865L256.267,106.082L256.243,111.725Z" style="fill:rgb(42,109,217);fill-rule:nonzero;"/>
    </g>
    <g transform="matrix(1.16579,0,0,1.16579,2,9.98957)">
        <path d="M82.784,135.285C82.784,135.295 82.627,135.312 82.32,135.337C81.989,135.361 81.538,135.394 80.959,135.436C80.357,135.447 79.627,135.577 78.765,135.729C78.336,135.816 77.862,135.851 77.378,135.994C76.892,136.129 76.375,136.272 75.828,136.424C73.67,137.105 71.071,138.186 68.454,140.081C65.844,141.962 63.233,144.651 61.198,148.158C60.128,149.882 59.353,151.873 58.655,153.966C58.088,156.096 57.585,158.359 57.548,160.744C57.441,161.933 57.562,163.141 57.612,164.369C57.645,164.982 57.777,165.591 57.855,166.209C57.939,166.828 58.03,167.451 58.206,168.061C58.712,170.547 59.724,172.984 61.005,175.319C63.566,180.008 67.87,184.046 73.186,186.387C75.845,187.56 78.785,188.193 81.774,188.316C84.767,188.505 87.833,188.025 90.74,187.025L91.619,186.703L91.735,186.66L91.84,186.713C96.144,188.898 100.364,191.04 104.453,193.116L104.078,193.436C102.731,189.256 101.426,185.204 100.173,181.315L100.125,181.165L100.236,181.054C103.415,177.871 105.63,174.004 106.858,170.045C108.089,166.074 108.299,162.03 107.818,158.324C107.338,154.61 106.124,151.233 104.505,148.391C102.887,145.541 100.875,143.225 98.81,141.418C96.721,139.623 94.555,138.407 92.614,137.476C90.626,136.644 88.854,136.111 87.381,135.827C86.645,135.702 85.99,135.59 85.419,135.493C84.853,135.454 84.371,135.42 83.972,135.392C83.6,135.363 83.307,135.341 83.085,135.324C82.886,135.306 82.784,135.293 82.784,135.285C82.784,135.278 82.886,135.276 83.086,135.279C83.308,135.285 83.602,135.293 83.976,135.304C84.377,135.32 84.863,135.34 85.433,135.363C86.009,135.449 86.67,135.547 87.413,135.658C88.901,135.918 90.696,136.43 92.715,137.247C94.685,138.164 96.889,139.374 99.019,141.174C101.125,142.986 103.18,145.319 104.839,148.2C106.498,151.073 107.75,154.496 108.253,158.267C108.758,162.029 108.56,166.141 107.319,170.186C106.082,174.22 103.836,178.167 100.601,181.418L100.664,181.157C101.922,185.043 103.233,189.094 104.586,193.272L104.784,193.883L104.211,193.592C100.121,191.518 95.899,189.379 91.595,187.197L91.816,187.207L90.918,187.538C87.946,188.559 84.811,189.049 81.752,188.854C78.697,188.727 75.691,188.076 72.976,186.874C67.546,184.477 63.168,180.346 60.57,175.564C59.271,173.182 58.249,170.697 57.741,168.166C57.565,167.544 57.475,166.911 57.391,166.281C57.313,165.652 57.181,165.033 57.15,164.409C57.103,163.16 56.987,161.932 57.099,160.725C57.148,158.302 57.667,156.004 58.255,153.845C58.973,151.723 59.772,149.707 60.868,147.964C62.953,144.419 65.619,141.714 68.278,139.835C70.942,137.941 73.582,136.877 75.768,136.222C76.321,136.078 76.845,135.941 77.337,135.813C77.826,135.677 78.305,135.649 78.738,135.571C79.609,135.434 80.345,135.32 80.95,135.328C81.532,135.308 81.986,135.293 82.319,135.282C82.627,135.275 82.784,135.276 82.784,135.285Z" style="fill:rgb(42,109,217);fill-rule:nonzero;"/>
    </g>
    <g transform="matrix(1.16579,0,0,1.16579,2,9.98957)">
        <path d="M88.487,158.634L86.639,158.634L82.606,153.013L82.606,149.324C82.606,149.324 79.749,149.148 80.085,153.979C80.421,158.809 80.058,157.579 80.058,157.579C80.058,157.579 73.992,157.603 73.488,158.13C73.122,158.513 72.956,164.538 72.893,167.805C72.861,169.45 73.87,170.98 75.399,171.369C75.617,171.424 75.836,171.456 76.052,171.456C77.565,171.456 85.294,170.226 85.294,170.226L88.487,170.226L88.487,158.634Z" style="fill:rgb(42,109,217);fill-rule:nonzero;"/>
    </g>
    <g transform="matrix(1.16579,0,0,1.16579,2,9.98957)">
        <path d="M93.777,157.621L92.641,170.261L89.476,170.261L89.476,157.875L93.777,157.621Z" style="fill:rgb(42,109,217);fill-rule:nonzero;"/>
    </g>
    <g transform="matrix(1.16579,0,0,1.16579,2,9.98957)">
        <path d="M131.469,414.949L131.469,406.393L116.139,406.291L116.012,419.216L116.962,419.287C121.191,419.56 138.482,419.958 141.316,419.081C144.476,418.102 131.469,414.949 131.469,414.949Z" style="fill:rgb(42,109,217);fill-rule:nonzero;"/>
    </g>
    <g transform="matrix(1.16579,0,0,1.16579,2,9.98957)">
        <path d="M141.679,418.278C141.679,418.423 135.944,418.539 128.871,418.539C121.797,418.539 116.063,418.423 116.063,418.278C116.063,418.135 121.797,418.018 128.871,418.018C135.944,418.018 141.679,418.135 141.679,418.278Z" style="fill:rgb(24,46,53);fill-rule:nonzero;"/>
    </g>
    <g transform="matrix(1.16579,0,0,1.16579,2,9.98957)">
        <path d="M131.739,416.695C131.613,416.629 131.721,416.177 132.05,415.731C132.378,415.284 132.779,415.047 132.879,415.147C132.982,415.251 132.772,415.627 132.47,416.04C132.166,416.451 131.867,416.764 131.739,416.695Z" style="fill:rgb(24,46,53);fill-rule:nonzero;"/>
    </g>
    <g transform="matrix(1.16579,0,0,1.16579,2,9.98957)">
        <path d="M132.717,417.259C132.584,417.209 132.653,416.702 132.954,416.169C133.254,415.634 133.653,415.313 133.764,415.401C133.879,415.491 133.686,415.928 133.408,416.425C133.127,416.92 132.853,417.311 132.717,417.259Z" style="fill:rgb(24,46,53);fill-rule:nonzero;"/>
    </g>
    <g transform="matrix(1.16579,0,0,1.16579,2,9.98957)">
        <path d="M120.682,418.24C120.622,418.282 120.394,418.058 120.063,417.681C119.729,417.308 119.292,416.779 118.718,416.334C118.148,415.89 117.522,415.667 117.059,415.609C116.593,415.547 116.287,415.619 116.261,415.544C116.234,415.488 116.519,415.274 117.071,415.241C117.616,415.204 118.385,415.411 119.035,415.921C119.683,416.426 120.096,417.028 120.359,417.464C120.621,417.904 120.74,418.2 120.682,418.24Z" style="fill:rgb(24,46,53);fill-rule:nonzero;"/>
    </g>
    <g transform="matrix(1.16579,0,0,1.16579,2,9.98957)">
        <path d="M131.785,415.087C131.86,415.208 131.597,415.505 131.16,415.665C130.723,415.827 130.328,415.77 130.309,415.63C130.285,415.486 130.597,415.319 130.979,415.177C131.364,415.036 131.709,414.963 131.785,415.087Z" style="fill:rgb(24,46,53);fill-rule:nonzero;"/>
    </g>
    <g transform="matrix(1.16579,0,0,1.16579,2,9.98957)">
        <path d="M131.545,414.26C131.559,414.403 131.15,414.526 130.632,414.533C130.115,414.54 129.703,414.429 129.713,414.285C129.723,414.141 130.131,414.019 130.625,414.013C131.119,414.006 131.531,414.117 131.545,414.26Z" style="fill:rgb(24,46,53);fill-rule:nonzero;"/>
    </g>
    <g transform="matrix(1.16579,0,0,1.16579,2,9.98957)">
        <path d="M169.221,414.949L169.221,406.393L153.89,406.291L153.763,419.085L154.713,419.155C158.942,419.429 176.234,419.958 179.068,419.081C182.228,418.102 169.221,414.949 169.221,414.949Z" style="fill:rgb(42,109,217);fill-rule:nonzero;"/>
    </g>
    <g transform="matrix(1.16579,0,0,1.16579,2,9.98957)">
        <path d="M179.43,418.298C179.43,418.441 173.696,418.558 166.623,418.558C159.548,418.558 153.815,418.441 153.815,418.298C153.815,418.154 159.548,418.037 166.623,418.037C173.696,418.037 179.43,418.154 179.43,418.298Z" style="fill:rgb(24,46,53);fill-rule:nonzero;"/>
    </g>
    <g transform="matrix(1.16579,0,0,1.16579,2,9.98957)">
        <path d="M169.491,416.695C169.365,416.629 169.473,416.177 169.802,415.731C170.13,415.284 170.531,415.047 170.631,415.147C170.734,415.251 170.524,415.627 170.222,416.04C169.917,416.451 169.619,416.764 169.491,416.695Z" style="fill:rgb(24,46,53);fill-rule:nonzero;"/>
    </g>
    <g transform="matrix(1.16579,0,0,1.16579,2,9.98957)">
        <path d="M170.469,417.259C170.335,417.209 170.404,416.702 170.706,416.169C171.006,415.634 171.405,415.313 171.516,415.401C171.631,415.491 171.438,415.928 171.16,416.425C170.879,416.92 170.604,417.311 170.469,417.259Z" style="fill:rgb(24,46,53);fill-rule:nonzero;"/>
    </g>
    <g transform="matrix(1.16579,0,0,1.16579,2,9.98957)">
        <path d="M158.434,418.24C158.374,418.282 158.146,418.058 157.814,417.681C157.48,417.308 157.043,416.779 156.469,416.334C155.9,415.89 155.274,415.667 154.811,415.609C154.345,415.547 154.039,415.619 154.013,415.544C153.986,415.488 154.271,415.274 154.823,415.241C155.367,415.204 156.137,415.411 156.787,415.921C157.435,416.426 157.847,417.028 158.111,417.464C158.373,417.904 158.492,418.2 158.434,418.24Z" style="fill:rgb(24,46,53);fill-rule:nonzero;"/>
    </g>
    <g transform="matrix(1.16579,0,0,1.16579,2,9.98957)">
        <path d="M169.537,415.087C169.612,415.208 169.349,415.505 168.912,415.665C168.474,415.827 168.081,415.77 168.06,415.63C168.038,415.486 168.348,415.319 168.731,415.177C169.116,415.036 169.461,414.963 169.537,415.087Z" style="fill:rgb(24,46,53);fill-rule:nonzero;"/>
    </g>
    <g transform="matrix(1.16579,0,0,1.16579,2,9.98957)">
        <path d="M169.296,414.26C169.311,414.403 168.902,414.526 168.384,414.533C167.867,414.54 167.455,414.429 167.465,414.285C167.475,414.141 167.883,414.019 168.377,414.013C168.871,414.006 169.283,414.117 169.296,414.26Z" style="fill:rgb(24,46,53);fill-rule:nonzero;"/>
    </g>
    <g transform="matrix(1.16579,0,0,1.16579,2,9.98957)">
        <path d="M225.697,161.053C225.296,160.641 224.313,160.835 224.313,160.835C224.313,160.835 224.485,159.666 224.303,159.101C224.123,158.536 222.862,158.645 222.862,158.645C222.862,158.645 222.784,158.101 222.894,157.223C222.922,157.003 222.8,156.841 222.601,156.72C222.004,156.359 220.717,156.376 220.717,156.376C219.945,155.825 223.069,151.456 224.227,150.058C225.372,148.677 225.179,147.57 224.146,147.572C223.442,147.573 219.795,151.772 218.682,153.182C217.57,154.591 214.586,158.512 214.485,155.382C214.383,152.253 213.126,149.887 212.34,149.483C211.555,149.08 210.707,150.026 211.142,150.895C211.493,151.597 211.715,152.95 211.841,153.973C211.945,154.817 211.911,155.673 211.726,156.502C211.204,158.847 210.644,160.369 210.38,161.019L210.303,160.975C210.303,160.975 188.476,181.904 186.903,183.398C185.487,184.743 157.125,181.808 151.443,181.206C149.89,181.032 147.59,180.72 145.597,180.807C143.132,180.915 142.694,181.265 140.227,181.298C132.673,181.399 126.378,182.134 121.693,182.927C116.029,183.886 111.386,187.917 109.633,193.388C103.898,211.286 90.923,253.656 88.611,277.46C86.79,280.884 84.755,284.883 83.928,287.133C82.321,291.508 82.711,291.657 83.253,291.758C83.914,291.88 84.618,290.323 85.248,288.767C86.004,286.899 86.653,285.031 86.992,286.065C87.614,287.962 83.84,295.438 85.371,295.657C87.367,295.942 88.958,287.685 89.145,286.996C89.325,286.327 90.333,286.553 90.131,287.166C89.842,288.047 87.028,297.377 88.985,297.676C90.07,297.842 90.187,295.865 90.187,295.865C90.187,295.865 92.177,286.942 93.096,287.114C94.029,287.289 93.038,292.567 92.577,294.323C92.122,296.059 92.763,296.98 93.699,296.544C94.337,296.246 95.874,290.9 96.288,289.153C96.703,287.406 97.754,282.594 99.167,285.388C100.579,288.182 102.716,289.798 103.599,289.833C104.481,289.867 104.852,288.652 104.09,288.047C103.475,287.558 102.703,286.426 102.158,285.551C101.708,284.83 101.378,284.039 101.196,283.209C100.493,280.009 100.499,278.148 100.499,278.148L100.335,277.12C102.575,266.027 109.03,233.482 118.302,212.69L122.12,220.548L123.777,226.364L113.602,251.503L157.015,250.931L150.543,225.992L158.406,199.987C166.916,200.177 188.772,200.494 192.446,198.852C197.025,196.806 220.724,166.932 220.724,166.932L220.723,166.932C222.324,165.657 223.952,164.285 225.153,163.088C225.153,163.088 226.565,161.945 225.697,161.053Z" style="fill:rgb(250,186,160);fill-rule:nonzero;"/>
    </g>
    <g transform="matrix(1.16579,0,0,1.16579,2,9.98957)">
        <path d="M111.711,232.995C112.968,228.696 119.439,207.438 119.439,207.438C119.439,207.438 122.616,224.769 121.781,226.856C120.819,229.262 119.051,232.014 119.051,232.014C111.711,243.192 112.674,248.779 112.674,248.779L157.015,247.427C157.123,241.225 153.452,226.809 152.685,224.512C151.917,222.215 154.463,214.676 154.463,214.676C154.463,214.676 159.474,209.587 159.28,206.968C158.889,201.692 158.406,199.987 158.406,199.987L185.387,200.98L184.539,182.674L145.756,178.793C144.414,182.612 132.201,180.741 132.201,180.741C119.016,181.174 118.218,183.599 112.72,187.856C107.222,192.113 98.167,228.675 98.167,228.675L111.711,232.995Z" style="fill:rgb(42,109,217);fill-rule:nonzero;"/>
    </g>
    <g transform="matrix(1.16579,0,0,1.16579,2,9.98957)">
        <path d="M137.934,228.671C137.933,228.74 137.041,228.799 135.597,228.789C134.154,228.78 132.16,228.69 129.966,228.471C127.774,228.249 125.802,227.939 124.386,227.661C122.969,227.383 122.106,227.148 122.12,227.08C122.133,227.007 123.019,227.114 124.445,227.298C125.871,227.482 127.839,227.732 130.02,227.952C132.199,228.171 134.178,228.318 135.612,228.421C137.046,228.524 137.935,228.596 137.934,228.671Z" style="fill:rgb(24,46,53);fill-rule:nonzero;"/>
    </g>
    <g transform="matrix(1.16579,0,0,1.16579,2,9.98957)">
        <path d="M140.97,224.899C140.988,224.963 140.074,225.31 138.549,225.725C137.025,226.138 134.884,226.595 132.488,226.881C130.09,227.164 127.902,227.223 126.323,227.177C124.744,227.132 123.773,227.007 123.777,226.941C123.78,226.864 124.754,226.857 126.322,226.809C127.89,226.76 130.052,226.644 132.426,226.363C134.799,226.08 136.928,225.685 138.464,225.366C140,225.047 140.948,224.825 140.97,224.899Z" style="fill:rgb(24,46,53);fill-rule:nonzero;"/>
    </g>
    <g transform="matrix(1.16579,0,0,1.16579,2,9.98957)">
        <path d="M155.885,208.079C155.954,208.093 155.84,208.957 155.582,210.341C155.324,211.724 154.918,213.624 154.407,215.708C153.896,217.793 153.376,219.666 152.965,221.011C152.554,222.356 152.255,223.176 152.187,223.156C152.117,223.137 152.29,222.283 152.609,220.915C152.987,219.354 153.422,217.562 153.901,215.584C154.392,213.609 154.835,211.82 155.222,210.261C155.572,208.9 155.813,208.063 155.885,208.079Z" style="fill:rgb(24,46,53);fill-rule:nonzero;"/>
    </g>
    <g transform="matrix(1.16579,0,0,1.16579,2,9.98957)">
        <path d="M112.176,230.448C112.139,230.587 109.08,229.874 105.347,228.855C101.611,227.836 98.615,226.898 98.653,226.759C98.69,226.62 101.749,227.334 105.483,228.352C109.217,229.371 112.214,230.309 112.176,230.448Z" style="fill:rgb(24,46,53);fill-rule:nonzero;"/>
    </g>
    <g transform="matrix(1.16579,0,0,1.16579,2,9.98957)">
        <path d="M158.894,199.753C158.894,199.777 158.483,199.82 157.746,199.747C157.013,199.671 155.94,199.501 154.697,199.019C153.453,198.554 152.039,197.775 150.718,196.597C149.396,195.424 148.216,193.81 147.463,191.91C146.698,190.013 146.447,188.035 146.567,186.273C146.683,184.516 147.148,182.927 147.936,181.813C148.714,180.685 149.747,180.139 150.466,179.95C150.831,179.853 151.124,179.83 151.32,179.835C151.517,179.841 151.619,179.862 151.618,179.878C151.621,179.928 151.204,179.904 150.527,180.143C149.863,180.381 148.929,180.942 148.241,182.018C146.88,184.159 146.5,188.066 147.947,191.717C148.672,193.543 149.787,195.094 151.041,196.242C152.294,197.394 153.642,198.182 154.834,198.678C157.237,199.675 158.912,199.642 158.894,199.753Z" style="fill:rgb(24,46,53);fill-rule:nonzero;"/>
    </g>
    <g transform="matrix(1.16579,0,0,1.16579,2,9.98957)">
        <path d="M182.204,200.615C182.06,200.615 181.952,196.489 181.962,191.4C181.972,186.309 182.097,182.185 182.24,182.185C182.384,182.185 182.493,186.311 182.482,191.401C182.472,196.49 182.348,200.616 182.204,200.615Z" style="fill:rgb(24,46,53);fill-rule:nonzero;"/>
    </g>
    <g transform="matrix(1.16579,0,0,1.16579,2,9.98957)">
        <path d="M145.517,179.908C145.626,177.676 145.86,175.155 145.86,175.155C145.86,175.155 151.378,174.546 151.713,168.846C152.048,163.145 151.713,150 151.713,150L141.663,144.882L130.606,153.606L132.282,182.108L142.455,182.755C144.058,182.857 145.435,181.579 145.517,179.908Z" style="fill:rgb(250,186,160);fill-rule:nonzero;"/>
    </g>
    <g transform="matrix(1.16579,0,0,1.16579,2,9.98957)">
        <path d="M146.512,164.336C146.528,164.341 146.528,164.443 146.424,164.581C146.322,164.715 146.1,164.868 145.79,164.861C145.149,164.83 144.533,164.122 144.305,163.258C144.191,162.819 144.192,162.374 144.278,161.991C144.346,161.614 144.563,161.235 144.878,161.132C145.028,161.077 145.184,161.082 145.303,161.142C145.419,161.201 145.491,161.29 145.528,161.372C145.603,161.541 145.545,161.644 145.531,161.636C145.507,161.635 145.514,161.541 145.43,161.434C145.352,161.325 145.164,161.226 144.956,161.334C144.744,161.43 144.598,161.701 144.544,162.049C144.482,162.393 144.489,162.788 144.591,163.179C144.791,163.953 145.328,164.586 145.805,164.644C146.042,164.674 146.237,164.583 146.343,164.497C146.452,164.408 146.491,164.327 146.512,164.336Z" style="fill:rgb(247,152,110);fill-rule:nonzero;"/>
    </g>
    <g transform="matrix(1.16579,0,0,1.16579,2,9.98957)">
        <path d="M155.141,146.923C154.372,144.298 151.583,142.995 149.041,142.275C145.174,141.179 140.985,140.694 137.207,142.085C133.429,143.476 128.884,145.923 128.886,150.097C126.657,149.913 125.382,151.868 124.497,154.288C123.974,155.718 123.63,157.31 123.549,158.888L123.512,158.875C123.226,164.339 121.704,171.866 118.162,175.906C116.206,178.137 113.389,179.679 112.25,182.457C111.259,184.872 111.771,187.726 110.834,190.164C110.008,192.316 108.176,193.844 106.864,195.716C104.004,199.793 103.81,205.555 105.911,210.106C108.012,214.657 112.174,217.987 116.795,219.513C121.417,221.039 126.451,220.871 131.154,219.646C134.626,218.742 138.004,217.246 140.771,214.881C143.538,212.517 145.661,209.229 146.293,205.559C146.998,201.475 145.854,197.327 145.013,193.269C142.353,180.434 143.113,179.767 146.47,167.861C146.546,167.651 146.593,167.433 146.651,167.217C146.695,167.059 146.738,166.908 146.783,166.746L146.776,166.743C146.87,166.277 146.932,165.803 146.934,165.319C145.961,165.702 144.787,165.448 144.042,164.694C143.297,163.939 143.019,162.724 143.358,161.701C143.749,160.523 144.829,159.737 145.938,159.27C147.046,158.804 148.24,158.573 149.328,158.055C151.637,156.956 153.238,154.676 154.327,152.287C155.09,150.613 155.66,148.695 155.141,146.923Z" style="fill:rgb(24,46,53);fill-rule:nonzero;"/>
    </g>
    <g transform="matrix(1.16579,0,0,1.16579,2,9.98957)">
        <path d="M146.906,164.58C146.941,164.565 147.136,164.937 147.433,165.568C147.729,166.2 148.128,167.091 148.57,168.115L148.654,168.309L148.442,168.327C148.108,168.355 147.771,168.384 147.424,168.414C146.727,168.46 146.145,168.543 145.468,168.536C145.361,168.517 145.243,168.419 145.21,168.309C145.174,168.201 145.184,168.11 145.195,168.031C145.224,167.874 145.258,167.758 145.289,167.625L145.466,166.917C145.687,166.053 145.845,165.524 145.887,165.533C145.929,165.543 145.847,166.09 145.681,166.965L145.542,167.681C145.491,167.922 145.403,168.284 145.533,168.256C146.031,168.234 146.741,168.151 147.398,168.103C147.746,168.075 148.083,168.049 148.417,168.022L148.289,168.234C147.86,167.205 147.498,166.298 147.25,165.646C147.003,164.994 146.872,164.595 146.906,164.58Z" style="fill:rgb(240,82,95);fill-rule:nonzero;"/>
    </g>
    <g transform="matrix(1.16579,0,0,1.16579,2,9.98957)">
        <path d="M112.674,248.779L157.015,247.427L176.299,322.766L172.748,409.184L149.279,409.184L152.187,324.605L135.035,272.159L137.678,412.535L113.984,412.885L111.488,280.936C111.384,277.269 110.176,268.995 110.626,265.357L112.674,248.779Z" style="fill:rgb(24,46,53);fill-rule:nonzero;"/>
    </g>
    <g transform="matrix(1.16579,0,0,1.16579,2,9.98957)">
        <path d="M140.94,273.224C140.931,273.294 140.1,273.253 138.766,273.096C137.432,272.938 135.596,272.657 133.586,272.254C131.576,271.849 129.774,271.398 128.483,271.027C127.193,270.656 126.41,270.374 126.428,270.306C126.468,270.161 129.687,270.941 133.689,271.743C137.688,272.552 140.959,273.076 140.94,273.224Z" style="fill:rgb(55,90,101);fill-rule:nonzero;"/>
    </g>
    <g transform="matrix(1.16579,0,0,1.16579,2,9.98957)">
        <path d="M172.534,404.445C172.534,404.59 167.221,404.706 160.668,404.706C154.113,404.706 148.801,404.59 148.801,404.445C148.801,404.302 154.113,404.185 160.668,404.185C167.221,404.185 172.534,404.302 172.534,404.445Z" style="fill:rgb(55,90,101);fill-rule:nonzero;"/>
    </g>
    <g transform="matrix(1.16579,0,0,1.16579,2,9.98957)">
        <path d="M137.465,408.889C137.465,409.033 132.311,409.149 125.954,409.149C119.595,409.149 114.441,409.033 114.441,408.889C114.441,408.745 119.595,408.629 125.954,408.629C132.311,408.629 137.465,408.745 137.465,408.889Z" style="fill:rgb(55,90,101);fill-rule:nonzero;"/>
    </g>
    <g transform="matrix(1.16579,0,0,1.16579,2,9.98957)">
        <path d="M134.413,408.529C134.27,408.531 133.646,377.857 133.021,340.026C132.396,302.182 132.007,271.51 132.15,271.508C132.294,271.506 132.917,302.173 133.542,340.017C134.167,377.849 134.557,408.526 134.413,408.529Z" style="fill:rgb(55,90,101);fill-rule:nonzero;"/>
    </g>
    <g transform="matrix(1.16579,0,0,1.16579,2,9.98957)">
        <path d="M169.382,404.445C169.374,404.445 169.37,404.307 169.372,404.037C169.377,403.742 169.384,403.346 169.394,402.839C169.425,401.758 169.469,400.212 169.527,398.234C169.667,394.209 169.867,388.432 170.115,381.304C170.662,366.986 171.417,347.252 172.25,325.454C172.258,325.253 172.267,325.052 172.274,324.866L172.282,324.94C167.026,303.897 162.276,284.878 158.833,271.087C157.143,264.218 155.774,258.652 154.82,254.774C154.363,252.868 154.005,251.377 153.755,250.335C153.644,249.846 153.556,249.463 153.491,249.178C153.434,248.916 153.41,248.781 153.418,248.779C153.427,248.777 153.469,248.908 153.542,249.165C153.62,249.446 153.724,249.826 153.856,250.309C154.129,251.347 154.518,252.829 155.016,254.726C156.008,258.593 157.431,264.144 159.188,270.998C162.671,284.778 167.473,303.785 172.787,324.813L172.796,324.85L172.794,324.888C172.787,325.072 172.779,325.273 172.771,325.476C171.878,347.27 171.069,367.002 170.482,381.318C170.166,388.443 169.909,394.218 169.729,398.242C169.63,400.218 169.552,401.763 169.498,402.843C169.467,403.349 169.443,403.745 169.425,404.039C169.406,404.308 169.391,404.446 169.382,404.445Z" style="fill:rgb(55,90,101);fill-rule:nonzero;"/>
    </g>
    <g transform="matrix(1.16579,0,0,1.16579,2,9.98957)">
        <path d="M161.733,323.107C161.757,323.249 159.436,323.766 156.548,324.262C154.392,324.633 152.53,324.887 151.717,324.933L151.715,324.729C151.985,324.804 152.13,324.861 152.125,324.897C152.119,324.934 151.963,324.944 151.684,324.933L151.077,324.906L151.682,324.729C152.464,324.501 154.304,324.119 156.46,323.749C159.348,323.253 161.708,322.965 161.733,323.107Z" style="fill:rgb(55,90,101);fill-rule:nonzero;"/>
    </g>
    <g transform="matrix(1.16579,0,0,1.16579,2,9.98957)">
        <path d="M161.285,325.982C161.265,326.127 159.182,325.967 156.617,325.769C154.051,325.567 151.968,325.403 151.972,325.257C151.975,325.115 154.076,325.047 156.657,325.25C159.238,325.449 161.304,325.843 161.285,325.982Z" style="fill:rgb(55,90,101);fill-rule:nonzero;"/>
    </g>
    <g transform="matrix(1.16579,0,0,1.16579,2,9.98957)">
        <path d="M112.478,250.371L112.494,250.236L112.478,250.371ZM112.55,249.786C112.597,249.406 112.674,248.779 112.674,248.779L112.55,249.786Z" style="fill:rgb(194,193,193);fill-rule:nonzero;"/>
    </g>
    <g transform="matrix(1.16579,0,0,1.16579,2,9.98957)">
        <path d="M112.674,248.779C119.93,248.372 127.389,248.238 134.848,248.103L112.674,248.779Z" style="fill:rgb(216,62,72);fill-rule:nonzero;"/>
    </g>
    <g transform="matrix(1.16579,0,0,1.16579,2,9.98957)">
        <path d="M118.819,252.848C118.161,252.848 117.506,252.807 116.855,252.7C115.078,252.409 113.55,251.88 112.478,250.371L112.494,250.236L112.521,250.017C112.528,249.968 112.538,249.885 112.55,249.786L112.674,248.779L134.848,248.103C142.304,247.968 149.761,247.833 157.015,247.427C145.805,250.157 133.678,251.329 122.232,252.599C121.099,252.724 119.956,252.848 118.819,252.848Z" style="fill:rgb(15,35,41);fill-rule:nonzero;"/>
    </g>
    <g transform="matrix(1.16579,0,0,1.16579,2,9.98957)">
        <path d="M135.607,302.555L135.541,299.009L135.607,302.555Z" style="fill:rgb(205,205,205);fill-rule:nonzero;"/>
    </g>
    <g transform="matrix(1.16579,0,0,1.16579,2,9.98957)">
        <path d="M135.541,299.009L135.042,272.531L135.541,299.009Z" style="fill:rgb(194,193,193);fill-rule:nonzero;"/>
    </g>
    <g transform="matrix(1.16579,0,0,1.16579,2,9.98957)">
        <path d="M135.607,302.555L132.656,291.099C132.445,280.712 132.276,273.74 132.188,271.958C132.639,272.058 133.107,272.157 133.586,272.254C134.084,272.354 134.571,272.446 135.042,272.531L135.541,299.009L135.607,302.554M132.273,289.611L127.433,270.822L128.306,270.976C128.364,270.993 128.423,271.01 128.483,271.027C129.453,271.306 130.711,271.629 132.128,271.945C132.099,273.62 132.154,280.024 132.273,289.611Z" style="fill:rgb(15,35,41);fill-rule:nonzero;"/>
    </g>
    <g transform="matrix(1.16579,0,0,1.16579,2,9.98957)">
        <path d="M135.042,272.531C134.571,272.446 134.084,272.354 133.586,272.254C133.107,272.157 132.639,272.058 132.188,271.958C132.182,271.83 132.176,271.729 132.17,271.655L135.035,272.159L135.042,272.531ZM132.128,271.945C130.711,271.629 129.453,271.306 128.483,271.027C128.423,271.01 128.364,270.993 128.306,270.976L132.136,271.649C132.133,271.721 132.13,271.819 132.128,271.945Z" style="fill:rgb(41,71,80);fill-rule:nonzero;"/>
    </g>
    <g transform="matrix(1.16579,0,0,1.16579,2,9.98957)">
        <path d="M132.656,291.099L132.273,289.611C132.154,280.024 132.099,273.62 132.128,271.945C132.13,271.819 132.133,271.721 132.136,271.649L132.17,271.655C132.176,271.729 132.182,271.83 132.188,271.958C132.276,273.74 132.445,280.712 132.656,291.099Z" style="fill:rgb(41,71,80);fill-rule:nonzero;"/>
    </g>
</svg>
