<svg id="Component_984_31" data-name="Component 984 – 31" xmlns="http://www.w3.org/2000/svg" xmlns:xlink="http://www.w3.org/1999/xlink" width="20" height="20" viewBox="15 10 20 20">
  <path id="search-alt" d="M10.469,3.629a.6.6,0,1,1,0,1.21H5.629a.6.6,0,1,1,0-1.21ZM15.131,14.34a.6.6,0,0,1-.855,0l-1.456-1.456a2.743,2.743,0,1,1,.855-.855l1.456,1.456A.6.6,0,0,1,15.131,14.34ZM11.376,12.1a1.512,1.512,0,1,0-1.512-1.512A1.512,1.512,0,0,0,11.376,12.1Zm-2.722,1.21H5.025A1.815,1.815,0,0,1,3.21,11.493V3.025A1.815,1.815,0,0,1,5.025,1.21h7.259a.6.6,0,0,1,.6.6V6.654a.6.6,0,1,0,1.21,0V1.815A1.815,1.815,0,0,0,12.283,0H5.025A3.028,3.028,0,0,0,2,3.025v8.469a3.028,3.028,0,0,0,3.025,3.025H8.654a.6.6,0,0,0,0-1.21Z" transform="translate(14.692 12.741)" fill="#2a6dd9"/>
</svg>
