<svg xmlns="http://www.w3.org/2000/svg" width="44.69" height="40" viewBox="0 0 44.69 40">
  <g id="Group_68566" data-name="Group 68566" transform="translate(17593.072 18059)">
    <g id="Group_68306" data-name="Group 68306" transform="translate(-17593.072 -18059)">
      <path id="Union_3" data-name="Union 3" d="M22.238,39.913,9.393,36.243a2.375,2.375,0,0,1-.983,1.835,2.861,2.861,0,0,1-1.638.656H2.621a2.526,2.526,0,0,1-1.851-.77A2.526,2.526,0,0,1,0,36.112V24.141A2.526,2.526,0,0,1,.77,22.29a2.524,2.524,0,0,1,1.851-.77h10.4a2.558,2.558,0,0,1,.466.044,2.429,2.429,0,0,1,.451.131l10.7,4.02a4.6,4.6,0,0,1,1.988,1.42,4.334,4.334,0,0,1,.808,2.818h4.98a4.01,4.01,0,0,1,3.059,1.31A4.978,4.978,0,0,1,36.7,34.8a1.65,1.65,0,0,1-.219.852,1.28,1.28,0,0,1-.7.546L23.724,39.913a3.139,3.139,0,0,1-.747.087A3.044,3.044,0,0,1,22.238,39.913ZM9.393,33.49l13.413,3.932,10.835-3.408q-.263-.35-.664-.9a1.135,1.135,0,0,0-.909-.546H21.67q-.087,0-.786-.065a4.088,4.088,0,0,1-1.354-.371l-2.884-.874a1.383,1.383,0,0,1-.207-2.534,1.175,1.175,0,0,1,1.036-.044l4.058,1.353q.051-.007.639-.042.721-.044,2.068-.044h.4a2.766,2.766,0,0,0-.2-1.036,1.273,1.273,0,0,0-.677-.712l-10.7-4.063H9.393ZM2.621,36.112H6.728V24.141H2.621ZM20.78,19.428v-7.97c0-2.514,3.282-4.483,7.472-4.483a12.774,12.774,0,0,1,1.494.086V4.483C29.746,1.97,33.028,0,37.218,0S44.69,1.97,44.69,4.483V16.438c0,2.514-3.282,4.483-7.471,4.483a12.733,12.733,0,0,1-1.833-.13c-.94,1.827-3.739,3.12-7.133,3.12C24.061,23.911,20.78,21.941,20.78,19.428Zm1.993,0c0,1.176,2.343,2.49,5.479,2.49s5.48-1.315,5.48-2.49V18.52a10.311,10.311,0,0,1-5.48,1.405,10.31,10.31,0,0,1-5.479-1.405Zm12.951-.6a10.747,10.747,0,0,0,1.495.1c3.136,0,5.479-1.315,5.479-2.491v-.907a10.31,10.31,0,0,1-5.479,1.406,12.963,12.963,0,0,1-1.495-.087ZM22.772,15.442c0,1.176,2.343,2.49,5.479,2.49s5.48-1.315,5.48-2.49v-.907a10.311,10.311,0,0,1-5.48,1.406,10.31,10.31,0,0,1-5.479-1.406Zm12.951-.6a10.861,10.861,0,0,0,1.495.1c3.136,0,5.479-1.316,5.479-2.49v-.908a10.3,10.3,0,0,1-5.479,1.406,12.963,12.963,0,0,1-1.495-.087ZM22.772,11.458c0,1.175,2.343,2.49,5.479,2.49s5.48-1.316,5.48-2.49-2.344-2.491-5.48-2.491S22.772,10.282,22.772,11.458Zm12.886-.61a10.883,10.883,0,0,0,1.56.111c3.136,0,5.479-1.315,5.479-2.491V7.561a10.31,10.31,0,0,1-5.479,1.405,11.968,11.968,0,0,1-3.26-.433A3.947,3.947,0,0,1,35.658,10.848ZM31.739,4.483c0,1.176,2.343,2.491,5.479,2.491S42.7,5.659,42.7,4.483s-2.343-2.49-5.479-2.49S31.739,3.308,31.739,4.483Z" transform="translate(0 0)" fill="#2a6dd9"/>
    </g>
  </g>
</svg>
