<svg width="182" height="182" viewBox="0 0 182 182" fill="none" xmlns="http://www.w3.org/2000/svg">
<path d="M91 0C108.998 0 126.592 5.33706 141.557 15.3363C156.522 25.3355 168.185 39.5477 175.073 56.1758C181.961 72.8039 183.763 91.1009 180.251 108.753C176.74 126.405 168.073 142.62 155.347 155.347C142.62 168.073 126.405 176.74 108.753 180.251C91.1009 183.763 72.8039 181.961 56.1758 175.073C39.5477 168.185 25.3355 156.522 15.3363 141.557C5.33706 126.592 0 108.998 0 91C0 66.8653 9.58747 43.7191 26.6533 26.6533C43.7191 9.58747 66.8653 0 91 0Z" fill="#F5C779"/>
<path d="M29.254 157.85C40.1351 167.9 53.3047 175.141 67.6196 178.946C81.9344 182.751 96.9617 183.004 111.397 179.684C125.831 176.363 139.238 169.569 150.451 159.892C161.664 150.215 170.346 137.946 175.742 124.152C181.138 110.358 183.086 95.4556 181.416 80.7381C179.745 66.0207 174.508 51.9335 166.158 39.6996C157.808 27.4656 146.597 17.4549 133.5 10.5365C120.404 3.61816 105.816 0.00129834 91.004 0V91L29.254 157.85Z" fill="#52BB9C"/>
<path d="M91.5 132C113.868 132 132 113.868 132 91.5C132 69.1325 113.868 51 91.5 51C69.1325 51 51 69.1325 51 91.5C51 113.868 69.1325 132 91.5 132Z" fill="white"/>
</svg>
