<svg width="52" height="46" viewBox="0 0 52 46" fill="none" xmlns="http://www.w3.org/2000/svg">
<path d="M31.558 4.72C35.5848 4.72 39.5212 5.91409 42.8694 8.15128C46.2176 10.3885 48.8272 13.5683 50.3682 17.2886C51.9092 21.0089 52.3124 25.1026 51.5268 29.052C50.7412 33.0015 48.8021 36.6293 45.9547 39.4767C43.1073 42.3241 39.4795 44.2632 35.53 45.0488C31.5806 45.8344 27.4869 45.4312 23.7666 43.8902C20.0463 42.3492 16.8665 39.7396 14.6293 36.3914C12.3921 33.0432 11.198 29.1068 11.198 25.08C11.198 19.6802 13.3431 14.5015 17.1613 10.6833C20.9795 6.86507 26.1582 4.72 31.558 4.72Z" fill="url(#paint0_linear_45_2389)"/>
<path d="M20.36 0C24.3868 0 28.3232 1.19409 31.6714 3.43128C35.0196 5.66846 37.6292 8.84826 39.1702 12.5686C40.7112 16.2889 41.1144 20.3826 40.3288 24.332C39.5432 28.2815 37.6041 31.9093 34.7567 34.7567C31.9093 37.6041 28.2815 39.5432 24.332 40.3288C20.3826 41.1144 16.2889 40.7112 12.5686 39.1702C8.84826 37.6292 5.66846 35.0196 3.43128 31.6714C1.19409 28.3232 0 24.3868 0 20.36C0 14.9602 2.14507 9.78155 5.96331 5.96331C9.78155 2.14507 14.9602 0 20.36 0Z" fill="url(#paint1_linear_45_2389)"/>
<path d="M20.3597 0.5C17.6784 0.5 15.0776 1.02502 12.6295 2.06047C10.2647 3.0607 8.1408 4.49273 6.31676 6.31676C4.49273 8.1408 3.0607 10.2647 2.06047 12.6295C1.02502 15.0776 0.5 17.6784 0.5 20.3597C0.5 23.0409 1.02502 25.6417 2.06047 28.0898C3.0607 30.4546 4.49273 32.5785 6.31676 34.4026C8.1408 36.2266 10.2647 37.6586 12.6295 38.6589C15.0776 39.6943 17.6784 40.2193 20.3597 40.2193C23.0409 40.2193 25.6417 39.6943 28.0898 38.6589C30.4546 37.6586 32.5785 36.2266 34.4026 34.4026C36.2266 32.5785 37.6586 30.4546 38.6589 28.0898C39.6943 25.6417 40.2193 23.0409 40.2193 20.3597C40.2193 17.6784 39.6943 15.0776 38.6589 12.6295C37.6586 10.2647 36.2266 8.1408 34.4026 6.31676C32.5785 4.49273 30.4546 3.0607 28.0898 2.06047C25.6417 1.02502 23.0409 0.5 20.3597 0.5ZM20.36 0C31.6043 0 40.7193 9.11534 40.7193 20.3597C40.7193 31.604 31.604 40.7193 20.3597 40.7193C9.11534 40.7193 0 31.6043 0 20.36C0 9.11567 9.11567 0 20.36 0Z" fill="white" fill-opacity="0.5"/>
<path d="M46.831 44.452C49.4549 44.452 51.582 42.3249 51.582 39.701C51.582 37.0771 49.4549 34.95 46.831 34.95C44.2071 34.95 42.08 37.0771 42.08 39.701C42.08 42.3249 44.2071 44.452 46.831 44.452Z" fill="#C8D5F6"/>
<path d="M19.99 23.87C19.2869 23.87 18.5996 23.6615 18.0151 23.2708C17.4305 22.8801 16.975 22.3248 16.7062 21.6751C16.4373 21.0255 16.3671 20.3107 16.5046 19.6212C16.642 18.9317 16.9809 18.2984 17.4784 17.8015C17.9758 17.3047 18.6094 16.9665 19.2991 16.8298C19.9888 16.6931 20.7035 16.7641 21.3528 17.0337C22.0022 17.3033 22.5569 17.7594 22.947 18.3444C23.337 18.9294 23.5448 19.6169 23.544 20.32C23.5419 21.2616 23.1666 22.1639 22.5005 22.8293C21.8343 23.4947 20.9316 23.8689 19.99 23.87ZM19.99 18.539C19.6387 18.539 19.2953 18.6431 19.0032 18.8382C18.711 19.0333 18.4833 19.3106 18.3487 19.6351C18.214 19.9595 18.1786 20.3166 18.2469 20.6612C18.3151 21.0058 18.4839 21.3224 18.7321 21.5711C18.9802 21.8198 19.2964 21.9893 19.6409 22.0584C19.9853 22.1274 20.3425 22.0928 20.6673 21.9589C20.992 21.825 21.2698 21.5979 21.4656 21.3062C21.6613 21.0145 21.7662 20.6713 21.767 20.32C21.7673 20.0864 21.7215 19.855 21.6323 19.6391C21.5432 19.4231 21.4124 19.2269 21.2474 19.0615C21.0823 18.8961 20.8864 18.7648 20.6706 18.6752C20.4549 18.5855 20.2236 18.5393 19.99 18.539ZM13.771 15.874C13.5954 15.874 13.4237 15.9261 13.2777 16.0237C13.1316 16.1212 13.0178 16.2599 12.9506 16.4222C12.8834 16.5844 12.8658 16.763 12.9001 16.9352C12.9343 17.1075 13.0189 17.2657 13.1431 17.3899C13.2673 17.5141 13.4255 17.5987 13.5978 17.6329C13.77 17.6672 13.9486 17.6496 14.1108 17.5824C14.2731 17.5152 14.4118 17.4014 14.5093 17.2553C14.6069 17.1093 14.659 16.9376 14.659 16.762C14.6587 16.5266 14.5651 16.3009 14.3986 16.1344C14.2321 15.9679 14.0064 15.8743 13.771 15.874ZM25.321 18.539C25.321 18.7146 25.3731 18.8863 25.4707 19.0323C25.5682 19.1784 25.7069 19.2922 25.8692 19.3594C26.0314 19.4266 26.21 19.4442 26.3822 19.4099C26.5545 19.3757 26.7127 19.2911 26.8369 19.1669C26.9611 19.0427 27.0457 18.8845 27.0799 18.7122C27.1142 18.54 27.0966 18.3614 27.0294 18.1992C26.9622 18.0369 26.8484 17.8982 26.7023 17.8007C26.5563 17.7031 26.3846 17.651 26.209 17.651C25.9736 17.6513 25.7479 17.7449 25.5814 17.9114C25.4149 18.0779 25.3213 18.3036 25.321 18.539ZM13.771 21.205C13.5954 21.205 13.4237 21.2571 13.2777 21.3547C13.1316 21.4522 13.0178 21.5909 12.9506 21.7532C12.8834 21.9154 12.8658 22.094 12.9001 22.2662C12.9343 22.4385 13.0189 22.5967 13.1431 22.7209C13.2673 22.8451 13.4255 22.9297 13.5978 22.9639C13.77 22.9982 13.9486 22.9806 14.1108 22.9134C14.2731 22.8462 14.4118 22.7324 14.5093 22.5863C14.6069 22.4403 14.659 22.2686 14.659 22.093C14.6587 21.8576 14.5651 21.6319 14.3986 21.4654C14.2321 21.2989 14.0064 21.2053 13.771 21.205ZM25.321 23.87C25.321 24.0456 25.3731 24.2173 25.4707 24.3633C25.5682 24.5094 25.7069 24.6232 25.8692 24.6904C26.0314 24.7576 26.21 24.7752 26.3822 24.7409C26.5545 24.7067 26.7127 24.6221 26.8369 24.4979C26.9611 24.3737 27.0457 24.2155 27.0799 24.0432C27.1142 23.871 27.0966 23.6924 27.0294 23.5302C26.9622 23.3679 26.8484 23.2292 26.7023 23.1317C26.5563 23.0341 26.3846 22.982 26.209 22.982C25.9736 22.9823 25.7479 23.0759 25.5814 23.2424C25.4149 23.4089 25.3213 23.6346 25.321 23.87ZM24.428 28.313C23.0657 28.2638 21.7165 28.0283 20.418 27.613C19.2714 27.2425 18.0799 27.0289 16.876 26.978C15.8537 26.9365 14.8308 27.0409 13.838 27.288C13.3148 27.4407 12.7631 27.4689 12.2271 27.3703C11.6911 27.2716 11.1856 27.049 10.751 26.72C10.3073 26.3895 9.94733 25.9594 9.70017 25.4644C9.45301 24.9694 9.32553 24.4233 9.328 23.87V17.164C9.33233 16.2621 9.60892 15.3825 10.1216 14.6404C10.6342 13.8983 11.359 13.3283 12.201 13.005C13.2662 12.5755 14.4007 12.3434 15.549 12.32C16.9113 12.3693 18.2605 12.6048 19.559 13.02C20.7056 13.3905 21.8971 13.6041 23.101 13.655C24.1232 13.6964 25.1462 13.5921 26.139 13.345C26.6634 13.1918 27.2164 13.1638 27.7535 13.2631C28.2907 13.3625 28.7971 13.5864 29.232 13.917C29.6753 14.2474 30.0349 14.6772 30.2818 15.1718C30.5288 15.6665 30.6563 16.2121 30.654 16.765V23.471C30.6495 24.3729 30.3729 25.2524 29.8603 25.9945C29.3477 26.7366 28.6229 27.3066 27.781 27.63C26.7158 28.0596 25.5813 28.2917 24.433 28.315L24.428 28.313ZM16.877 25.203C18.2393 25.2523 19.5885 25.4878 20.887 25.903C22.0336 26.2735 23.2251 26.4871 24.429 26.538C25.3609 26.5137 26.2807 26.3209 27.144 25.969C27.6534 25.7793 28.0923 25.4379 28.4015 24.9908C28.7107 24.5437 28.8753 24.0126 28.873 23.469V16.762C28.8741 16.4849 28.8101 16.2115 28.6863 15.9637C28.5624 15.7158 28.3822 15.5005 28.16 15.335C27.9447 15.1711 27.6939 15.06 27.4279 15.0105C27.1618 14.961 26.8879 14.9745 26.628 15.05C25.4754 15.3456 24.2861 15.4732 23.097 15.429C21.7347 15.3797 20.3855 15.1442 19.087 14.729C17.9412 14.3598 16.7508 14.1472 15.548 14.097C14.6144 14.1206 13.6928 14.3134 12.828 14.666C12.3186 14.8557 11.8797 15.1971 11.5705 15.6442C11.2613 16.0913 11.0967 16.6224 11.099 17.166V23.87C11.0979 24.147 11.1619 24.4205 11.2857 24.6683C11.4096 24.9162 11.5898 25.1315 11.812 25.297C12.0273 25.461 12.2781 25.5721 12.5442 25.6215C12.8103 25.6708 13.0842 25.6569 13.344 25.581C14.4966 25.2855 15.6859 25.1578 16.875 25.202L16.877 25.203Z" fill="white"/>
<defs>
<linearGradient id="paint0_linear_45_2389" x1="25.959" y1="0" x2="25.959" y2="45.44" gradientUnits="userSpaceOnUse">
<stop stop-color="#9E7BFA"/>
<stop offset="1" stop-color="#2A6DD9"/>
</linearGradient>
<linearGradient id="paint1_linear_45_2389" x1="25.959" y1="0" x2="25.959" y2="45.44" gradientUnits="userSpaceOnUse">
<stop stop-color="#D2D2FD"/>
<stop offset="1" stop-color="#6177DB"/>
</linearGradient>
</defs>
</svg>
