<svg width="70" height="70" viewBox="0 0 70 70" fill="none" xmlns="http://www.w3.org/2000/svg">
<path d="M35 70C54.33 70 70 54.33 70 35C70 15.67 54.33 0 35 0C15.67 0 0 15.67 0 35C0 54.33 15.67 70 35 70Z" fill="#2A6DD9"/>
<path d="M33.9 26.078V24.509C33.7094 24.4376 33.5245 24.3517 33.347 24.252C32.6513 23.8397 32.127 23.1908 31.87 22.424C31.613 21.6571 31.6403 20.8234 31.947 20.075C32.1176 19.667 32.3654 19.2959 32.677 18.982C32.9899 18.6703 33.3609 18.423 33.769 18.254C34.1775 18.0844 34.6157 17.998 35.058 18C35.7223 17.9989 36.3719 18.195 36.9245 18.5636C37.4772 18.9321 37.908 19.4564 38.1622 20.0701C38.4165 20.6837 38.4829 21.3591 38.3529 22.0105C38.2229 22.6619 37.9024 23.26 37.432 23.729L37.415 23.746C37.2179 23.9397 36.9987 24.1095 36.762 24.252C36.5865 24.3556 36.4013 24.4417 36.209 24.509V26.078H44.088C45.2188 26.0817 46.3022 26.5328 47.1015 27.3327C47.9008 28.1325 48.3511 29.2162 48.354 30.347V30.981H49.815C50.3943 30.9834 50.9491 31.2148 51.3585 31.6247C51.7678 32.0346 51.9984 32.5897 52 33.169V38.251C51.9984 38.8305 51.7677 39.3858 51.3581 39.7957C50.9486 40.2057 50.3935 40.4369 49.814 40.439H48.362V41.012C48.3583 42.144 47.9067 43.2284 47.1058 44.0284C46.3049 44.8283 45.2199 45.2787 44.088 45.281H33.279L26.8 50.844C26.7286 50.9054 26.6457 50.952 26.5562 50.9812C26.4666 51.0104 26.3722 51.0216 26.2784 51.0142C26.1845 51.0068 26.093 50.9808 26.0092 50.9379C25.9254 50.895 25.8509 50.8359 25.79 50.764C25.6684 50.622 25.6061 50.4387 25.616 50.252L25.962 45.272H25.9C24.7708 45.2691 23.6886 44.8195 22.8899 44.0213C22.0911 43.2231 21.6407 42.1412 21.637 41.012V40.439H20.188C19.6082 40.4375 19.0526 40.2064 18.6426 39.7964C18.2326 39.3864 18.0016 38.8308 18 38.251V33.169C18.0013 32.5894 18.232 32.0338 18.6415 31.6237C19.0511 31.2135 19.6064 30.9821 20.186 30.98H21.641V30.344C21.6431 29.2145 22.0923 28.1317 22.8903 27.3323C23.6884 26.5329 24.7705 26.082 25.9 26.078H33.9ZM40.885 31.091C41.3972 31.0902 41.8982 31.2414 42.3245 31.5254C42.7507 31.8094 43.0832 32.2135 43.2798 32.6865C43.4763 33.1595 43.5282 33.6802 43.4287 34.1827C43.3293 34.6851 43.083 35.1468 42.7211 35.5093C42.3592 35.8718 41.8979 36.1188 41.3956 36.219C40.8932 36.3192 40.3725 36.2682 39.8992 36.0723C39.4258 35.8765 39.0213 35.5447 38.7366 35.1188C38.4519 34.693 38.3 34.1923 38.3 33.68C38.3 32.9934 38.5728 32.3349 39.0583 31.8493C39.5438 31.3638 40.2024 31.091 40.889 31.091H40.885ZM29.105 31.091C29.6173 31.09 30.1183 31.241 30.5447 31.5249C30.9711 31.8088 31.3038 32.2128 31.5005 32.6858C31.6972 33.1588 31.7492 33.6795 31.6499 34.1821C31.5505 34.6846 31.3043 35.1464 30.9425 35.509C30.5806 35.8715 30.1193 36.1186 29.6169 36.2189C29.1146 36.3192 28.5938 36.2682 28.1204 36.0724C27.647 35.8766 27.2424 35.5448 26.9577 35.1189C26.673 34.6931 26.521 34.1923 26.521 33.68C26.521 32.9934 26.7938 32.3349 27.2793 31.8493C27.7648 31.3638 28.4234 31.091 29.11 31.091H29.105ZM30.87 39.767C30.831 39.7363 30.7957 39.701 30.765 39.662C30.6751 39.557 30.6243 39.4242 30.621 39.286C30.6183 39.147 30.6631 39.0112 30.748 38.901C30.7797 38.861 30.816 38.8248 30.856 38.793C31.0082 38.6733 31.1952 38.6063 31.3888 38.6024C31.5824 38.5984 31.7721 38.6576 31.929 38.771C32.4017 39.1454 32.9266 39.4486 33.487 39.671C33.9694 39.8577 34.4827 39.9517 35 39.948C35.5236 39.9383 36.0415 39.8368 36.53 39.648C37.0968 39.4214 37.6316 39.1219 38.121 38.757C38.2818 38.6482 38.4734 38.5943 38.6673 38.6033C38.8612 38.6123 39.047 38.6838 39.197 38.807C39.2337 38.8416 39.2672 38.8794 39.297 38.92C39.3782 39.0323 39.4191 39.1686 39.413 39.307C39.4012 39.4453 39.3451 39.5762 39.253 39.68C39.2179 39.7199 39.1779 39.7552 39.134 39.785C38.5118 40.245 37.8294 40.6175 37.106 40.892C36.44 41.1447 35.7352 41.2801 35.023 41.292C34.3103 41.302 33.6017 41.182 32.932 40.938C32.1937 40.6618 31.5023 40.2736 30.882 39.787L30.87 39.767ZM44.08 27.517H25.9C25.1506 27.5199 24.4328 27.8191 23.9032 28.3493C23.3735 28.8795 23.0751 29.5976 23.073 30.347V41.011C23.0748 41.7606 23.3732 42.479 23.9028 43.0094C24.4325 43.5398 25.1504 43.8391 25.9 43.842H26.777C26.9667 43.8561 27.1431 43.9445 27.268 44.0879C27.3929 44.2313 27.4561 44.4182 27.444 44.608L27.167 48.642L32.506 44.042C32.5724 43.9757 32.6513 43.9233 32.7382 43.8877C32.8251 43.8522 32.9181 43.8343 33.012 43.835H44.082C44.8314 43.8321 45.5492 43.5329 46.0788 43.0028C46.6085 42.4726 46.9069 41.7544 46.909 41.005V30.344C46.9074 29.5951 46.6093 28.8773 46.0799 28.3475C45.5506 27.8177 44.8329 27.5191 44.084 27.517H44.08Z" fill="white"/>
</svg>
