<svg xmlns="http://www.w3.org/2000/svg" width="16" height="15.537" viewBox="0 0 16 15.537">
  <path id="chatbot-icon" d="M7.484,3.8V3.063a1.876,1.876,0,0,1-.26-.121A1.586,1.586,0,0,1,6.567.976,1.613,1.613,0,0,1,6.91.462,1.59,1.59,0,0,1,7.421.12,1.562,1.562,0,0,1,8.027,0,1.578,1.578,0,0,1,9.144,2.7L9.137,2.7a1.659,1.659,0,0,1-.307.238,1.466,1.466,0,0,1-.26.121V3.8h3.708A2.014,2.014,0,0,1,14.284,5.81v.3h.687A1.032,1.032,0,0,1,16,7.138V9.53a1.032,1.032,0,0,1-1.028,1.03h-.683v.269a2.015,2.015,0,0,1-2.011,2.009H7.19L4.141,15.456a.336.336,0,0,1-.475-.038.342.342,0,0,1-.082-.241l.163-2.343H3.719a2.011,2.011,0,0,1-2.006-2v-.269H1.03A1.032,1.032,0,0,1,0,9.53V7.138a1.032,1.032,0,0,1,1.028-1.03h.685v-.3A2.011,2.011,0,0,1,3.719,3.8ZM10.772,6.16A1.219,1.219,0,1,1,9.553,7.379,1.219,1.219,0,0,1,10.772,6.16Zm-5.543,0A1.219,1.219,0,1,1,4.01,7.379,1.219,1.219,0,0,1,5.228,6.16Zm.831,4.083a.3.3,0,0,1-.049-.049.284.284,0,0,1-.068-.177A.288.288,0,0,1,6,9.836a.312.312,0,0,1,.051-.051.419.419,0,0,1,.505-.01,2.911,2.911,0,0,0,.733.422,1.935,1.935,0,0,0,.712.13,2.106,2.106,0,0,0,.72-.143,3.305,3.305,0,0,0,.749-.419.422.422,0,0,1,.506.023.391.391,0,0,1,.048.053.289.289,0,0,1,.055.182A.3.3,0,0,1,10,10.2a.3.3,0,0,1-.056.049,3.982,3.982,0,0,1-.954.521,2.9,2.9,0,0,1-.98.186,2.763,2.763,0,0,1-.984-.167,3.617,3.617,0,0,1-.965-.542h0Zm6.216-5.765H3.719A1.336,1.336,0,0,0,2.389,5.81v5.019a1.336,1.336,0,0,0,1.331,1.332h.413a.34.34,0,0,1,.314.361l-.13,1.9,2.513-2.162a.333.333,0,0,1,.238-.1h5.207A1.336,1.336,0,0,0,13.6,10.828V5.809A1.333,1.333,0,0,0,12.275,4.478Z" transform="translate(0 0)" fill="#2a6dd9"/>
</svg>
